<?xml version="1.0" encoding="UTF-8" standalone="no"?>
<!-- Created with Inkscape (http://www.inkscape.org/) -->

<svg
   xmlns:dc="http://purl.org/dc/elements/1.1/"
   xmlns:cc="http://creativecommons.org/ns#"
   xmlns:rdf="http://www.w3.org/1999/02/22-rdf-syntax-ns#"
   xmlns:svg="http://www.w3.org/2000/svg"
   xmlns="http://www.w3.org/2000/svg"
   xmlns:sodipodi="http://sodipodi.sourceforge.net/DTD/sodipodi-0.dtd"
   xmlns:inkscape="http://www.inkscape.org/namespaces/inkscape"
   width="297mm"
   height="210mm"
   viewBox="0 0 1052.3622 744.09448"
   id="svg4650"
   version="1.1"
   inkscape:version="0.91 r13725"
   sodipodi:docname="alacle-logo-final-positive.svg"
   inkscape:export-filename="/Users/moro/Desktop/alacle-final-positive.png"
   inkscape:export-xdpi="300"
   inkscape:export-ydpi="300">
  <defs
     id="defs4652" />
  <sodipodi:namedview
     id="base"
     pagecolor="#ffffff"
     bordercolor="#666666"
     borderopacity="1.0"
     inkscape:pageopacity="0.0"
     inkscape:pageshadow="2"
     inkscape:zoom="0.25"
     inkscape:cx="655.82454"
     inkscape:cy="320.68915"
     inkscape:document-units="px"
     inkscape:current-layer="layer11"
     showgrid="false"
     inkscape:window-width="1401"
     inkscape:window-height="848"
     inkscape:window-x="31"
     inkscape:window-y="0"
     inkscape:window-maximized="0"
     showguides="true"
     inkscape:guide-bbox="true" />
  <metadata
     id="metadata4655">
    <rdf:RDF>
      <cc:Work
         rdf:about="">
        <dc:format>image/svg+xml</dc:format>
        <dc:type
           rdf:resource="http://purl.org/dc/dcmitype/StillImage" />
        <dc:title></dc:title>
      </cc:Work>
    </rdf:RDF>
  </metadata>
  <g
     inkscape:groupmode="layer"
     id="layer11"
     inkscape:label="a la cle"
     transform="translate(0,3.464567e-6)">
    <g
       id="g5049"
       transform="translate(21.181102,-567.04728)">
      <path
         id="path4752-6"
         d="m 457.91863,808.98166 c -2.77363,0.0107 -5.57176,0.12167 -8.39062,0.33789 -57.49823,4.41047 -112.27493,56.95702 -109,108 4.27715,66.66358 34.34749,131.35485 130.75391,120.40825 l 21.74609,30.5918 17.52344,-38.6836 c 71.04192,-23.0024 64.21705,-85.74712 56.97656,-133.81645 -6.88545,-45.71228 -53.21214,-87.05633 -109.60938,-86.83789 z"
         style="fill:#666666;fill-opacity:1;fill-rule:evenodd;stroke:none;stroke-width:1px;stroke-linecap:butt;stroke-linejoin:miter;stroke-opacity:1"
         inkscape:connector-curvature="0" />
      <path
         id="path4757-3"
         d="m 701.71746,797.87619 c -23.10814,0.20764 -45.8221,5.1977 -66.68945,13.94336 -67.41245,28.25306 -86.11918,72.68218 -86,131.5 0.0944,46.59327 31.33382,88.98185 95.86914,100.64845 l -2.86914,36.3516 43.64648,-32.9864 c 90.89566,1.2501 142.28359,-30.4433 154.35352,-95.51365 8.46241,-45.62184 -5.17402,-95.47391 -39,-121 -30.92179,-23.33451 -65.53711,-33.24683 -99.31055,-32.94336 z"
         style="fill:#666666;fill-opacity:1;fill-rule:evenodd;stroke:none;stroke-width:1px;stroke-linecap:butt;stroke-linejoin:miter;stroke-opacity:1"
         inkscape:connector-curvature="0" />
      <path
         id="path4743-0"
         d="m 291.66863,814.93674 c -39.31548,-0.20551 -83.70839,23.47842 -104.64062,54.38281 -26.48786,39.10675 -27.85988,93.60947 7.5,141.49995 26.93341,36.478 72.04267,46.348 116.44922,23.4161 l 53.05078,23.084 -14.31445,-52.4844 c 19.60275,-21.45435 28.12844,-47.47147 27.81445,-83.01565 -0.33057,-37.42142 -11.26105,-79.58319 -52,-99.5 -10.26527,-5.01857 -21.82402,-7.3199 -33.85938,-7.38281 z"
         style="fill:#666666;fill-opacity:1;fill-rule:evenodd;stroke:none;stroke-width:1px;stroke-linecap:butt;stroke-linejoin:miter;stroke-opacity:1"
         inkscape:connector-curvature="0" />
      <path
         inkscape:connector-curvature="0"
         id="path4766-9"
         d="m 279.65088,916.59152 c -1.16344,0.20365 -2.44795,0.53412 -3.86246,1.02456 -9.50913,3.29712 -19.64862,13.31103 -20.53996,22.13057 -1.16587,11.53582 6.3196,21.18805 15.13351,21.74762 14.3834,0.91316 18.84052,-12.8404 18.84052,-12.8404 0,0 5.21816,10.03158 8.94908,12.88245 0,0 7.62899,3.00979 9.72871,-2.01498 0,0 -14.06155,-14.2393 -17.85312,-39.54387 0,0 -2.25218,-4.81147 -10.39628,-3.38595 z m 0.90959,8.2006 c 3.62821,-0.78375 4.83896,0.73786 4.83896,0.73786 1.79835,5.1837 -0.83177,22.86689 -8.31798,25.15536 -5.78335,1.76793 -10.71951,-0.78603 -12.06305,-6.92288 -1.31509,-6.00708 2.58945,-12.25075 8.98288,-16.11332 2.7618,-1.66852 4.91001,-2.50076 6.55919,-2.85702 z"
         style="fill:#f0f0f0;fill-opacity:1;fill-rule:evenodd;stroke:none;stroke-width:1px;stroke-linecap:butt;stroke-linejoin:miter;stroke-opacity:1" />
      <path
         sodipodi:nodetypes="ccccc"
         inkscape:connector-curvature="0"
         id="path4768-6"
         d="m 247.02802,878.82028 c 0,0 16.5,3.25 32.5,19.5 0,0 1.75,-0.25 1.5,-2 0,0 -12.25,-24.25 -32,-26.75 0,0 -4.5,5 -2,9.25 z"
         style="fill:#f0f0f0;fill-opacity:1;fill-rule:evenodd;stroke:none;stroke-width:1px;stroke-linecap:butt;stroke-linejoin:miter;stroke-opacity:1" />
      <path
         sodipodi:nodetypes="csccscc"
         inkscape:connector-curvature="0"
         id="path4772-2"
         d="m 434.02802,869.57028 c -4,7.5 -10.82426,33.4781 -10.5,50.75 0.44173,23.52906 12.25,38.75 12.25,38.75 3.5,2.5 7.75,-0.5 7.75,-0.5 -6,-7.5 -8.54501,-17.56714 -8.25,-31.75 0.38684,-18.5978 12,-54.5 12,-54.5 3.75,-9.75 -13.25,-2.75 -13.25,-2.75 z"
         style="fill:#f0f0f0;fill-opacity:1;fill-rule:evenodd;stroke:none;stroke-width:1px;stroke-linecap:butt;stroke-linejoin:miter;stroke-opacity:1" />
      <path
         inkscape:connector-curvature="0"
         id="path4774-5"
         d="m 475.08857,918.12424 c -2.25336,-0.002 -4.79262,0.45838 -7.56055,1.69531 -8.35969,3.73577 -18.302,14.10453 -18.25,23.25 0.0459,8.06945 6.18044,17.2383 14.25,17.25 12.69319,0.0184 21.5,-16 21.5,-16 0,0 1,11.75 5.5,19 1.5,1 12.75,5.25 10.75,-4.5 0,0 -9.5,-12.25 -15.25,-36.5 0,0 -4.17937,-4.18796 -10.93945,-4.19531 z m 0.69336,8.05859 c 2.43598,-0.12059 3.49609,0.88672 3.49609,0.88672 1,4.75 -0.92278,13.49028 -5.25,18 -3.96352,4.13068 -9.70407,5.30734 -12.75,2.25 -3.6456,-3.65926 -1.24323,-11.97362 2.75,-15.25 5.50604,-4.51763 9.31792,-5.76612 11.75391,-5.88672 z"
         style="fill:#f0f0f0;fill-opacity:1;fill-rule:evenodd;stroke:none;stroke-width:1px;stroke-linecap:butt;stroke-linejoin:miter;stroke-opacity:1" />
      <path
         sodipodi:nodetypes="csccscc"
         inkscape:connector-curvature="0"
         id="path4778-1"
         d="m 661.52802,863.57028 c 0,0 -13.3447,43.07056 -10.5,64.75 2.49358,19.00356 13.5,30 13.5,30 0,0 -2.16637,5.56586 -8,1.5 0,0 -13.96128,-10.46888 -14.5,-41.5 -0.42763,-24.63197 5.14645,-45.71447 5.14645,-45.71447 3.71231,-14.67246 14.35355,-9.03553 14.35355,-9.03553 z"
         style="fill:#f0f0f0;fill-opacity:1;fill-rule:evenodd;stroke:none;stroke-width:1px;stroke-linecap:butt;stroke-linejoin:miter;stroke-opacity:1" />
      <path
         sodipodi:nodetypes="cssssccsssscc"
         inkscape:connector-curvature="0"
         id="path4780-6"
         d="m 722.02802,934.32028 c 0,0 -15.95711,19.8888 -32,17.25 -11.11501,-1.82824 -11.48425,-10.44762 -11,-17.25 0.27979,-3.93029 6.61561,-11.69185 10.25,-11 3.56905,0.67941 1.36856,3.97257 -1.75,6.5 -5.70884,4.62672 -12.25,6.5 -12.25,6.5 l 0.75,5 c 0,0 15.32141,-1.49198 20.75,-11.25 2.77535,-4.98876 2.21093,-14.2845 -9.5,-14.25 -12.23447,0.036 -17.75292,10.96019 -17.75,21.25 0.004,15.74502 10.71877,21.41729 21,23.25 22.03227,3.92743 35.5,-15.75 35.5,-15.75 3.88909,-7.6014 -4,-10.25 -4,-10.25 z"
         style="fill:#f0f0f0;fill-opacity:1;fill-rule:nonzero;stroke:none;stroke-width:1px;stroke-linecap:butt;stroke-linejoin:miter;stroke-opacity:1" />
      <path
         sodipodi:nodetypes="cccscc"
         inkscape:connector-curvature="0"
         id="path4782-3"
         d="m 689.77802,896.82028 c 0,0 17.74175,-12.4519 31,-14.75 0,0 4.01777,-3.33058 2.25,-7.75 0,0 -1.20468,-3.53785 -11.5,0.5 -9.19805,3.60749 -22.21967,18.64645 -22.21967,18.64645 z"
         style="fill:#f0f0f0;fill-opacity:1;fill-rule:evenodd;stroke:none;stroke-width:1px;stroke-linecap:butt;stroke-linejoin:miter;stroke-opacity:1" />
      <path
         sodipodi:nodetypes="cssccssscc"
         inkscape:connector-curvature="0"
         id="path4784-5"
         d="m 627.77802,923.07028 c 0,0 -18.33508,1.27942 -20,12 -1.41388,9.10413 3.19965,11.96127 8.15901,12.13388 6.61581,0.23028 17.84099,-6.63388 17.84099,-6.63388 0,0 3.56066,1.43629 2.32322,11.86612 0,0 -8.03796,9.07735 -19.21967,8.13388 -10.82216,-0.91313 -17.60355,-8.4143 -17.60355,-21.25 0,-9.2049 8.06382,-16.63486 16.80546,-20.29289 8.81163,-3.68732 13.65165,-1.06066 13.65165,-1.06066 0.7071,2.82842 -1.95711,5.10355 -1.95711,5.10355 z"
         style="fill:#f0f0f0;fill-opacity:1;fill-rule:evenodd;stroke:none;stroke-width:1px;stroke-linecap:butt;stroke-linejoin:miter;stroke-opacity:1" />
      <path
         inkscape:connector-curvature="0"
         id="path4786-4"
         d="m 774.22529,858.69846 c -1.37002,-0.0138 -2.90584,0.36293 -4.54102,1.29101 -10.07628,15.90991 -13.55418,32.73469 -14.49609,46.66797 -1.58681,23.47308 -0.70703,51.26563 -0.70704,51.26563 1.76778,3.71231 4.06446,3.18164 4.06446,3.18164 0,0 0.28334,-32.42108 6.1875,-57.62891 0.92289,-3.94029 1.86543,-7.4922 2.80469,-10.70898 12.21461,0.2269 18.4082,6.82031 18.4082,6.82031 0,0 3.18259,-4.77394 3.35937,-9.19336 0,0 -7.77441,-6.42538 -18.63476,-7.18164 0.5463,-1.48753 1.08051,-2.86292 1.60547,-4.13477 8.40352,1.44924 16.85351,6.89649 16.85351,6.89649 0,0 3.00387,-5.12631 3.35742,-11.13672 0,0 -6.84733,-3.55704 -16.20117,-4.16992 2.40464,-4.25252 4.00391,-5.72852 4.00391,-5.72852 0.66291,-2.65165 -1.9544,-6.1988 -6.06445,-6.24023 z"
         style="fill:#f0f0f0;fill-opacity:1;fill-rule:evenodd;stroke:none;stroke-width:1px;stroke-linecap:butt;stroke-linejoin:miter;stroke-opacity:1" />
      <path
         inkscape:connector-curvature="0"
         id="path4792-8"
         d="m 763.03388,963.25314 c -1.1801,-0.0372 -2.33995,0.1208 -3.42578,0.50391 -8.6507,3.05222 -18.46674,13.80673 -16.44141,22.0957 1.4829,6.06896 8.96653,8.76457 16.44141,6.54102 8.11049,-2.41262 17.92872,-9.28274 15.20117,-20.32813 -1.19619,-4.84405 -6.66164,-8.65141 -11.77539,-8.8125 z m -1.94922,11.64844 c 2.24041,0.0904 4.25569,1.39511 4.70898,3.17383 0.73411,2.8806 -2.76941,5.65407 -5.65624,6.36328 -2.48712,0.61101 -5.891,0.35611 -6.54102,-2.12109 -0.73588,-2.80441 1.12937,-4.94743 4.41992,-6.7168 0.98562,-0.52998 2.04999,-0.74032 3.06836,-0.69922 z"
         style="fill:#f0f0f0;fill-opacity:1;fill-rule:evenodd;stroke:none;stroke-width:1px;stroke-linecap:butt;stroke-linejoin:miter;stroke-opacity:1" />
    </g>
  </g>
</svg>
