<?xml version="1.0" standalone="no"?>
<!DOCTYPE svg PUBLIC "-//W3C//DTD SVG 1.1//EN" "http://www.w3.org/Graphics/SVG/1.1/DTD/svg11.dtd">
<svg xmlns="http://www.w3.org/2000/svg">
<defs >
<font id="MerriweatherSans" horiz-adv-x="1307" ><font-face
    font-family="Merriweather Sans"
    units-per-em="2048"
    panose-1="2 0 5 3 6 0 0 2 0 4"
    ascent="2014"
    descent="-560"
    alphabetic="0" />
<glyph unicode=" " glyph-name="space" horiz-adv-x="678" />
<glyph unicode="!" glyph-name="exclam" horiz-adv-x="669" d="M133 1780H540L500 590H186L133 1780ZM120 189Q120 281 184 348Q251 416 344 416Q437 416 494 356Q548 298 548 206Q548 114 484 46Q420 -22 326 -22Q235 -22 178 38Q120 100 120 189Z" />
<glyph unicode="&quot;" glyph-name="quotedbl" horiz-adv-x="1257" d="M198 1703H532L491 950H240L198 1703ZM726 1703H1060L1019 950H768L726 1703Z" />
<glyph unicode="#" glyph-name="numbersign" horiz-adv-x="1709" d="M383 305H206V553H407L435 838H247V1075H457L486 1373H788L759 1075H1022L1050 1373H1349L1320 1075H1511V838H1297L1269 553H1467V305H1245L1216 0H922L950 305H683L653 0H354L383 305ZM973
553L1000 838H735L707 553H973Z" />
<glyph unicode="$" glyph-name="dollar" horiz-adv-x="1409" d="M263 374Q371 312 545 286Q605 277 690 277Q871 277 871 406Q871 473 802 524Q761 553 625 618T424 727T310 828Q205 952 205 1121Q205 1383 448 1485Q525 1517 619 1529L628 1763H832L823 1536Q1047
1523 1177 1451L1118 1165Q1039 1227 881 1254Q831 1262 752 1262T622 1227T571 1146T586 1072T634 1018Q690 973 811 919T1009 818T1141 717Q1252 604 1252 435Q1252 241 1128 124Q999 3 769 -13L762 -225H557L565 -9Q319 15 216 78L263 374Z" />
<glyph unicode="%" glyph-name="percent" horiz-adv-x="2287" d="M521 589Q518 589 515 589Q312 589 201 724Q99 849 99 1057Q99 1276 238 1408Q368 1532 557 1532Q560 1532 563 1532Q768 1532 878 1396Q978 1271 978 1063Q978 845 838 712Q709 589 521 589ZM1283
1530H1566L1009 0H727L1283 1530ZM613 822T653 884T694 1028T684 1155T654 1233Q613 1300 538 1300T423 1238T382 1094T392 967T422 890Q463 822 538 822ZM1309 472Q1309 579 1347 667T1448 816Q1579 939 1766 939Q1769 939 1772 939Q1978 939 2088 804Q2188 680
2188 471Q2188 252 2048 120Q1919 -4 1730 -4Q1521 -4 1410 132Q1309 258 1309 472ZM1673 708T1633 646T1592 502T1602 374T1632 297Q1673 230 1748 230T1863 292T1903 436T1893 563T1864 640Q1823 708 1748 708Z" />
<glyph unicode="&amp;" glyph-name="ampersand" horiz-adv-x="1540" d="M1062 51Q903 -16 737 -16T443 12T230 96Q61 204 61 410Q61 658 368 793Q237 982 237 1154Q237 1339 362 1443Q487 1546 698 1546Q899 1546 1024 1438Q1146 1333 1146 1172Q1146 930 948
801Q889 763 824 731Q943 568 1088 414Q1144 495 1144 603Q1144 683 1136 719T1127 766H1421Q1436 698 1436 602Q1436 374 1312 239Q1390 204 1496 204V-1Q1431 -16 1340 -16Q1189 -16 1062 51ZM687 910Q843 1010 843 1169Q843 1262 772 1299Q745 1313 707 1313T643
1302T598 1270Q560 1228 560 1179T567 1102T590 1046Q614 1000 687 910ZM514 603Q404 532 404 428Q404 232 698 232Q773 232 827 244Q663 412 514 603Z" />
<glyph unicode="&apos;" glyph-name="quotesingle" horiz-adv-x="730" d="M198 1703H532L491 950H240L198 1703Z" />
<glyph unicode="(" glyph-name="parenleft" horiz-adv-x="843" d="M572 -360Q425 -265 294 -56Q179 128 126 398Q99 540 99 704T125 1001T194 1245T289 1444T394 1597Q488 1713 572 1767L762 1637Q651 1544 550 1342Q412 1063 412 707Q412 359 534 91Q626 -114
762 -229L572 -360Z" />
<glyph unicode=")" glyph-name="parenright" horiz-adv-x="843" d="M264 1782Q411 1687 542 1478Q657 1294 710 1024Q737 882 737 718T711 421T642 177T547 -22T442 -175Q348 -291 264 -345L74 -215Q185 -122 286 80Q424 359 424 715Q424 1063 302 1331Q210 1536
74 1651L264 1782Z" />
<glyph unicode="*" glyph-name="asterisk" horiz-adv-x="1412" d="M140 992L429 1131L589 1173Q584 1174 561 1179T510 1191Q435 1207 427 1211L133 1342L257 1585L530 1396L648 1275Q647 1280 640 1303T625 1354Q603 1428 602 1437L562 1758H834L807 1442L763
1277Q768 1280 803 1321Q855 1379 879 1403L1145 1595L1272 1353L985 1219L822 1174L987 1135L1279 1010L1142 759L888 947L765 1067Q766 1062 773 1039T788 989T803 938T812 907L849 584H578L607 905L650 1068L534 941L274 748L140 992Z" />
<glyph unicode="+" glyph-name="plus" horiz-adv-x="1401" d="M560 440L566 645L406 640H188V911H406L566 906L560 1109V1309H839V1109L833 906L990 911H1212V640H990L833 645L839 440V247H560V440Z" />
<glyph unicode="," glyph-name="comma" horiz-adv-x="700" d="M151 182L414 318Q493 288 540 182Q581 90 581 -3T560 -176T500 -324Q421 -468 306 -512L174 -408V-382Q227 -343 248 -213Q255 -170 255 -129T245 -54T220 8Q187 69 151 75V182Z" />
<glyph unicode="-" glyph-name="hyphen" horiz-adv-x="1358" d="M254 904H1104V626H254V904Z" />
<glyph unicode="." glyph-name="period" horiz-adv-x="669" d="M120 189Q120 279 185 348Q250 416 344 416Q437 416 494 356Q548 298 548 206Q548 113 485 46Q420 -22 327 -22Q235 -22 178 38Q120 100 120 189Z" />
<glyph unicode="/" glyph-name="slash" horiz-adv-x="862" d="M563 1599H854L299 -363H8L563 1599Z" />
<glyph unicode="0" glyph-name="zero" horiz-adv-x="1438" d="M167 320Q138 393 126 471T114 666T160 901T289 1102Q458 1271 735 1271Q1150 1271 1274 948Q1324 816 1324 639Q1324 338 1156 160Q989 -16 710 -16Q299 -16 167 320ZM951 618Q951 892 825 988Q782
1020 722 1020Q720 1020 718 1020Q606 1020 545 922Q485 826 485 651Q485 479 545 358T719 236T892 334T951 618Z" />
<glyph unicode="1" glyph-name="one" horiz-adv-x="1058" d="M382 878Q300 859 155 836L125 1060Q262 1093 456 1196Q539 1240 585 1278L770 1249L767 0H382V878Z" />
<glyph unicode="2" glyph-name="two" horiz-adv-x="1418" d="M140 169Q359 277 545 436Q785 643 785 811Q785 941 688 984Q653 999 602 999T504 989T414 961Q326 926 272 874L147 1088Q271 1216 505 1272Q589 1292 707 1292T923 1258T1080 1166Q1190 1062 1190
889Q1190 629 909 411Q820 342 709 276L1262 314V0H190L140 169Z" />
<glyph unicode="3" glyph-name="three" horiz-adv-x="1201" d="M123 -38Q257 -69 344 -69T498 -53T615 -6Q718 61 718 181Q718 335 592 378Q554 390 523 390T480 390L344 358L294 587Q436 613 514 655T624 744Q656 795 656 859T609 961T476 999Q315 999 174 896L68
1128Q116 1180 256 1228Q412 1280 539 1280T757 1256T908 1184Q1035 1089 1035 920Q1035 671 784 532Q949 510 1038 399Q1114 305 1114 186T1066 -27T930 -188Q743 -331 441 -333Q292 -333 124 -281L123 -38Z" />
<glyph unicode="4" glyph-name="four" horiz-adv-x="1452" d="M634 1342H711L1001 1205L582 431L483 262H821L859 634H1177V262H1399V0H1177V-376H821V0H166L80 132L634 1342Z" />
<glyph unicode="5" glyph-name="five" horiz-adv-x="1320" d="M173 -97Q215 -99 299 -99T485 -75T657 -6Q799 82 799 229Q799 323 739 371T557 419T252 355L186 389L249 1252H1134L1102 951H515L484 644Q610 684 726 684T925 654T1065 567Q1179 451 1179 243Q1179
-31 948 -197Q715 -365 321 -365Q228 -365 172 -351L173 -97Z" />
<glyph unicode="6" glyph-name="six" horiz-adv-x="1456" d="M861 748Q829 762 780 762T662 729L594 921Q642 990 791 1026Q844 1038 923 1038T1082 1003T1218 906Q1338 775 1338 568Q1338 315 1184 158Q1015 -16 714 -16Q455 -16 287 164T118 623Q118 909 269
1150Q400 1361 618 1501Q818 1630 1012 1653L1096 1434Q821 1365 662 1138Q511 924 511 674Q511 365 638 270Q683 237 748 237Q859 237 914 305T970 497Q970 700 861 748Z" />
<glyph unicode="7" glyph-name="seven" horiz-adv-x="1334" d="M284 -292Q389 -73 500 181T651 525T724 691Q788 840 824 928L122 929V1271H1161L1242 1155L650 -394L284 -292Z" />
<glyph unicode="8" glyph-name="eight" horiz-adv-x="1402" d="M393 770Q166 926 166 1163Q166 1336 304 1448Q449 1565 699 1565Q949 1565 1090 1462Q1225 1363 1225 1202Q1225 1024 1087 900Q1039 857 971 825Q1122 741 1181 678Q1293 557 1293 420Q1293 219
1130 100Q973 -16 716 -16Q437 -16 277 96Q118 208 118 397Q118 638 393 770ZM751 938Q900 1012 900 1179Q900 1183 900 1187Q900 1254 849 1297T704 1340Q618 1340 562 1296Q509 1255 509 1204T528 1117T580 1052Q635 999 751 938ZM619 647Q466 557 466 414Q466
285 600 242Q646 227 700 227T792 238T858 270Q919 316 919 387Q919 496 733 590Q679 618 619 647Z" />
<glyph unicode="9" glyph-name="nine" horiz-adv-x="1455" d="M567 514T600 498T682 481T803 505L868 314Q819 247 673 217Q619 206 539 206T379 243T243 347Q123 486 123 698Q123 952 282 1106Q452 1270 754 1270Q1016 1270 1178 1093Q1340 916 1340 632Q1340
342 1186 96Q1053 -116 828 -261Q623 -393 431 -416L343 -204Q528 -159 673 -29Q869 147 929 405Q948 488 948 577T935 747T894 890Q834 1016 720 1016T547 951T489 789T503 638T542 549Z" />
<glyph unicode=":" glyph-name="colon" horiz-adv-x="669" d="M120 189Q120 279 185 348Q250 416 344 416Q437 416 494 356Q548 298 548 206Q548 113 485 46Q420 -22 327 -22Q235 -22 178 38Q120 100 120 189ZM120 925Q120 1015 185 1084Q250 1152 344 1152Q437
1152 494 1092Q548 1034 548 942Q548 849 485 782Q420 714 327 714Q235 714 178 774Q120 836 120 925Z" />
<glyph unicode=";" glyph-name="semicolon" horiz-adv-x="669" d="M392 182L655 318Q734 288 781 182Q822 90 822 -3T801 -176T741 -324Q662 -468 547 -512L415 -408V-382Q468 -343 489 -213Q496 -170 496 -129T486 -54T461 8Q428 69 392 75V182ZM120 925Q120
1015 185 1084Q250 1152 344 1152Q437 1152 494 1092Q548 1034 548 942Q548 849 485 782Q420 714 327 714Q235 714 178 774Q120 836 120 925Z" />
<glyph unicode="&lt;" glyph-name="less" horiz-adv-x="1376" d="M211 853L1155 1356V1033L642 774L1155 547V213L211 699V853Z" />
<glyph unicode="=" glyph-name="equal" horiz-adv-x="1430" d="M253 1155H1177V904H253V1155ZM253 647H1177V395H253V647Z" />
<glyph unicode="&gt;" glyph-name="greater" horiz-adv-x="1375" d="M1156 853L212 1356V1033L725 774L212 547V213L1156 699V853Z" />
<glyph unicode="?" glyph-name="question" horiz-adv-x="1063" d="M342 1564Q216 1564 106 1516V1784Q170 1825 336 1841Q387 1846 484 1846T691 1815Q1012 1724 1012 1422Q1012 1227 878 1105Q839 1070 799 1039T720 976T650 909Q576 824 576 708Q576 672 587
632T613 535H329Q255 658 255 787Q255 938 368 1048Q400 1079 433 1108T499 1165T558 1226Q614 1297 614 1379Q614 1564 342 1564ZM284 178Q284 264 348 329Q411 394 501 394Q637 394 684 274Q699 237 699 194Q699 107 637 43Q574 -22 484 -22Q396 -22 340 35Q284
93 284 178Z" />
<glyph unicode="@" glyph-name="at" horiz-adv-x="2245" d="M1579 -319Q1366 -461 1040 -461Q655 -461 411 -249Q241 -102 176 147Q143 273 143 434T183 743T297 1014T473 1236T700 1402Q953 1543 1255 1543Q1624 1543 1851 1352Q2090 1150 2090 797Q2090 409
1894 190Q1720 -5 1476 -5Q1375 -5 1322 38Q1254 93 1262 245Q1110 -5 906 -5Q784 -5 696 106Q604 225 604 420Q604 671 753 864Q855 997 1024 1052Q1110 1080 1233 1080T1445 1025L1642 1056Q1634 1020 1625 972T1604 869T1582 755T1558 636Q1531 504 1516 433Q1496
340 1496 290Q1496 206 1550 206T1661 243T1764 352Q1869 515 1869 771Q1869 1176 1540 1302Q1411 1352 1273 1352T1025 1325T817 1243T637 1110T496 928Q369 711 369 427Q369 -52 734 -209Q877 -271 1060 -271Q1303 -271 1460 -192Q1501 -171 1533 -153L1579 -319ZM1321
814Q1278 861 1199 861T1066 827T973 736Q886 614 886 453Q886 353 912 303T977 253T1052 278T1123 347T1191 447T1250 566Q1307 698 1321 814Z" />
<glyph unicode="A" glyph-name="A" horiz-adv-x="1460" d="M511 1532H945L1479 0H1075L991 284H460L380 0H-19L511 1532ZM912 550L771 1027L721 1224L670 1027L535 550H912Z" />
<glyph unicode="B" glyph-name="B" horiz-adv-x="1462" d="M1181 56T1060 21T761 -14T365 0H173V1523L358 1522L721 1537Q1306 1537 1306 1145Q1306 951 1178 852Q1135 820 1078 804Q1213 788 1298 697Q1387 603 1387 480T1357 269T1254 119ZM943 1204T876 1242T691
1281T551 1268V903Q583 895 671 895T804 906T881 942Q943 994 943 1099ZM997 458Q997 660 728 660Q587 660 551 652V258Q589 235 728 235T932 287T997 458Z" />
<glyph unicode="C" glyph-name="C" horiz-adv-x="1306" d="M1212 1148Q1084 1236 895 1236Q714 1236 600 1118Q480 995 480 781Q480 550 589 417Q703 278 911 278Q1051 278 1186 343Q1222 360 1241 376L1242 64Q1102 8 1019 -4T868 -16Q496 -16 288 194Q85 399
85 758Q85 1131 312 1341Q524 1538 864 1538Q1039 1538 1190 1494Q1227 1484 1262 1477L1212 1148Z" />
<glyph unicode="D" glyph-name="D" horiz-adv-x="1561" d="M713 -16L307 0H173V1522H313L730 1538Q1294 1538 1432 1112Q1477 974 1477 789T1425 452Q1321 147 1032 38Q892 -16 713 -16ZM724 1263Q640 1263 556 1250V280Q610 265 710 265T875 295T986 386Q1081
514 1081 765Q1081 1035 990 1152Q905 1263 724 1263Z" />
<glyph unicode="E" glyph-name="E" horiz-adv-x="1270" d="M173 1522H1135V1238H550V916H1001V639H550V291H1195V0H173V1522Z" />
<glyph unicode="F" glyph-name="F" horiz-adv-x="1163" d="M173 1522H1123V1238H553V875H986V592H553V0H173V1522Z" />
<glyph unicode="G" glyph-name="G" horiz-adv-x="1508" d="M608 345T673 307T851 268T1044 300V566L827 582V854H1392V86Q1350 85 1293 66T1196 33T1102 9Q983 -16 822 -16T522 36T287 186Q85 392 85 753Q85 1280 474 1460Q643 1538 873 1538Q1057 1538 1224 1496Q1267
1486 1310 1478L1300 1160Q1140 1240 888 1240Q691 1240 582 1118Q474 996 474 780Q474 551 564 414Q608 345 673 307Z" />
<glyph unicode="H" glyph-name="H" horiz-adv-x="1631" d="M173 1522H556V905H1078V1522H1458V0H1078V631H556V0H173V1522Z" />
<glyph unicode="I" glyph-name="I" horiz-adv-x="754" d="M185 1522H569V0H185V1522Z" />
<glyph unicode="J" glyph-name="J" horiz-adv-x="800" d="M621 613L623 377Q623 195 606 108T553 -40T471 -149T368 -232Q211 -332 62 -332Q55 -332 48 -332L-35 -141Q55 -104 97 -66Q200 31 224 196Q237 293 237 608V1522H621V613Z" />
<glyph unicode="K" glyph-name="K" horiz-adv-x="1468" d="M173 1522H552V881L1027 1522H1440L941 866Q1030 740 1189 471T1401 111L1466 0H1039Q1026 20 1013 46T951 164Q839 374 690 597L552 432V0H173V1522Z" />
<glyph unicode="L" glyph-name="L" horiz-adv-x="1122" d="M173 1522H560V287H1062V0H173V1522Z" />
<glyph unicode="M" glyph-name="M" horiz-adv-x="1982" d="M240 1522H753L938 741L1007 386L1062 741L1226 1522H1725L1919 0H1553L1483 809L1460 1247L1365 797L1161 -9H824L602 797L502 1247L476 809L416 0L64 -1L240 1522Z" />
<glyph unicode="N" glyph-name="N" horiz-adv-x="1631" d="M173 1522H529L1048 687L1154 465L1113 852V1522H1458V0H1075L582 815L471 1045L518 658V0H173V1522Z" />
<glyph unicode="O" glyph-name="O" horiz-adv-x="1603" d="M496 35Q93 199 93 769Q93 960 150 1109T304 1352Q499 1538 849 1538Q1155 1538 1332 1336Q1509 1134 1509 785Q1509 380 1305 174Q1117 -16 778 -16Q621 -16 496 35ZM803 263Q1117 263 1117 774Q1117
1115 951 1218Q895 1252 823 1252T689 1228T583 1145Q485 1019 485 758Q485 410 663 300Q723 263 803 263Z" />
<glyph unicode="P" glyph-name="P" horiz-adv-x="1392" d="M980 476Q863 439 733 439T555 441V0H173V1522H321Q426 1522 530 1530T761 1538T995 1510T1180 1418Q1336 1287 1336 1001Q1336 589 980 476ZM820 1255Q774 1272 701 1272T555 1261V720Q640 712 702 712T810
727T890 778Q963 852 963 1003Q963 1201 820 1255Z" />
<glyph unicode="Q" glyph-name="Q" horiz-adv-x="1603" d="M1233 -79Q1287 -82 1372 -82T1544 -53V-309Q1452 -355 1315 -355T1079 -337T904 -278Q752 -197 695 -12Q406 14 246 224Q93 425 93 745Q93 1149 304 1352Q499 1538 849 1538Q1155 1538 1332 1336Q1509
1134 1509 785Q1509 285 1204 94Q1111 35 997 8Q1056 -69 1233 -79ZM803 263Q1117 263 1117 774Q1117 1115 951 1218Q895 1252 823 1252T689 1228T583 1145Q485 1019 485 758Q485 410 663 300Q723 263 803 263Z" />
<glyph unicode="R" glyph-name="R" horiz-adv-x="1470" d="M717 542Q653 538 553 538V0H173V1522H304Q344 1522 390 1524T492 1530Q639 1538 734 1538T897 1529T1029 1498T1146 1440T1242 1350Q1329 1233 1329 1055Q1329 727 1087 617Q1157 562 1235 394Q1267
325 1298 251T1369 110L1432 0H1012Q994 24 961 100T903 251T853 390T795 496T717 542ZM715 1269Q616 1269 553 1251V802Q606 795 663 795H740Q850 795 910 869Q963 935 963 1048Q963 1269 715 1269Z" />
<glyph unicode="S" glyph-name="S" horiz-adv-x="1229" d="M177 374Q285 312 459 286Q519 277 604 277Q785 277 785 406Q785 473 716 524Q675 553 539 618T338 727T224 828Q119 952 119 1121Q119 1323 270 1434Q412 1538 662 1538Q939 1538 1091 1451L1032 1165Q953
1227 795 1254Q745 1262 666 1262T536 1227T485 1146T500 1072T548 1018Q604 973 725 919T923 818T1055 717Q1166 604 1166 435Q1166 227 1022 107Q876 -16 611 -16Q382 -16 200 48Q152 64 130 78L177 374Z" />
<glyph unicode="T" glyph-name="T" horiz-adv-x="1253" d="M435 1228H28V1522H1225V1228H819V0H435V1228Z" />
<glyph unicode="U" glyph-name="U" horiz-adv-x="1545" d="M1408 632Q1408 -16 780 -16Q280 -16 172 370Q138 491 138 638L142 1522H520L517 685Q517 678 517 620T533 486T582 364Q639 284 775 284Q908 284 968 368Q1032 458 1032 685V1522H1408V632Z" />
<glyph unicode="V" glyph-name="V" horiz-adv-x="1410" d="M-12 1522H394L637 753L713 457L789 753L1016 1522H1422L873 -4H541L-12 1522Z" />
<glyph unicode="W" glyph-name="W" horiz-adv-x="1998" d="M-13 1522H369L528 672L575 309L630 672L831 1522H1178L1385 672L1441 329L1486 672L1644 1522H2011L1610 -10H1235L1040 785L991 1103L948 784L755 -10H387L-13 1522Z" />
<glyph unicode="X" glyph-name="X" horiz-adv-x="1395" d="M463 779L26 1522L445 1523L654 1140L714 1024L970 1522H1370L928 756L1384 0H962L749 392L685 523L622 392L416 0H14L463 779Z" />
<glyph unicode="Y" glyph-name="Y" horiz-adv-x="1289" d="M448 536L-53 1522H364L590 1030L654 860L708 1030L937 1522H1342L837 534V0H448V536Z" />
<glyph unicode="Z" glyph-name="Z" horiz-adv-x="1302" d="M36 84L661 1146L728 1244H108V1522H1203L1244 1441L631 389L557 284H1206V0H78L36 84Z" />
<glyph unicode="[" glyph-name="bracketleft" horiz-adv-x="814" d="M700 -187Q476 -215 374 -215T234 -199T172 -148Q128 -84 128 68V1486Q128 1635 172 1692Q216 1749 330 1749Q460 1749 560 1739L700 1725V1543H449V-12L700 -13V-187Z" />
<glyph unicode="\" glyph-name="backslash" horiz-adv-x="862" d="M291 1599H0L555 -363H846L291 1599Z" />
<glyph unicode="]" glyph-name="bracketright" horiz-adv-x="814" d="M107 -187Q331 -215 433 -215T573 -199T635 -148Q679 -84 679 68V1486Q679 1635 635 1692Q591 1749 477 1749Q347 1749 247 1739L107 1725V1543H358V-12L107 -13V-187Z" />
<glyph unicode="^" glyph-name="asciicircum" horiz-adv-x="1390" d="M575 1531H816L1252 490H927L694 1075L468 490H138L575 1531Z" />
<glyph unicode="_" glyph-name="underscore" horiz-adv-x="1700" d="M1736 -233V-408H-36V-233H1736Z" />
<glyph unicode="`" glyph-name="grave" horiz-adv-x="700" d="M483 1222Q406 1259 266 1388Q111 1529 65 1636L309 1825Q415 1647 566 1470Q613 1415 652 1380L483 1222Z" />
<glyph unicode="a" glyph-name="a" horiz-adv-x="1263" d="M775 96Q647 -16 457 -16Q289 -16 186 86Q85 188 85 348Q85 449 140 522T268 627T401 673T522 694Q625 706 756 706V775Q756 850 716 874Q674 898 548 898Q446 898 289 850Q242 835 204 817L129 1035Q252
1110 478 1148Q554 1160 659 1160T859 1137T1012 1062Q1124 965 1124 729V-16H892Q828 -16 809 -4Q775 19 775 88V96ZM467 362Q467 326 479 297T512 249Q551 212 612 212Q677 212 733 244Q748 252 756 260V528Q631 528 556 493Q467 460 467 362Z" />
<glyph unicode="b" glyph-name="b" horiz-adv-x="1381" d="M522 1041Q649 1156 844 1156Q1038 1156 1161 1022Q1296 876 1296 612Q1296 323 1131 150Q967 -21 692 -21Q475 -21 256 32Q174 51 159 64V1661H530V1250L522 1041ZM530 262Q560 228 686 228Q784 228
845 322Q909 420 909 590Q909 824 794 868Q759 881 724 881T660 876T608 861Q559 843 530 821V262Z" />
<glyph unicode="c" glyph-name="c" horiz-adv-x="1048" d="M950 309L995 100Q916 21 746 -7Q692 -16 637 -16Q365 -16 220 148Q85 299 85 559Q85 824 225 982Q378 1156 664 1156Q829 1156 936 1119Q965 1109 979 1099L937 821Q855 868 714 868Q549 868 484 720Q460
663 460 578T479 434T533 338Q599 268 730 268T950 309Z" />
<glyph unicode="d" glyph-name="d" horiz-adv-x="1381" d="M882 118Q748 -16 537 -16Q343 -16 220 119Q85 267 85 531Q85 819 244 988Q403 1156 666 1156Q770 1156 854 1128L851 1250V1662H1221V-16H937Q882 -16 882 38V118ZM851 868Q808 900 727 900T606 878T536
812Q473 720 473 549Q473 323 584 276Q620 261 664 261Q773 261 851 313V868Z" />
<glyph unicode="e" glyph-name="e" horiz-adv-x="1221" d="M455 483Q477 246 740 246Q871 246 990 282Q1025 293 1046 304L1103 107Q1004 26 798 -6Q729 -16 622 -16T409 24T231 141Q85 295 85 575Q85 830 235 990Q390 1156 657 1156Q986 1156 1094 920Q1135 830
1135 701T1124 483H455ZM793 668Q794 690 794 710Q794 804 764 860T649 917Q525 917 481 786Q465 739 458 668H793Z" />
<glyph unicode="f" glyph-name="f" horiz-adv-x="881" d="M884 1407Q837 1432 755 1432T633 1388T594 1243V1140H841V897H594V0H222V897H79V1113L222 1140V1257Q222 1482 364 1594Q481 1684 664 1684Q792 1684 884 1661V1407Z" />
<glyph unicode="g" glyph-name="g" horiz-adv-x="1361" d="M516 429Q480 397 480 352T512 291T625 274H851Q1098 274 1210 169Q1302 82 1302 -72Q1302 -286 1100 -408Q920 -516 666 -516Q214 -516 102 -312Q67 -249 67 -173T110 -32T238 70Q146 121 146 236Q146
343 244 422Q279 450 332 473Q104 565 104 785Q104 1061 406 1132Q504 1155 630 1155Q879 1155 1016 1071Q1099 1140 1210 1140H1338V885H1154Q1165 839 1165 772T1134 637T1037 522Q902 423 630 423Q570 423 516 429ZM750 644Q808 692 808 787Q808 964 637 964Q507
964 472 873Q459 839 459 773T502 662T631 617T750 644ZM474 11Q439 -39 439 -104Q439 -248 556 -297Q601 -316 665 -316T777 -307T860 -278Q934 -234 934 -147Q934 -69 903 -42Q844 11 717 11H474Z" />
<glyph unicode="h" glyph-name="h" horiz-adv-x="1380" d="M159 1662H530V1234L512 1021Q615 1109 762 1144Q819 1158 882 1158Q1058 1158 1144 1051T1230 715V0H859V652Q859 833 777 859Q752 867 734 867T706 867T672 863T624 850Q568 831 530 793V0H159V1662Z" />
<glyph unicode="i" glyph-name="i" horiz-adv-x="690" d="M159 1140H531V0H159V1140ZM348 1279Q258 1279 201 1332Q142 1387 142 1471Q142 1555 208 1616T365 1677Q455 1677 512 1624Q569 1571 569 1486Q569 1402 504 1340Q439 1279 348 1279Z" />
<glyph unicode="j" glyph-name="j" horiz-adv-x="677" d="M275 -478Q194 -507 84 -507T-104 -481V-247Q-71 -269 -9 -269T81 -256T126 -212Q159 -150 159 2V1140H531V82Q531 -384 275 -478ZM342 1279Q252 1279 195 1332Q136 1387 136 1471Q136 1555 202 1616T359
1677Q449 1677 506 1624Q563 1571 563 1486Q563 1402 498 1340Q433 1279 342 1279Z" />
<glyph unicode="k" glyph-name="k" horiz-adv-x="1287" d="M159 1661H530V1032L518 720L858 1140H1279L874 699L1306 0H895L635 440L527 323L530 189V0H159V1661Z" />
<glyph unicode="l" glyph-name="l" horiz-adv-x="697" d="M163 1662H534V0H163V1662Z" />
<glyph unicode="m" glyph-name="m" horiz-adv-x="2065" d="M1224 794Q1226 760 1226 721V0H858V652Q858 776 835 811T785 857T739 867T708 867T672 862T624 848Q571 829 533 793V0H163V1140H501L510 1018Q617 1107 772 1144Q831 1158 894 1158Q1091 1158 1167
1026Q1334 1158 1548 1158Q1730 1158 1818 1064Q1915 959 1915 719V0H1544V653Q1544 777 1521 812T1471 857T1424 867T1400 867Q1308 867 1224 794Z" />
<glyph unicode="n" glyph-name="n" horiz-adv-x="1380" d="M163 1140H501L510 1018Q617 1108 778 1145Q835 1158 904 1158T1037 1137T1144 1063Q1230 960 1230 718V0H860V652Q860 776 828 823Q798 867 722 867Q719 867 697 867T623 848T533 793V0H163V1140Z" />
<glyph unicode="o" glyph-name="o" horiz-adv-x="1330" d="M138 290Q110 357 98 431T86 615T131 832T255 1012Q413 1156 676 1156Q1066 1156 1193 850Q1244 727 1244 560Q1244 281 1076 128Q918 -16 655 -16Q265 -16 138 290ZM471 582Q471 239 663 239Q770 239
816 320Q859 395 859 564Q859 899 669 899Q512 899 481 719Q471 660 471 582Z" />
<glyph unicode="p" glyph-name="p" horiz-adv-x="1384" d="M1061 72T954 28T728 -16T526 12L530 -139V-506H159V1140H509V1029Q643 1156 844 1156Q1040 1156 1163 1022Q1299 874 1299 612Q1299 324 1138 154Q1061 72 954 28ZM530 275Q573 234 687 234Q787 234
846 325Q909 420 909 590Q909 819 798 866Q762 881 727 881T664 876T612 862Q559 844 530 821V275Z" />
<glyph unicode="q" glyph-name="q" horiz-adv-x="1382" d="M858 95Q735 -16 539 -16Q344 -16 221 119Q85 268 85 531Q85 818 246 988Q404 1156 668 1156Q820 1156 955 1104L1223 1140V-506H853V-139L858 95ZM853 868Q810 900 729 900T608 878T538 812Q475 720
475 549Q475 323 586 276Q622 261 657 261T719 265T771 277Q822 291 853 314V868Z" />
<glyph unicode="r" glyph-name="r" horiz-adv-x="966" d="M783 806Q620 806 524 698V0H153V1140H478L494 957Q552 1096 712 1143Q764 1158 825 1158T905 1144V779Q858 806 783 806Z" />
<glyph unicode="s" glyph-name="s" horiz-adv-x="1084" d="M143 332Q207 278 368 243Q423 231 497 231Q645 231 645 314Q645 375 502 428Q456 445 388 467T263 525T172 604Q104 689 104 824Q104 983 244 1072Q373 1156 578 1156Q818 1156 945 1086L912 826Q846
879 720 904Q678 913 610 913Q464 913 462 835Q462 791 512 760Q558 732 666 698T834 632T932 558Q1011 476 1011 346Q1011 170 880 76Q752 -17 530 -17Q332 -17 174 44Q131 61 107 76L143 332Z" />
<glyph unicode="t" glyph-name="t" horiz-adv-x="926" d="M189 897H57V1093Q186 1131 214 1157T252 1205T272 1249T292 1298T313 1350T334 1400H559V1140H855V897H559V491Q559 339 587 296Q602 273 627 267T681 261T733 264T780 274Q834 289 858 306L902 100Q827
29 644 -5Q584 -16 507 -16T367 7T264 76Q189 164 189 355V897Z" />
<glyph unicode="u" glyph-name="u" horiz-adv-x="1362" d="M145 1140H516V461Q516 336 553 291Q587 250 667 250Q738 250 802 285Q819 294 829 303V1140H1200V-16H932Q897 -16 880 -6T863 42V90Q770 19 616 -8Q571 -16 531 -16Q300 -16 213 122Q145 228 145 470V1140Z" />
<glyph unicode="v" glyph-name="v" horiz-adv-x="1203" d="M-5 1140H392L539 643L611 352L678 643L820 1140H1208L781 -16H427L-5 1140Z" />
<glyph unicode="w" glyph-name="w" horiz-adv-x="1783" d="M-2 1140H359L476 679L537 380L606 679L741 1140H1074L1208 679L1273 380L1333 680L1441 1140H1785L1426 -16H1101L935 545L892 759L848 545L688 -16H353L-2 1140Z" />
<glyph unicode="x" glyph-name="x" horiz-adv-x="1238" d="M407 574L8 1140H427L585 893L630 817L670 893L820 1140H1233L829 582L1241 0H819L614 328L589 279L431 0H6L407 574Z" />
<glyph unicode="y" glyph-name="y" horiz-adv-x="1208" d="M121 -203Q145 -212 188 -218T257 -224T325 -219T407 -190Q495 -140 531 0H389L-4 1140H387L551 540L626 227L822 1140H1210L851 -27Q740 -381 487 -475Q411 -507 290 -507Q237 -507 181 -499T121 -487V-203Z" />
<glyph unicode="z" glyph-name="z" horiz-adv-x="1110" d="M52 83L570 888H120L122 1140H1025L1060 1045L613 352L547 260H1039V0H94L52 83Z" />
<glyph unicode="{" glyph-name="braceleft" horiz-adv-x="998" d="M888 -186Q764 -221 562 -221Q446 -221 387 -155T328 60V529Q328 585 236 630Q162 666 69 676V878Q228 895 302 961Q328 985 328 1017V1486Q328 1698 460 1746Q504 1761 600 1761T888 1737V1550H641V1009Q641
916 564 862Q494 811 388 776Q546 721 593 668T641 547V-12H888V-186Z" />
<glyph unicode="|" glyph-name="bar" horiz-adv-x="862" d="M287 1780H575V-186H287V1780Z" />
<glyph unicode="}" glyph-name="braceright" horiz-adv-x="998" d="M104 -186Q228 -221 430 -221Q546 -221 605 -155T664 60V529Q664 585 756 630Q830 666 923 676V878Q764 895 690 961Q664 985 664 1017V1486Q664 1698 532 1746Q488 1761 392 1761T104 1737V1550H351V1009Q351
916 428 862Q498 811 604 776Q446 721 399 668T351 547V-12H104V-186Z" />
<glyph unicode="~" glyph-name="asciitilde" horiz-adv-x="1446" d="M932 913Q1031 913 1129 1017L1256 855Q1237 782 1146 713Q1039 632 916 632Q800 632 704 711Q641 762 605 776T531 790T464 780T412 754Q385 737 334 686L190 834Q210 904 302 979Q413 1069
535 1069Q655 1069 758 991Q824 942 860 928T932 913Z" />
<glyph unicode="&#xa0;" glyph-name="nbspace" horiz-adv-x="678" />
<glyph unicode="&#xa1;" glyph-name="exclamdown" horiz-adv-x="669" d="M528 -436H121L161 754H475L528 -436ZM541 1155Q541 1063 477 996Q410 928 317 928Q224 928 167 988Q113 1046 113 1138Q113 1230 177 1298Q241 1366 335 1366Q426 1366 483 1306Q541 1244
541 1155Z" />
<glyph unicode="&#xa2;" glyph-name="cent" horiz-adv-x="1200" d="M1001 309L1046 100Q950 4 741 -13L737 -216H551L556 -5Q349 32 239 188Q136 335 136 559Q136 919 384 1072Q468 1125 583 1145L589 1377H774L769 1154Q968 1146 1030 1099L988 821Q906 868 765
868Q600 868 536 720Q511 663 511 578T530 434T584 338Q650 268 781 268T1001 309Z" />
<glyph unicode="&#xa3;" glyph-name="sterling" horiz-adv-x="1616" d="M1374 630Q1527 534 1527 354Q1527 92 1264 12Q1173 -16 1055 -16T851 0T696 35T575 70T477 87Q418 28 324 1Q293 -8 265 -8T208 -2T156 20Q103 56 103 112T127 202T189 260Q265 307 369
311Q404 343 404 550V689H229V891H404V1027Q404 1256 550 1394Q702 1538 974 1538Q1198 1538 1362 1435L1216 1164Q1156 1215 1066 1237Q1033 1245 991 1245T909 1237T840 1199Q778 1137 778 964V891H1070V689H778V573Q778 357 679 274Q714 266 747 257T814 240Q893
222 983 222T1126 261T1179 367Q1179 436 1135 486Q1123 499 1112 506L1374 630Z" />
<glyph unicode="&#xa4;" glyph-name="currency" horiz-adv-x="1565" d="M1000 367Q894 312 778 312T563 367L363 162L213 319L403 513Q325 629 325 771T402 1031L215 1225L363 1385L562 1178Q665 1235 781 1235Q898 1235 1004 1177L1221 1396L1371 1235L1164 1026Q1239
910 1239 770T1161 514L1351 318L1203 160L1000 367ZM579 773Q579 688 638 628Q697 566 783 566Q869 566 927 628Q984 688 984 773Q984 859 927 918Q868 979 783 979Q697 979 638 918Q579 858 579 773Z" />
<glyph unicode="&#xa5;" glyph-name="yen" horiz-adv-x="1579" d="M264 460H618V642H264V851H554L130 1522H527L727 1157L801 992L875 1156L1079 1522H1471L1047 851H1305V642H961V460H1305V251H961V0H618V251H264V460Z" />
<glyph unicode="&#xa6;" glyph-name="brokenbar" horiz-adv-x="862" d="M287 1780H575V973H287V1780ZM287 605H575V-186H287V605Z" />
<glyph unicode="&#xa7;" glyph-name="section" horiz-adv-x="1404" d="M1091 410Q1178 316 1178 180Q1178 -5 1024 -105Q888 -193 687 -193Q483 -193 330 -132Q289 -116 265 -100L315 167Q396 103 538 78Q592 68 642 68T726 74T784 94Q836 122 836 178Q836 209
808 232T733 277T627 320T506 367T385 426T280 506Q176 607 176 752Q176 926 364 1063Q240 1171 240 1326Q240 1496 390 1590Q521 1673 719 1673Q968 1673 1097 1600L1047 1333Q936 1416 759 1416T582 1312Q582 1257 684 1204Q730 1181 788 1157T908 1104T1028
1039T1133 956Q1235 850 1235 697T1091 410ZM528 958Q477 880 477 834T495 757T546 700T622 655T714 615T814 575T916 531Q943 594 943 645T906 740T809 821T675 889T528 958Z" />
<glyph unicode="&#xa8;" glyph-name="dieresis" horiz-adv-x="1034" d="M770 1281Q727 1281 692 1295T632 1334Q580 1388 580 1471Q580 1556 640 1614Q702 1675 786 1675Q871 1675 922 1622Q972 1571 972 1486Q972 1402 914 1342Q854 1281 770 1281ZM252 1281Q209
1281 174 1295T114 1334Q62 1388 62 1471Q62 1555 123 1614Q185 1675 268 1675Q400 1675 442 1563Q455 1528 455 1486Q455 1402 396 1342Q337 1281 252 1281Z" />
<glyph unicode="&#xa9;" glyph-name="copyright" horiz-adv-x="2091" d="M175 962Q175 1084 205 1196T292 1406T428 1582T604 1719Q805 1838 1045 1838Q1284 1838 1487 1719Q1790 1541 1885 1196Q1916 1084 1916 963T1885 729T1798 519T1663 341T1487 204Q1283
84 1045 84Q807 84 604 204Q408 320 292 518Q175 721 175 962ZM317 962Q317 859 342 764T413 585T524 433T670 316Q841 213 1045 213Q1249 213 1420 316Q1582 413 1677 584Q1773 759 1773 963Q1773 1274 1566 1492Q1435 1631 1244 1685Q1150 1712 1045 1712Q841
1712 670 1610Q508 1513 413 1341Q317 1168 317 962ZM1324 747L1368 574Q1288 505 1148 480Q1100 471 1024 471T864 510T722 616Q599 754 599 954Q599 957 599 961Q599 1178 724 1311Q858 1455 1094 1455Q1207 1455 1307 1418Q1333 1409 1348 1400L1311 1195Q1231
1250 1098 1250Q989 1250 920 1179Q850 1107 850 992Q850 988 850 947T868 849T920 755Q984 684 1110 684T1324 747Z" />
<glyph unicode="&#xaa;" glyph-name="ordfeminine" horiz-adv-x="1079" d="M498 674Q456 664 399 664T287 684T192 741Q112 817 112 946Q112 1090 232 1174Q318 1234 445 1253T665 1272V1309Q665 1374 629 1397Q594 1419 531 1419T421 1412T330 1394Q229 1367
196 1344L139 1519Q172 1549 265 1577Q438 1629 547 1629T734 1613T863 1558Q965 1484 965 1311V670H797Q726 670 710 677Q677 691 677 746V760Q630 705 498 674ZM665 905V1120Q535 1120 472 1086Q406 1046 406 968Q406 924 431 903Q474 867 542 867T665 905Z"
/>
<glyph unicode="&#xab;" glyph-name="guillemotleft" horiz-adv-x="2028" d="M221 757L885 1174L971 921L575 615L971 309L885 56L221 473V757ZM1038 757L1702 1174L1788 921L1392 615L1788 309L1702 56L1038 473V757Z" />
<glyph unicode="&#xac;" glyph-name="logicalnot" horiz-adv-x="1478" d="M244 852H1234V299H962V604H244V852Z" />
<glyph unicode="&#xae;" glyph-name="registered" horiz-adv-x="2091" d="M171 962Q171 1083 202 1195T289 1405T425 1582T602 1719Q806 1838 1045 1838Q1285 1838 1488 1719Q1684 1604 1801 1405Q1920 1202 1920 962Q1920 721 1801 518Q1685 319 1488 203Q1284
83 1045 83Q808 83 602 203Q405 319 290 518Q171 722 171 962ZM313 962Q313 650 523 432Q734 213 1045 213Q1356 213 1567 432Q1700 571 1752 762Q1777 858 1777 961T1752 1160T1680 1339T1567 1491T1420 1608Q1250 1710 1045 1710Q736 1710 523 1491Q390 1354
338 1160Q313 1065 313 962ZM1016 835L974 834Q950 834 925 834V486H700V1449H797L1061 1455Q1239 1455 1336 1376Q1428 1303 1428 1179Q1428 916 1234 860Q1314 814 1386 661Q1435 559 1492 487H1237Q1221 504 1212 525T1188 574T1158 642T1122 719Q1076 809 1016
835ZM1202 1150Q1202 1290 1041 1290Q958 1290 925 1279V998Q956 991 1045 991Q1202 991 1202 1150Z" />
<glyph unicode="&#xaf;" glyph-name="overscore" horiz-adv-x="725" d="M53 1642H672V1404H53V1642Z" />
<glyph unicode="&#xb0;" glyph-name="degree" horiz-adv-x="977" d="M490 908Q408 908 340 936T220 1015Q112 1122 112 1278Q112 1436 219 1542Q326 1647 488 1647Q651 1647 758 1540T865 1278Q865 1118 759 1014Q652 908 490 908ZM396 1132T425 1120T488 1107T552
1119T604 1154Q653 1202 653 1278Q653 1352 604 1402Q557 1448 488 1448Q378 1448 337 1348Q324 1317 324 1279T337 1209T373 1155Z" />
<glyph unicode="&#xb1;" glyph-name="plusminus" horiz-adv-x="1401" d="M233 233H1154V0H233V233ZM560 440L566 645L406 640H188V911H406L566 906L560 1109V1309H839V1109L833 906L990 911H1212V640H990L833 645L839 440V247H560V440Z" />
<glyph unicode="&#xb2;" glyph-name="twosuperior" horiz-adv-x="1252" d="M1029 1417Q1029 1146 627 918L1081 942V680H206L166 850Q329 931 480 1059Q677 1226 677 1356Q677 1497 527 1497T264 1351L133 1523Q230 1660 442 1715Q519 1735 622 1735T805 1706T934
1631Q1029 1543 1029 1417Z" />
<glyph unicode="&#xb3;" glyph-name="threesuperior" horiz-adv-x="1262" d="M561 1507Q471 1507 365 1462Q329 1446 298 1425L229 1614Q315 1687 507 1718Q565 1728 645 1728T803 1707T930 1650Q1027 1581 1027 1470Q1027 1389 987 1324T846 1207Q1018 1180 1069
1048Q1085 1006 1085 944T1055 816T964 701Q832 596 583 596Q438 596 324 630Q292 640 266 648L265 858Q417 820 537 820T711 860T765 958Q765 1049 620 1076L442 1048L419 1256Q526 1266 588 1284Q725 1324 725 1414T561 1507Z" />
<glyph unicode="&#xb4;" glyph-name="acute" horiz-adv-x="700" d="M37 1396Q222 1581 376 1825L619 1636Q561 1499 342 1326Q264 1265 210 1238L37 1396Z" />
<glyph unicode="&#xb5;" glyph-name="mu" horiz-adv-x="1407" d="M664 -16Q523 -16 456 44L485 -371H150V1140H520V490Q520 367 560 312T692 256T842 310V1140H1212V315Q1212 239 1261 239Q1302 239 1346 266L1377 87Q1360 59 1308 34Q1200 -18 1096 -18Q928 -18
913 120Q842 -16 664 -16Z" />
<glyph unicode="&#xb6;" glyph-name="paragraph" horiz-adv-x="1439" d="M658 1711L1250 1691V0H966L965 1496H765V0H482V777Q174 777 80 1034Q48 1123 48 1240T84 1443T194 1588Q348 1711 658 1711Z" />
<glyph unicode="&#xb7;" glyph-name="middot" horiz-adv-x="669" d="M120 779Q120 869 185 938Q250 1006 344 1006Q437 1006 494 946Q548 888 548 796Q548 703 485 636Q420 568 327 568Q235 568 178 628Q120 690 120 779Z" />
<glyph unicode="&#xb8;" glyph-name="cedilla" horiz-adv-x="529" d="M206 30L367 34L419 30Q485 -28 485 -216Q483 -339 406 -404Q336 -464 220 -464Q138 -464 89 -453T29 -436L52 -255Q75 -269 125 -269T208 -232Q243 -193 243 -111T206 30Z" />
<glyph unicode="&#xb9;" glyph-name="onesuperior" horiz-adv-x="1081" d="M393 1376Q315 1351 205 1333L165 1530Q330 1578 515 1689Q540 1704 552 1714L726 1689V680H393V1376Z" />
<glyph unicode="&#xba;" glyph-name="ordmasculine" horiz-adv-x="1077" d="M518 663Q417 663 330 698Q155 769 94 956Q65 1045 65 1153Q65 1395 225 1524Q358 1632 554 1632Q768 1632 888 1494Q999 1366 999 1153Q999 902 850 773Q724 663 518 663ZM547 1409Q370
1409 370 1160Q370 962 468 904Q498 885 519 885T543 885Q695 887 695 1137Q695 1264 657 1336T547 1409Z" />
<glyph unicode="&#xbb;" glyph-name="guillemotright" horiz-adv-x="2028" d="M984 757L320 1174L234 921L630 615L234 309L320 56L984 473V757ZM1800 757L1136 1174L1050 921L1446 615L1050 309L1136 56L1800 473V757Z" />
<glyph unicode="&#xbc;" glyph-name="onequarter" horiz-adv-x="2583" d="M1369 282L1842 1191H1911L2151 1088L1772 478L1729 403H1994L2022 675H2292V403H2444V188H2292V-77H1992L1993 188H1422L1369 282ZM1312 1530H1578L1036 0H773L1312 1530ZM431 1376Q353
1351 243 1333L203 1530Q368 1578 553 1689Q578 1704 590 1714L764 1689V680H431V1376Z" />
<glyph unicode="&#xbd;" glyph-name="onehalf" horiz-adv-x="2583" d="M2373 728Q2373 457 1971 229L2425 253V-9H1550L1510 161Q1673 242 1824 370Q2021 537 2021 667Q2021 808 1871 808T1608 662L1477 834Q1574 971 1786 1026Q1863 1046 1966 1046T2149 1017T2278
942Q2373 854 2373 728ZM432 1376Q354 1351 244 1333L204 1530Q369 1578 554 1689Q579 1704 591 1714L765 1689V680H432V1376ZM1312 1530H1578L1036 0H773L1312 1530Z" />
<glyph unicode="&#xbe;" glyph-name="threequarters" horiz-adv-x="2583" d="M1369 282L1842 1191H1911L2151 1088L1772 478L1729 403H1994L2022 675H2292V403H2444V188H2292V-77H1992L1993 188H1422L1369 282ZM696 1507Q606 1507 500 1462Q464 1446 433 1425L364
1614Q450 1687 642 1718Q700 1728 780 1728T938 1707T1065 1650Q1162 1581 1162 1470Q1162 1389 1122 1324T981 1207Q1153 1180 1204 1048Q1220 1006 1220 944T1190 816T1099 701Q967 596 718 596Q573 596 459 630Q427 640 401 648L400 858Q552 820 672 820T846
860T900 958Q900 1049 755 1076L577 1048L554 1256Q661 1266 723 1284Q860 1324 860 1414T696 1507ZM1312 1530H1578L1036 0H773L1312 1530Z" />
<glyph unicode="&#xbf;" glyph-name="questiondown" horiz-adv-x="1063" d="M715 -40Q841 -40 951 8V-260Q887 -301 721 -317Q670 -322 573 -322T366 -291Q45 -200 45 102Q45 297 179 419Q218 454 258 485T337 548T407 615Q481 700 481 816Q481 852 470 892T444
989H728Q802 866 802 737Q802 586 689 476Q657 445 624 416T558 359T499 298Q443 227 443 145Q443 -40 715 -40ZM773 1346Q773 1260 709 1195Q646 1130 556 1130Q420 1130 373 1250Q358 1287 358 1330Q358 1417 420 1481Q483 1546 573 1546Q661 1546 717 1489Q773
1431 773 1346Z" />
<glyph unicode="&#xc0;" glyph-name="Agrave" horiz-adv-x="1460" d="M511 1532H945L1479 0H1075L991 284H460L380 0H-19L511 1532ZM912 550L771 1027L721 1224L670 1027L535 550H912ZM706 1534Q642 1555 530 1660Q417 1767 357 1858L619 1988Q647 1909 848 1698Q869
1676 879 1666L706 1534Z" />
<glyph unicode="&#xc1;" glyph-name="Aacute" horiz-adv-x="1460" d="M511 1532H945L1479 0H1075L991 284H460L380 0H-19L511 1532ZM912 550L771 1027L721 1224L670 1027L535 550H912ZM586 1666Q748 1828 820 1940Q839 1968 846 1988L1108 1858Q1017 1724 870
1603Q804 1548 759 1534L586 1666Z" />
<glyph unicode="&#xc2;" glyph-name="Acircumflex" horiz-adv-x="1460" d="M511 1532H945L1479 0H1075L991 284H460L380 0H-19L511 1532ZM912 550L771 1027L721 1224L670 1027L535 550H912ZM330 1656L614 1964H848L1133 1658L955 1542L731 1735L508 1542L330 1656Z" />
<glyph unicode="&#xc3;" glyph-name="Atilde" horiz-adv-x="1460" d="M511 1532H945L1479 0H1075L991 284H460L380 0H-19L511 1532ZM912 550L771 1027L721 1224L670 1027L535 550H912ZM283 1731Q310 1826 387 1890Q476 1963 591 1963Q672 1963 713 1939T773 1898T811
1866Q853 1832 888 1832T947 1842T992 1868Q1032 1897 1060 1937L1187 1801Q1161 1705 1085 1640Q1000 1565 887 1565Q810 1565 769 1590T707 1632T667 1664Q620 1699 585 1699T527 1690T483 1666Q446 1639 416 1599L283 1731Z" />
<glyph unicode="&#xc4;" glyph-name="Adieresis" horiz-adv-x="1460" d="M511 1532H945L1479 0H1075L991 284H460L380 0H-19L511 1532ZM912 550L771 1027L721 1224L670 1027L535 550H912ZM997 1582Q912 1582 859 1633T806 1766Q806 1847 867 1906Q927 1964 1014
1964T1152 1914T1202 1781Q1202 1697 1143 1640Q1083 1582 997 1582ZM456 1582Q371 1582 318 1633T265 1766Q265 1847 326 1906Q386 1964 473 1964T610 1914T661 1781Q661 1697 602 1640Q542 1582 456 1582Z" />
<glyph unicode="&#xc5;" glyph-name="Aring" horiz-adv-x="1460" d="M1090 1688Q1088 1532 971 1456L1479 0H1075L991 284H460L380 0H-19L483 1451Q363 1527 363 1685Q363 1842 482 1917Q578 1977 732 1977Q993 1977 1066 1816Q1090 1761 1090 1688ZM568 1628T612
1596T709 1563T791 1567T842 1584Q886 1611 886 1685Q886 1780 790 1806Q760 1814 728 1814T667 1810T616 1792Q568 1762 568 1695ZM912 550L771 1027L721 1224L670 1027L535 550H912Z" />
<glyph unicode="&#xc6;" glyph-name="AE" horiz-adv-x="1970" d="M602 1522H1822V1238H1244V919H1688V642H1244V291H1883V0H866V318H428L291 0H-119L602 1522ZM866 579V1334L540 579H866Z" />
<glyph unicode="&#xc7;" glyph-name="Ccedilla" horiz-adv-x="1306" d="M537 -255Q560 -269 610 -269T694 -232Q728 -193 728 -107Q728 -50 710 -5Q411 39 246 241Q85 440 85 758Q85 1131 312 1341Q524 1538 864 1538Q1039 1538 1190 1494Q1227 1484 1262 1477L1212
1148Q1084 1236 895 1236Q714 1236 600 1118Q480 995 480 781Q480 550 589 417Q703 278 911 278Q1051 278 1186 343Q1222 360 1241 376L1242 64Q1084 -3 935 -14Q970 -92 970 -186T948 -327T891 -404Q821 -464 705 -464Q623 -464 574 -453T514 -436L537 -255Z"
/>
<glyph unicode="&#xc8;" glyph-name="Egrave" horiz-adv-x="1270" d="M676 1534Q612 1555 500 1660Q387 1767 327 1858L589 1988Q617 1909 818 1698Q839 1676 849 1666L676 1534ZM173 1522H1135V1238H550V916H1001V639H550V291H1195V0H173V1522Z" />
<glyph unicode="&#xc9;" glyph-name="Eacute" horiz-adv-x="1270" d="M555 1666Q717 1828 789 1940Q808 1968 815 1988L1077 1858Q986 1724 839 1603Q773 1548 728 1534L555 1666ZM173 1522H1135V1238H550V916H1001V639H550V291H1195V0H173V1522Z" />
<glyph unicode="&#xca;" glyph-name="Ecircumflex" horiz-adv-x="1270" d="M173 1522H1135V1238H550V916H1001V639H550V291H1195V0H173V1522ZM300 1656L584 1964H818L1103 1658L925 1542L701 1735L478 1542L300 1656Z" />
<glyph unicode="&#xcb;" glyph-name="Edieresis" horiz-adv-x="1270" d="M967 1582Q882 1582 829 1633T776 1766Q776 1847 837 1906Q897 1964 984 1964T1122 1914T1172 1781Q1172 1697 1113 1640Q1053 1582 967 1582ZM426 1582Q341 1582 288 1633T235 1766Q235
1847 296 1906Q356 1964 443 1964T580 1914T631 1781Q631 1697 572 1640Q512 1582 426 1582ZM173 1522H1135V1238H550V916H1001V639H550V291H1195V0H173V1522Z" />
<glyph unicode="&#xcc;" glyph-name="Igrave" horiz-adv-x="754" d="M185 1522H569V0H185V1522ZM609 1534Q545 1555 433 1660Q320 1767 260 1858L522 1988Q550 1909 751 1698Q772 1676 782 1666L609 1534Z" />
<glyph unicode="&#xcd;" glyph-name="Iacute" horiz-adv-x="754" d="M185 1522H569V0H185V1522ZM231 1666Q393 1828 465 1940Q484 1968 491 1988L753 1858Q662 1724 515 1603Q449 1548 404 1534L231 1666Z" />
<glyph unicode="&#xce;" glyph-name="Icircumflex" horiz-adv-x="754" d="M185 1522H569V0H185V1522ZM233 1656L517 1964H751L1036 1658L858 1542L634 1735L411 1542L233 1656Z" />
<glyph unicode="&#xcf;" glyph-name="Idieresis" horiz-adv-x="754" d="M185 1522H569V0H185V1522ZM644 1582Q559 1582 506 1633T453 1766Q453 1847 514 1906Q574 1964 661 1964T799 1914T849 1781Q849 1697 790 1640Q730 1582 644 1582ZM103 1582Q18 1582 -35
1633T-88 1766Q-88 1847 -27 1906Q33 1964 120 1964T257 1914T308 1781Q308 1697 249 1640Q189 1582 103 1582Z" />
<glyph unicode="&#xd0;" glyph-name="Eth" horiz-adv-x="1561" d="M713 -16L307 0H173V675H60V913H173V1522H313L730 1538Q1294 1538 1432 1112Q1477 974 1477 789T1425 452Q1321 147 1032 38Q892 -16 713 -16ZM724 1263Q640 1263 556 1250V913H850V675H556V280Q610
265 710 265T875 295T986 386Q1081 514 1081 765Q1081 1035 990 1152Q905 1263 724 1263Z" />
<glyph unicode="&#xd1;" glyph-name="Ntilde" horiz-adv-x="1632" d="M374 1731Q401 1826 478 1890Q567 1963 682 1963Q763 1963 804 1939T864 1898T902 1866Q944 1832 979 1832T1038 1842T1083 1868Q1123 1897 1151 1937L1278 1801Q1252 1705 1176 1640Q1091
1565 978 1565Q901 1565 860 1590T798 1632T758 1664Q711 1699 676 1699T618 1690T574 1666Q537 1639 507 1599L374 1731ZM173 1522H529L1048 687L1154 465L1113 852V1522H1458V0H1075L582 815L471 1045L518 658V0H173V1522Z" />
<glyph unicode="&#xd2;" glyph-name="Ograve" horiz-adv-x="1603" d="M804 1534Q740 1555 628 1660Q515 1767 455 1858L717 1988Q745 1909 946 1698Q967 1676 977 1666L804 1534ZM496 35Q93 199 93 769Q93 960 150 1109T304 1352Q499 1538 849 1538Q1155 1538
1332 1336Q1509 1134 1509 785Q1509 380 1305 174Q1117 -16 778 -16Q621 -16 496 35ZM803 263Q1117 263 1117 774Q1117 1115 951 1218Q895 1252 823 1252T689 1228T583 1145Q485 1019 485 758Q485 410 663 300Q723 263 803 263Z" />
<glyph unicode="&#xd3;" glyph-name="Oacute" horiz-adv-x="1603" d="M684 1666Q846 1828 918 1940Q937 1968 944 1988L1206 1858Q1115 1724 968 1603Q902 1548 857 1534L684 1666ZM496 35Q93 199 93 769Q93 960 150 1109T304 1352Q499 1538 849 1538Q1155 1538
1332 1336Q1509 1134 1509 785Q1509 380 1305 174Q1117 -16 778 -16Q621 -16 496 35ZM803 263Q1117 263 1117 774Q1117 1115 951 1218Q895 1252 823 1252T689 1228T583 1145Q485 1019 485 758Q485 410 663 300Q723 263 803 263Z" />
<glyph unicode="&#xd4;" glyph-name="Ocircumflex" horiz-adv-x="1603" d="M496 35Q93 199 93 769Q93 960 150 1109T304 1352Q499 1538 849 1538Q1155 1538 1332 1336Q1509 1134 1509 785Q1509 380 1305 174Q1117 -16 778 -16Q621 -16 496 35ZM803 263Q1117 263
1117 774Q1117 1115 951 1218Q895 1252 823 1252T689 1228T583 1145Q485 1019 485 758Q485 410 663 300Q723 263 803 263ZM428 1656L712 1964H946L1231 1658L1053 1542L829 1735L606 1542L428 1656Z" />
<glyph unicode="&#xd5;" glyph-name="Otilde" horiz-adv-x="1603" d="M381 1731Q408 1826 485 1890Q574 1963 689 1963Q770 1963 811 1939T871 1898T909 1866Q951 1832 986 1832T1045 1842T1090 1868Q1130 1897 1158 1937L1285 1801Q1259 1705 1183 1640Q1098
1565 985 1565Q908 1565 867 1590T805 1632T765 1664Q718 1699 683 1699T625 1690T581 1666Q544 1639 514 1599L381 1731ZM496 35Q93 199 93 769Q93 960 150 1109T304 1352Q499 1538 849 1538Q1155 1538 1332 1336Q1509 1134 1509 785Q1509 380 1305 174Q1117 -16
778 -16Q621 -16 496 35ZM803 263Q1117 263 1117 774Q1117 1115 951 1218Q895 1252 823 1252T689 1228T583 1145Q485 1019 485 758Q485 410 663 300Q723 263 803 263Z" />
<glyph unicode="&#xd6;" glyph-name="Odieresis" horiz-adv-x="1603" d="M1095 1582Q1010 1582 957 1633T904 1766Q904 1847 965 1906Q1025 1964 1112 1964T1250 1914T1300 1781Q1300 1697 1241 1640Q1181 1582 1095 1582ZM554 1582Q469 1582 416 1633T363 1766Q363
1847 424 1906Q484 1964 571 1964T708 1914T759 1781Q759 1697 700 1640Q640 1582 554 1582ZM496 35Q93 199 93 769Q93 960 150 1109T304 1352Q499 1538 849 1538Q1155 1538 1332 1336Q1509 1134 1509 785Q1509 380 1305 174Q1117 -16 778 -16Q621 -16 496 35ZM803
263Q1117 263 1117 774Q1117 1115 951 1218Q895 1252 823 1252T689 1228T583 1145Q485 1019 485 758Q485 410 663 300Q723 263 803 263Z" />
<glyph unicode="&#xd7;" glyph-name="multiply" horiz-adv-x="1402" d="M149 392L528 775L149 1172L335 1351L703 952L1069 1351L1255 1172L876 777L1254 392L1067 206L701 593L335 206L149 392Z" />
<glyph unicode="&#xd8;" glyph-name="Oslash" horiz-adv-x="1603" d="M304 1352Q499 1538 881 1538Q926 1538 999 1524L1102 1811L1237 1783L1129 1484Q1314 1404 1414 1217Q1509 1038 1509 783Q1509 380 1305 174Q1117 -16 786 -16Q686 -16 595 4L509 -234L375
-209L467 47Q188 174 114 524Q93 625 93 690Q93 960 150 1109T304 1352ZM897 1241Q859 1252 805 1252T689 1228T583 1145Q485 1019 485 758Q485 502 584 372L897 1241ZM803 263Q1117 263 1117 774Q1117 1039 1013 1163L696 283Q745 263 803 263Z" />
<glyph unicode="&#xd9;" glyph-name="Ugrave" horiz-adv-x="1545" d="M749 1534Q685 1555 573 1660Q460 1767 400 1858L662 1988Q690 1909 891 1698Q912 1676 922 1666L749 1534ZM1408 632Q1408 -16 780 -16Q280 -16 172 370Q138 491 138 638L142 1522H520L517
685Q517 678 517 620T533 486T582 364Q639 284 775 284Q908 284 968 368Q1032 458 1032 685V1522H1408V632Z" />
<glyph unicode="&#xda;" glyph-name="Uacute" horiz-adv-x="1545" d="M628 1666Q790 1828 862 1940Q881 1968 888 1988L1150 1858Q1059 1724 912 1603Q846 1548 801 1534L628 1666ZM1408 632Q1408 -16 780 -16Q280 -16 172 370Q138 491 138 638L142 1522H520L517
685Q517 678 517 620T533 486T582 364Q639 284 775 284Q908 284 968 368Q1032 458 1032 685V1522H1408V632Z" />
<glyph unicode="&#xdb;" glyph-name="Ucircumflex" horiz-adv-x="1545" d="M1408 632Q1408 -16 780 -16Q280 -16 172 370Q138 491 138 638L142 1522H520L517 685Q517 678 517 620T533 486T582 364Q639 284 775 284Q908 284 968 368Q1032 458 1032 685V1522H1408V632ZM372
1656L656 1964H890L1175 1658L997 1542L773 1735L550 1542L372 1656Z" />
<glyph unicode="&#xdc;" glyph-name="Udieresis" horiz-adv-x="1545" d="M1039 1582Q954 1582 901 1633T848 1766Q848 1847 909 1906Q969 1964 1056 1964T1194 1914T1244 1781Q1244 1697 1185 1640Q1125 1582 1039 1582ZM498 1582Q413 1582 360 1633T307 1766Q307
1847 368 1906Q428 1964 515 1964T652 1914T703 1781Q703 1697 644 1640Q584 1582 498 1582ZM1408 632Q1408 -16 780 -16Q280 -16 172 370Q138 491 138 638L142 1522H520L517 685Q517 678 517 620T533 486T582 364Q639 284 775 284Q908 284 968 368Q1032 458 1032
685V1522H1408V632Z" />
<glyph unicode="&#xdd;" glyph-name="Yacute" horiz-adv-x="1289" d="M448 536L-53 1522H364L590 1030L654 860L708 1030L937 1522H1342L837 534V0H448V536ZM518 1666Q680 1828 752 1940Q771 1968 778 1988L1040 1858Q949 1724 802 1603Q736 1548 691 1534L518 1666Z" />
<glyph unicode="&#xde;" glyph-name="Thorn" horiz-adv-x="1393" d="M782 235Q652 235 556 244V0H173V1522H556V1286Q611 1289 673 1294T830 1299T1023 1267T1192 1173Q1334 1045 1334 805Q1334 538 1190 388Q1043 235 782 235ZM693 1022Q622 1022 556 1006V512Q604
504 674 504T794 517T880 562Q958 632 958 791Q958 1022 693 1022Z" />
<glyph unicode="&#xdf;" glyph-name="germandbls" horiz-adv-x="1413" d="M176 897H41V1120L193 1150Q241 1369 421 1480Q583 1579 829 1579Q1043 1579 1168 1490Q1287 1406 1287 1271Q1287 1126 1170 1040Q1097 986 1076 959T1054 901T1077 842T1136 781T1213
711T1290 624Q1372 510 1372 382T1334 180T1234 62Q1122 -16 928 -16Q755 -16 689 20V267Q741 230 833 230Q934 230 972 298Q987 323 987 366T968 446T920 517T858 583T796 654Q729 742 729 841Q729 943 825 1035Q884 1092 902 1133T921 1225T885 1310T787 1346T684
1326T612 1260Q550 1164 550 953V0H176V897Z" />
<glyph unicode="&#xe0;" glyph-name="agrave" horiz-adv-x="1263" d="M775 96Q647 -16 457 -16Q289 -16 186 86Q85 188 85 348Q85 449 140 522T268 627T401 673T522 694Q625 706 756 706V775Q756 850 716 874Q674 898 548 898Q446 898 289 850Q242 835 204 817L129
1035Q252 1110 478 1148Q554 1160 659 1160T859 1137T1012 1062Q1124 965 1124 729V-16H892Q828 -16 809 -4Q775 19 775 88V96ZM467 362Q467 326 479 297T512 249Q551 212 612 212Q677 212 733 244Q748 252 756 260V528Q631 528 556 493Q467 460 467 362ZM601 1222Q524
1259 384 1388Q229 1529 183 1636L427 1825Q533 1647 684 1470Q731 1415 770 1380L601 1222Z" />
<glyph unicode="&#xe1;" glyph-name="aacute" horiz-adv-x="1263" d="M775 96Q647 -16 457 -16Q289 -16 186 86Q85 188 85 348Q85 449 140 522T268 627T401 673T522 694Q625 706 756 706V775Q756 850 716 874Q674 898 548 898Q446 898 289 850Q242 835 204 817L129
1035Q252 1110 478 1148Q554 1160 659 1160T859 1137T1012 1062Q1124 965 1124 729V-16H892Q828 -16 809 -4Q775 19 775 88V96ZM467 362Q467 326 479 297T512 249Q551 212 612 212Q677 212 733 244Q748 252 756 260V528Q631 528 556 493Q467 460 467 362ZM487 1396Q672
1581 826 1825L1069 1636Q1011 1499 792 1326Q714 1265 660 1238L487 1396Z" />
<glyph unicode="&#xe2;" glyph-name="acircumflex" horiz-adv-x="1263" d="M775 96Q647 -16 457 -16Q289 -16 186 86Q85 188 85 348Q85 449 140 522T268 627T401 673T522 694Q625 706 756 706V775Q756 850 716 874Q674 898 548 898Q446 898 289 850Q242 835 204
817L129 1035Q252 1110 478 1148Q554 1160 659 1160T859 1137T1012 1062Q1124 965 1124 729V-16H892Q828 -16 809 -4Q775 19 775 88V96ZM467 362Q467 326 479 297T512 249Q551 212 612 212Q677 212 733 244Q748 252 756 260V528Q631 528 556 493Q467 460 467 362ZM224
1363L529 1733H752L1056 1363L879 1249L640 1476L400 1249L224 1363Z" />
<glyph unicode="&#xe3;" glyph-name="atilde" horiz-adv-x="1263" d="M775 96Q647 -16 457 -16Q289 -16 186 86Q85 188 85 348Q85 449 140 522T268 627T401 673T522 694Q625 706 756 706V775Q756 850 716 874Q674 898 548 898Q446 898 289 850Q242 835 204 817L129
1035Q252 1110 478 1148Q554 1160 659 1160T859 1137T1012 1062Q1124 965 1124 729V-16H892Q828 -16 809 -4Q775 19 775 88V96ZM467 362Q467 326 479 297T512 249Q551 212 612 212Q677 212 733 244Q748 252 756 260V528Q631 528 556 493Q467 460 467 362ZM469 1434Q384
1434 307 1333L174 1466Q200 1561 279 1624Q368 1697 486 1697Q572 1697 614 1673T676 1632T714 1600Q756 1566 800 1566Q886 1566 967 1672L1094 1536Q1068 1441 991 1374Q904 1300 790 1300Q713 1300 670 1325T606 1367T564 1399Q517 1434 469 1434Z" />
<glyph unicode="&#xe4;" glyph-name="adieresis" horiz-adv-x="1263" d="M775 96Q647 -16 457 -16Q289 -16 186 86Q85 188 85 348Q85 449 140 522T268 627T401 673T522 694Q625 706 756 706V775Q756 850 716 874Q674 898 548 898Q446 898 289 850Q242 835 204
817L129 1035Q252 1110 478 1148Q554 1160 659 1160T859 1137T1012 1062Q1124 965 1124 729V-16H892Q828 -16 809 -4Q775 19 775 88V96ZM467 362Q467 326 479 297T512 249Q551 212 612 212Q677 212 733 244Q748 252 756 260V528Q631 528 556 493Q467 460 467 362ZM891
1281Q848 1281 813 1295T753 1334Q701 1388 701 1471Q701 1556 761 1614Q823 1675 907 1675Q992 1675 1043 1622Q1093 1571 1093 1486Q1093 1402 1035 1342Q975 1281 891 1281ZM373 1281Q330 1281 295 1295T235 1334Q183 1388 183 1471Q183 1555 244 1614Q306 1675
389 1675Q521 1675 563 1563Q576 1528 576 1486Q576 1402 517 1342Q458 1281 373 1281Z" />
<glyph unicode="&#xe5;" glyph-name="aring" horiz-adv-x="1263" d="M775 96Q647 -16 457 -16Q289 -16 186 86Q85 188 85 348Q85 449 140 522T268 627T401 673T522 694Q625 706 756 706V775Q756 850 716 874Q674 898 548 898Q446 898 289 850Q242 835 204 817L129
1035Q252 1110 478 1148Q554 1160 659 1160T859 1137T1012 1062Q1124 965 1124 729V-16H892Q828 -16 809 -4Q775 19 775 88V96ZM467 362Q467 326 479 297T512 249Q551 212 612 212Q677 212 733 244Q748 252 756 260V528Q631 528 556 493Q467 460 467 362ZM837 1331T771
1314T627 1296T481 1318Q347 1362 298 1480Q275 1536 275 1604Q275 1758 395 1840Q492 1906 644 1906Q903 1906 977 1734Q1002 1677 1002 1600T970 1465T888 1369ZM638 1743Q480 1743 480 1607Q480 1510 574 1476Q603 1465 638 1465T703 1471T754 1492Q798 1525
798 1600Q798 1700 701 1733Q672 1743 638 1743Z" />
<glyph unicode="&#xe6;" glyph-name="ae" horiz-adv-x="1877" d="M881 156Q724 -16 462 -16Q299 -16 198 76Q92 170 92 333Q92 487 216 584Q292 643 379 663T526 692Q629 706 751 706V767Q751 838 702 866T576 894T448 886T352 864Q259 839 214 813L135 1035Q259
1105 461 1144Q547 1160 647 1160Q889 1160 983 1062Q1121 1156 1317 1156Q1645 1156 1751 920Q1791 830 1791 699T1781 487H1117Q1135 250 1400 250Q1528 250 1648 286Q1682 297 1703 308L1760 107Q1661 26 1458 -6Q1390 -16 1314 -16Q1028 -16 881 156ZM1453
668Q1454 689 1454 709Q1454 803 1424 860T1309 917Q1185 917 1142 786Q1127 739 1120 668H1453ZM466 358Q466 322 478 294T511 248Q587 177 716 236Q769 261 797 299Q757 402 751 528Q616 526 526 477Q466 444 466 358Z" />
<glyph unicode="&#xe7;" glyph-name="ccedilla" horiz-adv-x="1048" d="M354 -255Q377 -269 427 -269T510 -232Q545 -193 545 -107Q545 -52 528 -9Q309 22 193 180Q85 327 85 559Q85 824 225 982Q378 1156 664 1156Q829 1156 936 1119Q965 1109 979 1099L937 821Q855
868 714 868Q549 868 484 720Q460 663 460 578T479 434T533 338Q599 268 730 268T950 309L995 100Q914 19 748 -6Q787 -86 787 -206Q787 -337 708 -404Q638 -464 522 -464Q440 -464 391 -453T331 -436L354 -255Z" />
<glyph unicode="&#xe8;" glyph-name="egrave" horiz-adv-x="1221" d="M455 483Q477 246 740 246Q871 246 990 282Q1025 293 1046 304L1103 107Q1004 26 798 -6Q729 -16 622 -16T409 24T231 141Q85 295 85 575Q85 830 235 990Q390 1156 657 1156Q986 1156 1094
920Q1135 830 1135 701T1124 483H455ZM793 668Q794 690 794 710Q794 804 764 860T649 917Q525 917 481 786Q465 739 458 668H793ZM616 1222Q539 1259 399 1388Q244 1529 198 1636L442 1825Q548 1647 699 1470Q746 1415 785 1380L616 1222Z" />
<glyph unicode="&#xe9;" glyph-name="eacute" horiz-adv-x="1221" d="M501 1396Q686 1581 840 1825L1083 1636Q1025 1499 806 1326Q728 1265 674 1238L501 1396ZM455 483Q477 246 740 246Q871 246 990 282Q1025 293 1046 304L1103 107Q1004 26 798 -6Q729 -16
622 -16T409 24T231 141Q85 295 85 575Q85 830 235 990Q390 1156 657 1156Q986 1156 1094 920Q1135 830 1135 701T1124 483H455ZM793 668Q794 690 794 710Q794 804 764 860T649 917Q525 917 481 786Q465 739 458 668H793Z" />
<glyph unicode="&#xea;" glyph-name="ecircumflex" horiz-adv-x="1221" d="M238 1363L543 1733H766L1070 1363L893 1249L654 1476L414 1249L238 1363ZM455 483Q477 246 740 246Q871 246 990 282Q1025 293 1046 304L1103 107Q1004 26 798 -6Q729 -16 622 -16T409
24T231 141Q85 295 85 575Q85 830 235 990Q390 1156 657 1156Q986 1156 1094 920Q1135 830 1135 701T1124 483H455ZM793 668Q794 690 794 710Q794 804 764 860T649 917Q525 917 481 786Q465 739 458 668H793Z" />
<glyph unicode="&#xeb;" glyph-name="edieresis" horiz-adv-x="1221" d="M905 1281Q862 1281 827 1295T767 1334Q715 1388 715 1471Q715 1556 775 1614Q837 1675 921 1675Q1006 1675 1057 1622Q1107 1571 1107 1486Q1107 1402 1049 1342Q989 1281 905 1281ZM387
1281Q344 1281 309 1295T249 1334Q197 1388 197 1471Q197 1555 258 1614Q320 1675 403 1675Q535 1675 577 1563Q590 1528 590 1486Q590 1402 531 1342Q472 1281 387 1281ZM455 483Q477 246 740 246Q871 246 990 282Q1025 293 1046 304L1103 107Q1004 26 798 -6Q729
-16 622 -16T409 24T231 141Q85 295 85 575Q85 830 235 990Q390 1156 657 1156Q986 1156 1094 920Q1135 830 1135 701T1124 483H455ZM793 668Q794 690 794 710Q794 804 764 860T649 917Q525 917 481 786Q465 739 458 668H793Z" />
<glyph unicode="&#xec;" glyph-name="igrave" horiz-adv-x="690" d="M159 1140H531V0H159V1140ZM308 1222Q231 1259 91 1388Q-64 1529 -110 1636L134 1825Q240 1647 391 1470Q438 1415 477 1380L308 1222Z" />
<glyph unicode="&#xed;" glyph-name="iacute" horiz-adv-x="690" d="M193 1396Q378 1581 532 1825L775 1636Q717 1499 498 1326Q420 1265 366 1238L193 1396ZM159 1140H531V0H159V1140Z" />
<glyph unicode="&#xee;" glyph-name="icircumflex" horiz-adv-x="690" d="M186 1363L491 1733H714L1018 1363L841 1249L602 1476L362 1249L186 1363ZM159 1140H531V0H159V1140Z" />
<glyph unicode="&#xef;" glyph-name="idieresis" horiz-adv-x="690" d="M584 1280Q542 1280 508 1294T449 1334Q399 1387 399 1470Q399 1555 458 1614Q518 1674 601 1674Q686 1674 736 1622Q784 1572 784 1485Q784 1400 727 1341Q668 1280 584 1280ZM90 1280Q47
1280 13 1294T-46 1334Q-96 1387 -96 1470Q-96 1554 -38 1614Q21 1674 107 1674T240 1622T288 1485Q288 1401 232 1341Q174 1280 90 1280ZM159 1140H531V0H159V1140Z" />
<glyph unicode="&#xf0;" glyph-name="eth" horiz-adv-x="1321" d="M856 1762Q773 1653 736 1607Q972 1460 1114 1200Q1254 947 1254 665Q1254 320 1077 136Q920 -27 663 -27Q399 -27 240 133Q84 291 84 550Q84 813 223 978Q368 1149 617 1149Q728 1149 813 1103Q751
1275 582 1407L462 1246L298 1360L423 1520Q310 1588 217 1617L277 1809Q457 1757 563 1701Q614 1768 689 1877L856 1762ZM590 248Q625 230 666 230T746 251T812 316Q875 414 875 592V644Q875 745 871 821Q832 881 741 904Q711 911 678 911Q584 911 529 817T474
536Q474 307 590 248Z" />
<glyph unicode="&#xf1;" glyph-name="ntilde" horiz-adv-x="1380" d="M163 1140H501L510 1018Q617 1108 778 1145Q835 1158 904 1158T1037 1137T1144 1063Q1230 960 1230 718V0H860V652Q860 776 828 823Q798 867 722 867Q719 867 697 867T623 848T533 793V0H163V1140ZM608
1434Q523 1434 446 1333L313 1466Q339 1561 418 1624Q507 1697 625 1697Q711 1697 753 1673T815 1632T853 1600Q895 1566 939 1566Q1025 1566 1106 1672L1233 1536Q1207 1441 1130 1374Q1043 1300 929 1300Q852 1300 809 1325T745 1367T703 1399Q656 1434 608 1434Z"
/>
<glyph unicode="&#xf2;" glyph-name="ograve" horiz-adv-x="1330" d="M138 290Q110 357 98 431T86 615T131 832T255 1012Q413 1156 676 1156Q1066 1156 1193 850Q1244 727 1244 560Q1244 281 1076 128Q918 -16 655 -16Q265 -16 138 290ZM471 582Q471 239 663 239Q770
239 816 320Q859 395 859 564Q859 899 669 899Q512 899 481 719Q471 660 471 582ZM635 1222Q558 1259 418 1388Q263 1529 217 1636L461 1825Q567 1647 718 1470Q765 1415 804 1380L635 1222Z" />
<glyph unicode="&#xf3;" glyph-name="oacute" horiz-adv-x="1330" d="M521 1396Q706 1581 860 1825L1103 1636Q1045 1499 826 1326Q748 1265 694 1238L521 1396ZM138 290Q110 357 98 431T86 615T131 832T255 1012Q413 1156 676 1156Q1066 1156 1193 850Q1244 727
1244 560Q1244 281 1076 128Q918 -16 655 -16Q265 -16 138 290ZM471 582Q471 239 663 239Q770 239 816 320Q859 395 859 564Q859 899 669 899Q512 899 481 719Q471 660 471 582Z" />
<glyph unicode="&#xf4;" glyph-name="ocircumflex" horiz-adv-x="1330" d="M257 1363L562 1733H785L1089 1363L912 1249L673 1476L433 1249L257 1363ZM138 290Q110 357 98 431T86 615T131 832T255 1012Q413 1156 676 1156Q1066 1156 1193 850Q1244 727 1244 560Q1244
281 1076 128Q918 -16 655 -16Q265 -16 138 290ZM471 582Q471 239 663 239Q770 239 816 320Q859 395 859 564Q859 899 669 899Q512 899 481 719Q471 660 471 582Z" />
<glyph unicode="&#xf5;" glyph-name="otilde" horiz-adv-x="1330" d="M138 290Q110 357 98 431T86 615T131 832T255 1012Q413 1156 676 1156Q1066 1156 1193 850Q1244 727 1244 560Q1244 281 1076 128Q918 -16 655 -16Q265 -16 138 290ZM471 582Q471 239 663 239Q770
239 816 320Q859 395 859 564Q859 899 669 899Q512 899 481 719Q471 660 471 582ZM503 1434Q418 1434 341 1333L208 1466Q234 1561 313 1624Q402 1697 520 1697Q606 1697 648 1673T710 1632T748 1600Q790 1566 834 1566Q920 1566 1001 1672L1128 1536Q1102 1441
1025 1374Q938 1300 824 1300Q747 1300 704 1325T640 1367T598 1399Q551 1434 503 1434Z" />
<glyph unicode="&#xf6;" glyph-name="odieresis" horiz-adv-x="1330" d="M925 1281Q882 1281 847 1295T787 1334Q735 1388 735 1471Q735 1556 795 1614Q857 1675 941 1675Q1026 1675 1077 1622Q1127 1571 1127 1486Q1127 1402 1069 1342Q1009 1281 925 1281ZM407
1281Q364 1281 329 1295T269 1334Q217 1388 217 1471Q217 1555 278 1614Q340 1675 423 1675Q555 1675 597 1563Q610 1528 610 1486Q610 1402 551 1342Q492 1281 407 1281ZM138 290Q110 357 98 431T86 615T131 832T255 1012Q413 1156 676 1156Q1066 1156 1193 850Q1244
727 1244 560Q1244 281 1076 128Q918 -16 655 -16Q265 -16 138 290ZM471 582Q471 239 663 239Q770 239 816 320Q859 395 859 564Q859 899 669 899Q512 899 481 719Q471 660 471 582Z" />
<glyph unicode="&#xf7;" glyph-name="divide" horiz-adv-x="1417" d="M726 1029Q679 1029 641 1045T576 1088Q519 1147 519 1237Q519 1328 584 1394Q652 1461 744 1461Q837 1461 892 1402Q947 1344 947 1254Q947 1162 883 1096Q817 1029 726 1029ZM190 908H1226V639H190V908ZM517
305Q517 394 582 461Q648 528 742 528Q884 528 930 404Q944 366 944 321Q944 230 880 164Q815 97 722 97Q632 97 574 156Q517 215 517 305Z" />
<glyph unicode="&#xf8;" glyph-name="oslash" horiz-adv-x="1335" d="M998 57T891 21T685 -16T527 -6L445 -234L314 -209L399 28Q86 152 86 582Q86 857 255 1012Q413 1156 676 1156Q744 1156 802 1146L888 1384L1021 1356L932 1111Q1244 984 1244 558Q1244 281
1076 128Q998 57 891 21ZM711 894Q689 899 669 899Q557 899 508 819T458 582Q458 425 510 334L711 894ZM618 244Q641 239 663 239Q773 239 822 319T872 564Q872 715 821 805L618 244Z" />
<glyph unicode="&#xf9;" glyph-name="ugrave" horiz-adv-x="1362" d="M145 1140H516V461Q516 336 553 291Q587 250 667 250Q738 250 802 285Q819 294 829 303V1140H1200V-16H932Q897 -16 880 -6T863 42V90Q770 19 616 -8Q571 -16 531 -16Q300 -16 213 122Q145
228 145 470V1140ZM650 1222Q573 1259 433 1388Q278 1529 232 1636L476 1825Q582 1647 733 1470Q780 1415 819 1380L650 1222Z" />
<glyph unicode="&#xfa;" glyph-name="uacute" horiz-adv-x="1362" d="M535 1396Q720 1581 874 1825L1117 1636Q1059 1499 840 1326Q762 1265 708 1238L535 1396ZM145 1140H516V461Q516 336 553 291Q587 250 667 250Q738 250 802 285Q819 294 829 303V1140H1200V-16H932Q897
-16 880 -6T863 42V90Q770 19 616 -8Q571 -16 531 -16Q300 -16 213 122Q145 228 145 470V1140Z" />
<glyph unicode="&#xfb;" glyph-name="ucircumflex" horiz-adv-x="1362" d="M272 1363L577 1733H800L1104 1363L927 1249L688 1476L448 1249L272 1363ZM145 1140H516V461Q516 336 553 291Q587 250 667 250Q738 250 802 285Q819 294 829 303V1140H1200V-16H932Q897
-16 880 -6T863 42V90Q770 19 616 -8Q571 -16 531 -16Q300 -16 213 122Q145 228 145 470V1140Z" />
<glyph unicode="&#xfc;" glyph-name="udieresis" horiz-adv-x="1362" d="M939 1281Q896 1281 861 1295T801 1334Q749 1388 749 1471Q749 1556 809 1614Q871 1675 955 1675Q1040 1675 1091 1622Q1141 1571 1141 1486Q1141 1402 1083 1342Q1023 1281 939 1281ZM421
1281Q378 1281 343 1295T283 1334Q231 1388 231 1471Q231 1555 292 1614Q354 1675 437 1675Q569 1675 611 1563Q624 1528 624 1486Q624 1402 565 1342Q506 1281 421 1281ZM145 1140H516V461Q516 336 553 291Q587 250 667 250Q738 250 802 285Q819 294 829 303V1140H1200V-16H932Q897
-16 880 -6T863 42V90Q770 19 616 -8Q571 -16 531 -16Q300 -16 213 122Q145 228 145 470V1140Z" />
<glyph unicode="&#xfd;" glyph-name="yacute" horiz-adv-x="1208" d="M121 -203Q145 -212 188 -218T257 -224T325 -219T407 -190Q495 -140 531 0H389L-4 1140H387L551 540L626 227L822 1140H1210L851 -27Q740 -381 487 -475Q411 -507 290 -507Q237 -507 181 -499T121
-487V-203ZM470 1396Q655 1581 809 1825L1052 1636Q994 1499 775 1326Q697 1265 643 1238L470 1396Z" />
<glyph unicode="&#xfe;" glyph-name="thorn" horiz-adv-x="1381" d="M1052 68T941 24T725 -21T528 -12L533 -169V-507H159V1661H530V1250L522 1041Q649 1156 844 1156Q1038 1156 1161 1022Q1296 876 1296 612Q1296 323 1131 150Q1052 68 941 24ZM530 262Q560 228
686 228Q784 228 845 322Q909 420 909 590Q909 824 794 868Q759 881 724 881T660 876T608 861Q559 843 530 821V262Z" />
<glyph unicode="&#xff;" glyph-name="ydieresis" horiz-adv-x="1208" d="M121 -203Q145 -212 188 -218T257 -224T325 -219T407 -190Q495 -140 531 0H389L-4 1140H387L551 540L626 227L822 1140H1210L851 -27Q740 -381 487 -475Q411 -507 290 -507Q237 -507 181
-499T121 -487V-203ZM874 1281Q831 1281 796 1295T736 1334Q684 1388 684 1471Q684 1556 744 1614Q806 1675 890 1675Q975 1675 1026 1622Q1076 1571 1076 1486Q1076 1402 1018 1342Q958 1281 874 1281ZM356 1281Q313 1281 278 1295T218 1334Q166 1388 166 1471Q166
1555 227 1614Q289 1675 372 1675Q504 1675 546 1563Q559 1528 559 1486Q559 1402 500 1342Q441 1281 356 1281Z" />
<glyph unicode="&#x2013;" glyph-name="endash" horiz-adv-x="1708" d="M248 904H1460V626H248V904Z" />
<glyph unicode="&#x2014;" glyph-name="emdash" horiz-adv-x="2422" d="M248 904H2174V626H248V904Z" />
<glyph unicode="&#x2018;" glyph-name="quoteleft" horiz-adv-x="624" d="M303 916Q230 942 174 1039Q110 1149 110 1272T133 1475T190 1612Q242 1705 313 1756L467 1661V1632Q429 1584 414 1462Q410 1423 410 1379T418 1296T440 1226Q467 1166 500 1147V1068L303 916Z" />
<glyph unicode="&#x2019;" glyph-name="quoteright" horiz-adv-x="624" d="M146 1012V1041Q183 1087 198 1212Q202 1250 202 1294T194 1377T172 1447Q145 1507 113 1525V1604L315 1756Q388 1729 441 1636Q502 1528 502 1405T478 1202T421 1063Q367 967 296 916L146 1012Z" />
<glyph unicode="&#x201a;" glyph-name="quotesinglbase" horiz-adv-x="624" d="M146 -441V-412Q183 -366 198 -241Q202 -203 202 -159T194 -76T172 -6Q145 54 113 72V151L315 303Q388 276 441 183Q502 75 502 -48T478 -251T421 -390Q367 -486 296 -537L146 -441Z" />
<glyph unicode="&#x201c;" glyph-name="quotedblleft" horiz-adv-x="1188" d="M303 916Q230 942 174 1039Q110 1149 110 1272T133 1475T190 1612Q242 1705 313 1756L467 1661V1632Q429 1584 414 1462Q410 1423 410 1379T418 1296T440 1226Q467 1166 500 1147V1068L303
916ZM867 916Q794 942 738 1039Q674 1149 674 1272T697 1475T754 1612Q806 1705 877 1756L1031 1661V1632Q993 1584 978 1462Q974 1423 974 1379T982 1296T1004 1226Q1031 1166 1064 1147V1068L867 916Z" />
<glyph unicode="&#x201d;" glyph-name="quotedblright" horiz-adv-x="1192" d="M146 1012V1041Q183 1087 198 1212Q202 1250 202 1294T194 1377T172 1447Q145 1507 113 1525V1604L315 1756Q388 1729 441 1636Q502 1528 502 1405T478 1202T421 1063Q367 967 296
916L146 1012ZM714 1012V1041Q751 1087 766 1212Q770 1250 770 1294T762 1377T740 1447Q713 1507 681 1525V1604L883 1756Q956 1729 1009 1636Q1070 1528 1070 1405T1046 1202T989 1063Q935 967 864 916L714 1012Z" />
<glyph unicode="&#x201e;" glyph-name="quotedblbase" horiz-adv-x="1184" d="M146 -438V-409Q183 -363 198 -238Q202 -200 202 -156T194 -73T172 -3Q145 57 113 75V154L315 306Q388 279 441 186Q502 78 502 -45T478 -248T421 -387Q367 -483 296 -534L146 -438ZM706
-438V-409Q743 -363 758 -238Q762 -200 762 -156T754 -73T732 -3Q705 57 673 75V154L875 306Q948 279 1001 186Q1062 78 1062 -45T1038 -248T981 -387Q927 -483 856 -534L706 -438Z" />
<glyph unicode="&#x2022;" glyph-name="bullet" horiz-adv-x="911" d="M446 440Q323 440 241 520Q161 599 161 721Q161 842 253 932T468 1022Q591 1022 672 943Q750 866 750 742Q750 623 660 531Q571 440 446 440Z" />
<glyph unicode="&#x2039;" glyph-name="guilsinglleft" horiz-adv-x="1212" d="M221 757L885 1174L971 921L575 615L971 309L885 56L221 473V757Z" />
<glyph unicode="&#x203a;" glyph-name="guilsinglright" horiz-adv-x="1212" d="M983 757L319 1174L233 921L629 615L233 309L319 56L983 473V757Z" />
</font>
</defs>
</svg>
