<?xml version="1.0" standalone="no"?>
<!DOCTYPE svg PUBLIC "-//W3C//DTD SVG 1.1//EN" "http://www.w3.org/Graphics/SVG/1.1/DTD/svg11.dtd">
<svg xmlns="http://www.w3.org/2000/svg">
<defs >
<font id="MerriweatherSans" horiz-adv-x="1147" ><font-face
    font-family="Merriweather Sans"
    units-per-em="2048"
    panose-1="2 0 8 3 6 0 0 9 0 4"
    ascent="2014"
    descent="-560"
    alphabetic="0" />
<glyph unicode=" " glyph-name="space" horiz-adv-x="485" />
<glyph unicode="!" glyph-name="exclam" horiz-adv-x="686" d="M402 1778H627L404 488H246L402 1778ZM144 27T137 46T130 95T149 156T192 208Q244 250 293 250T368 240Q428 215 428 143Q428 66 367 18Q316 -22 250 -22Q195 -22 170 2Z" />
<glyph unicode="&quot;" glyph-name="quotedbl" horiz-adv-x="1003" d="M301 1687H528L364 966H224L301 1687ZM780 1687H1007L843 966H703L780 1687Z" />
<glyph unicode="#" glyph-name="numbersign" horiz-adv-x="1405" d="M325 365H111L119 493H345L409 898H189L197 1025H429L482 1357H647L596 1025H907L963 1357H1128L1074 1025H1306L1298 898H1054L989 493H1216L1208 365H969L912 0H752L803 365H491L429 0H267L325
365ZM823 493L887 898H576L511 493H823Z" />
<glyph unicode="$" glyph-name="dollar" horiz-adv-x="1204" d="M184 228Q238 171 400 141Q450 132 503 132T614 145T716 187Q815 252 815 373Q815 462 779 515Q718 607 598 686Q453 782 397 851Q283 989 283 1148Q283 1311 389 1416Q494 1520 673 1541L703 1729H884L853
1539Q1003 1523 1091 1460L1028 1309Q943 1394 761 1394Q649 1394 594 1364T512 1292Q480 1247 480 1183T491 1079T532 1000Q579 935 715 844Q855 750 910 686Q1021 557 1021 415Q1021 229 904 116Q792 7 598 -16L563 -230H383L416 -19Q271 -4 170 43Q143 56 129
68L184 228Z" />
<glyph unicode="%" glyph-name="percent" horiz-adv-x="1911" d="M1343 1530H1502L555 0H396L1343 1530ZM726 821T650 783T492 745T358 768T271 834Q201 918 201 1055Q201 1219 318 1347Q440 1480 614 1480Q891 1480 891 1185Q891 1012 780 883Q726 821 650 783ZM362
973T400 921T501 868T604 900T670 980Q721 1073 721 1167T686 1309T590 1358T487 1328T418 1252Q362 1160 362 1067ZM1037 380Q1037 453 1068 529T1154 666Q1276 799 1450 799Q1727 799 1727 504Q1727 331 1616 202Q1496 64 1315 64Q1181 64 1107 153Q1037 237
1037 380ZM1226 525T1212 473T1198 356T1236 240T1337 187T1440 219T1506 298Q1557 392 1557 486T1522 628T1426 677T1323 647T1254 571Z" />
<glyph unicode="&amp;" glyph-name="ampersand" horiz-adv-x="1534" d="M985 52Q839 -17 641 -17Q272 -17 141 188Q94 262 94 351T121 500T193 609Q268 690 424 778Q335 971 335 1128Q335 1309 452 1428Q569 1546 749 1546Q912 1546 1014 1442Q1105 1350 1105
1237Q1105 1065 956 935Q875 864 787 815L644 737Q820 431 1008 259Q1109 368 1109 542Q1109 614 1087 682Q1016 675 987 661L997 795Q1032 830 1152 830L1439 829L1430 684H1278Q1290 636 1290 586Q1290 318 1137 161Q1225 114 1356 114Q1368 114 1380 114H1406L1385
-6Q1318 -20 1236 -20Q1097 -20 985 52ZM576 860Q749 953 806 1004Q919 1107 919 1216Q919 1354 818 1398Q785 1413 737 1413T646 1390T575 1328Q515 1247 515 1147Q515 987 576 860ZM494 649Q298 523 298 372Q298 241 414 176Q508 123 657 123Q770 123 862 160Q693
322 568 526L494 649Z" />
<glyph unicode="&apos;" glyph-name="quotesingle" horiz-adv-x="524" d="M301 1687H528L364 966H224L301 1687Z" />
<glyph unicode="(" glyph-name="parenleft" horiz-adv-x="854" d="M223 270Q203 377 203 492T220 738T283 996T388 1232T515 1429T643 1582Q759 1706 827 1741L914 1682Q812 1614 676 1404Q493 1124 431 773Q411 618 411 510T425 307T461 131T512 -14T570 -128Q622
-216 668 -255L560 -319H543Q440 -244 345 -80Q261 65 223 270Z" />
<glyph unicode=")" glyph-name="parenright" horiz-adv-x="854" d="M652 1158Q672 1051 672 936T655 690T592 432T487 196T360 -1T232 -154Q116 -278 48 -313L-39 -254Q63 -186 199 24Q382 304 444 655Q464 810 464 918T450 1121T414 1297T363 1442T305 1556Q253
1644 207 1683L315 1747H332Q435 1672 530 1508Q614 1363 652 1158Z" />
<glyph unicode="*" glyph-name="asterisk" horiz-adv-x="1366" d="M641 939L683 1084L565 986L308 815L231 982L510 1102L652 1150L520 1197L265 1318L380 1484L598 1314L698 1219L685 1361L687 1653H879L820 1361L777 1219L897 1314L1154 1485L1231 1318L952
1197L810 1149L942 1102L1197 982L1082 816L863 986L762 1084L778 939L779 647L582 648L641 939Z" />
<glyph unicode="+" glyph-name="plus" horiz-adv-x="1366" d="M581 536L607 700L466 693H241L259 851H485L623 840L636 1005L663 1235H841L815 1005L786 841L901 851H1156L1138 693H883L771 700Q769 658 766 618T761 536L733 295H554L581 536Z" />
<glyph unicode="," glyph-name="comma" horiz-adv-x="526" d="M76 137L182 265Q333 207 364 42Q373 -3 373 -63T350 -197T286 -330Q201 -450 61 -501L-12 -412L-9 -391Q111 -332 152 -198Q165 -155 165 -115T159 -44T140 14Q113 69 69 83L76 137Z" />
<glyph unicode="-" glyph-name="hyphen" horiz-adv-x="1266" d="M236 851H1073L1055 693H218L236 851Z" />
<glyph unicode="." glyph-name="period" horiz-adv-x="526" d="M98 44Q89 65 89 93T100 150T132 201Q177 250 246 250Q336 250 358 180Q365 160 365 138Q365 63 323 21T208 -22Q129 -22 98 44Z" />
<glyph unicode="/" glyph-name="slash" horiz-adv-x="854" d="M-93 -362L768 1597H942L79 -362H-93Z" />
<glyph unicode="0" glyph-name="zero" horiz-adv-x="1278" d="M153 191T128 275T103 455T126 642T190 812T290 954T418 1062Q567 1156 734 1156Q954 1156 1065 1022Q1165 902 1165 691Q1165 403 987 196Q903 99 789 42T550 -16T343 23T207 126ZM958 671Q958 1017
711 1017Q500 1017 396 825Q310 667 310 466Q310 232 456 152Q505 124 571 124T693 146T791 208T865 301T918 416Q958 535 958 671Z" />
<glyph unicode="1" glyph-name="one" horiz-adv-x="930" d="M437 892Q318 853 198 833L176 960Q325 994 502 1104L592 1162L676 1142L516 0H315L437 892Z" />
<glyph unicode="2" glyph-name="two" horiz-adv-x="1249" d="M615 1001Q454 1001 278 850L205 964Q324 1090 520 1143Q591 1162 679 1162T838 1134T954 1060Q1043 969 1043 826Q1043 523 520 227Q434 178 346 134L1065 173L1038 0H95L62 130Q513 353 712 579Q822
704 822 804T772 953T615 1001Z" />
<glyph unicode="3" glyph-name="three" horiz-adv-x="1104" d="M59 -164Q133 -174 209 -174T376 -153T539 -88Q696 5 696 159Q696 381 418 385L276 351L293 522Q623 588 699 750Q718 791 718 832T705 898T669 940Q622 976 558 976T450 966T366 938Q305 910 222
850L160 998Q267 1100 462 1146Q534 1162 606 1162T737 1146T842 1095Q941 1021 941 881Q941 752 826 637Q723 534 573 482Q739 482 836 390Q927 305 927 176Q927 30 817 -91Q664 -259 378 -311Q290 -327 228 -327Q135 -327 43 -315L59 -164Z" />
<glyph unicode="4" glyph-name="four" horiz-adv-x="1264" d="M20 94Q20 94 196 366L366 642L538 934L722 1256H769L911 1167L315 230L236 131L691 148L749 614L942 649L879 159L1130 174L1109 0H859L812 -375H623L672 0H56L20 94Z" />
<glyph unicode="5" glyph-name="five" horiz-adv-x="1116" d="M68 -189Q108 -196 183 -196T363 -174T548 -106Q725 -6 725 170Q725 426 487 426Q358 426 225 373L152 448L313 1146H860L882 1162H1050L1012 977H466L350 551Q454 580 567 580T752 553T869 476Q956
380 956 208Q956 50 851 -80Q696 -270 386 -328Q285 -346 224 -346T147 -346T112 -343Q74 -339 45 -329L68 -189Z" />
<glyph unicode="6" glyph-name="six" horiz-adv-x="1263" d="M420 869Q550 989 761 989Q940 989 1032 870Q1110 768 1110 605Q1110 368 968 185Q813 -16 558 -16Q360 -16 248 136Q145 277 145 493Q145 873 388 1174Q626 1467 1002 1571L1046 1456Q824 1375 656
1216Q491 1059 420 869ZM604 122Q802 122 880 378Q911 478 911 561T896 694T853 776Q801 836 720 836T581 820T482 780Q420 744 369 687Q342 564 342 485Q342 323 405 223T604 122Z" />
<glyph unicode="7" glyph-name="seven" horiz-adv-x="1096" d="M834 988L102 984L136 1146H1028L1060 1103L457 -320L279 -254L834 988Z" />
<glyph unicode="8" glyph-name="eight" horiz-adv-x="1270" d="M811 803Q1084 614 1084 407Q1084 214 930 96Q785 -16 557 -16Q388 -16 263 76Q123 178 123 352Q123 505 234 636Q334 754 490 821Q398 895 362 952Q297 1056 297 1157T332 1335T430 1463Q558 1569
764 1569Q929 1569 1037 1480Q1148 1388 1148 1240Q1148 1096 1043 966Q947 848 811 803ZM709 879Q877 955 932 1113Q951 1166 951 1222T934 1318T888 1385Q829 1440 759 1440T645 1421T568 1369Q498 1298 498 1197Q498 1058 624 946Q663 912 709 879ZM357 494Q336
438 336 379T353 273T405 192Q477 120 592 120Q713 120 790 190Q868 263 868 369Q868 566 593 748Q421 663 357 494Z" />
<glyph unicode="9" glyph-name="nine" horiz-adv-x="1263" d="M829 278Q709 148 518 148Q325 148 225 270Q139 375 139 542Q139 779 280 962Q436 1163 691 1163Q887 1163 1000 1011Q1104 871 1104 654Q1104 274 860 -28Q707 -219 482 -336Q370 -394 247 -428L203
-313Q425 -233 594 -71Q757 86 829 278ZM435 331T476 316T576 301T686 319T776 362Q831 398 880 460Q907 583 907 662T893 804T848 917Q780 1025 645 1025Q447 1025 368 768Q338 669 338 584T356 448T404 364Z" />
<glyph unicode=":" glyph-name="colon" horiz-adv-x="526" d="M334 44Q325 65 325 93T336 150T368 201Q413 250 482 250Q572 250 594 180Q601 160 601 138Q601 63 559 21T444 -22Q365 -22 334 44ZM170 853Q161 874 161 902T172 959T204 1010Q249 1059 318 1059Q408
1059 430 989Q437 969 437 947Q437 872 395 830T280 787Q201 787 170 853Z" />
<glyph unicode=";" glyph-name="semicolon" horiz-adv-x="526" d="M76 137L182 265Q333 207 364 42Q373 -3 373 -63T350 -197T286 -330Q201 -450 61 -501L-12 -412L-9 -391Q111 -332 152 -198Q165 -155 165 -115T159 -44T140 14Q113 69 69 83L76 137ZM173 853Q164
874 164 902T175 959T207 1010Q252 1059 321 1059Q411 1059 433 989Q440 969 440 947Q440 872 398 830T283 787Q204 787 173 853Z" />
<glyph unicode="&lt;" glyph-name="less" horiz-adv-x="1368" d="M211 814L1220 1324L1196 1130L420 741L1105 353L1085 176L195 686L211 814Z" />
<glyph unicode="=" glyph-name="equal" horiz-adv-x="1063" d="M184 1005H999L981 848H166L184 1005ZM114 496H929L911 339H96L114 496Z" />
<glyph unicode="&gt;" glyph-name="greater" horiz-adv-x="1368" d="M1259 689L250 179L274 373L1050 762L365 1150L385 1327L1275 817L1259 689Z" />
<glyph unicode="?" glyph-name="question" horiz-adv-x="1020" d="M359 464Q301 512 276 623Q269 657 269 697T287 776T342 852Q406 918 558 1000Q790 1116 812 1221Q821 1261 821 1326T792 1449T714 1544Q619 1619 487 1619Q369 1619 270 1586L298 1726Q333 1761
440 1775Q471 1779 501 1779Q756 1779 890 1644Q1002 1529 1002 1348Q1002 1122 830 994Q781 957 730 928L631 872Q524 815 482 754Q459 720 459 685T465 627T478 583T493 543T503 513L376 463L359 464ZM344 44Q334 65 334 93T345 150T376 201Q422 250 491 250Q581
250 604 180Q610 160 610 138Q610 63 568 21T453 -22Q374 -22 344 44Z" />
<glyph unicode="@" glyph-name="at" horiz-adv-x="1968" d="M1343 284L1344 213Q1344 185 1358 185Q1441 185 1526 288Q1654 444 1701 697Q1716 778 1716 859Q1716 1164 1546 1301Q1406 1414 1147 1414Q888 1414 680 1262Q489 1124 379 886Q273 656 273 398Q273
40 468 -142Q637 -301 913 -301Q1056 -301 1220 -252Q1265 -239 1291 -227L1324 -324Q1215 -405 1024 -432Q962 -440 898 -440Q553 -440 342 -227Q121 -5 121 374Q121 726 266 999Q404 1260 647 1402Q889 1545 1185 1545Q1501 1545 1686 1366Q1869 1189 1869 889Q1869
626 1770 412Q1682 225 1534 114Q1397 11 1257 11Q1174 11 1168 141Q1167 180 1167 220T1170 294L1179 371Q1069 112 918 34Q866 7 813 7T710 32Q601 86 555 242Q533 317 533 371T533 466T549 584T593 734T666 872T770 986Q898 1092 1073 1092Q1157 1092 1214 1073T1293
1038L1458 1068Q1413 897 1385 686T1350 418Q1343 340 1343 284ZM712 447Q712 160 842 160Q906 160 1000 296Q1136 493 1214 754Q1237 832 1245 892Q1211 945 1112 962Q1086 967 1047 967T960 945T872 884T803 794T753 684Q712 565 712 447Z" />
<glyph unicode="A" glyph-name="A" horiz-adv-x="1265" d="M670 1530H889L1175 0H977L911 396H317L135 0H-76L670 1530ZM885 547L770 1236L757 1352L386 547H885Z" />
<glyph unicode="B" glyph-name="B" horiz-adv-x="1240" d="M457 -14L202 0H110L303 1530H404Q474 1531 544 1538T719 1546T909 1518T1046 1444Q1142 1359 1142 1211Q1142 981 964 862Q907 825 838 802Q964 785 1046 702Q1134 613 1134 482T1086 256T946 102Q774
-14 457 -14ZM483 862L587 863Q743 863 841 947Q944 1035 944 1189Q944 1355 782 1394Q726 1408 681 1408T616 1408T572 1406Q518 1404 484 1398L417 864Q447 862 483 862ZM500 127Q923 127 923 456Q923 723 603 723Q506 723 398 716L326 146Q374 127 500 127Z"
/>
<glyph unicode="C" glyph-name="C" horiz-adv-x="1141" d="M1035 84Q899 -16 610 -16Q272 -16 156 322Q107 468 107 623T129 892T196 1109T306 1292T450 1430Q614 1546 817 1546Q942 1546 1035 1515L1142 1479L1072 1315Q1060 1321 1041 1332T990 1354Q914 1380
814 1380T638 1346T507 1254T412 1121Q309 918 309 662Q309 429 394 290Q483 142 646 142Q762 142 878 184Q959 213 1005 250L1035 84Z" />
<glyph unicode="D" glyph-name="D" horiz-adv-x="1377" d="M411 1530L721 1546Q1013 1546 1160 1373Q1298 1209 1298 901Q1298 509 1090 250Q950 75 743 12Q648 -16 542 -16Q515 -16 498 -15L436 -11Q421 -10 407 -9T367 -6T314 -3L259 -1Q232 0 211 0H110L303
1530H411ZM328 163Q418 134 539 134Q822 134 971 390Q1093 600 1093 893Q1093 1175 989 1291Q891 1400 662 1400Q553 1400 482 1381L328 163Z" />
<glyph unicode="E" glyph-name="E" horiz-adv-x="1138" d="M303 1530H1070L1063 1373L482 1381L415 854L853 861L841 695L398 710L326 149L1026 165L1012 0H110L303 1530Z" />
<glyph unicode="F" glyph-name="F" horiz-adv-x="1057" d="M303 1530H1093L1079 1373L482 1381L416 854L886 862L874 694L398 710L308 0H110L303 1530Z" />
<glyph unicode="G" glyph-name="G" horiz-adv-x="1340" d="M1182 1300Q1063 1386 842 1386Q658 1386 528 1262Q361 1104 320 808Q310 731 310 693T310 620T319 525T343 407T384 301T447 216Q526 139 644 139Q802 139 968 212L1014 570H782L802 729H1229L1147 94Q1118
91 1084 82L927 36Q752 -16 636 -16T448 10T322 81T228 189T162 322Q109 469 109 621T132 890T202 1109T316 1292T466 1430Q637 1546 845 1546Q1038 1546 1206 1490L1244 1479L1182 1300Z" />
<glyph unicode="H" glyph-name="H" horiz-adv-x="1410" d="M303 1530H501L414 844H1067L1154 1530H1352L1159 0H961L1048 694H395L308 0H110L303 1530Z" />
<glyph unicode="I" glyph-name="I" horiz-adv-x="580" d="M320 1530H518L325 0H127L320 1530Z" />
<glyph unicode="J" glyph-name="J" horiz-adv-x="582" d="M136 110Q152 183 171 298T206 537T238 791L293 1299Q306 1421 319 1530H517Q466 1073 445 898Q445 898 405 586Q346 145 319 59T244 -96T137 -210Q37 -285 -135 -315L-170 -227Q-54 -190 29 -100Q109
-14 136 110Z" />
<glyph unicode="K" glyph-name="K" horiz-adv-x="1245" d="M303 1530H501L403 758L1075 1530H1307L692 848Q771 720 842 592L1084 164Q1135 78 1187 0H949Q942 10 924 42Q586 671 565 707L369 489L308 0H110L303 1530Z" />
<glyph unicode="L" glyph-name="L" horiz-adv-x="978" d="M303 1530H501L329 165L899 170L877 0H110L303 1530Z" />
<glyph unicode="M" glyph-name="M" horiz-adv-x="1791" d="M428 1530H682L843 470L858 301L908 470L1335 1530H1622L1586 0H1385L1435 1020L1459 1403L886 -3L746 -18L585 1043L549 1402L486 1033L248 0H48L428 1530Z" />
<glyph unicode="N" glyph-name="N" horiz-adv-x="1400" d="M303 1530H509L949 468L1012 261L1031 510L1154 1530H1342L1149 0H956L501 1075L448 1307L421 1009L295 0H110L303 1530Z" />
<glyph unicode="O" glyph-name="O" horiz-adv-x="1378" d="M591 -16Q477 -16 386 33T234 168Q108 346 108 641Q108 882 195 1088Q284 1299 446 1421Q611 1546 814 1546Q1047 1546 1179 1362Q1305 1186 1305 899Q1305 516 1114 257Q914 -16 591 -16ZM631 136Q840
136 974 360Q1099 567 1099 859Q1099 1269 920 1360Q861 1389 786 1389T649 1361T534 1282T440 1161Q314 949 314 671Q314 391 393 264T631 136Z" />
<glyph unicode="P" glyph-name="P" horiz-adv-x="1180" d="M562 520Q430 520 375 530L308 0H110L303 1530H419L714 1546Q1165 1546 1171 1157Q1171 1148 1171 1139Q1171 861 1003 692Q833 520 562 520ZM970 1146Q970 1398 682 1398Q596 1398 481 1377L395 690Q456
676 563 676Q970 680 970 1146Z" />
<glyph unicode="Q" glyph-name="Q" horiz-adv-x="1378" d="M918 -172Q971 -176 1055 -176T1217 -148V-302Q1166 -339 996 -356Q950 -360 893 -360T772 -339Q636 -295 590 -167Q573 -123 573 -83T577 -15Q355 -7 228 176Q108 352 108 641Q108 882 195 1088Q284
1299 446 1421Q611 1546 814 1546Q1047 1546 1179 1362Q1305 1186 1305 897Q1305 557 1149 308Q1072 186 963 104T719 -4Q727 -158 918 -172ZM631 136Q840 136 974 360Q1099 567 1099 859Q1099 1269 920 1360Q861 1389 786 1389T649 1361T534 1282T440 1161Q314
949 314 671Q314 391 393 264T631 136Z" />
<glyph unicode="R" glyph-name="R" horiz-adv-x="1270" d="M517 652L388 653L306 0H108L301 1530H403L712 1546Q941 1546 1060 1454Q1182 1359 1182 1177Q1182 901 981 754Q914 705 827 678Q908 593 966 418Q1092 118 1118 69T1160 -1L933 1Q887 68 804 306Q702
641 592 651Q554 651 517 652ZM408 812Q427 811 458 810H522Q555 809 585 809H631Q802 809 890 918Q967 1013 967 1170Q967 1394 690 1394Q561 1394 481 1378L408 812Z" />
<glyph unicode="S" glyph-name="S" horiz-adv-x="1044" d="M84 235Q138 178 300 148Q350 139 403 139T514 151T616 190Q715 252 715 373Q715 462 679 515Q618 607 498 686Q353 782 297 851Q183 989 183 1148Q183 1329 312 1438Q439 1546 648 1546Q876 1546 991
1461L928 1310Q843 1395 661 1395Q549 1395 494 1365T412 1294Q380 1248 380 1184T391 1080T432 1000Q478 936 615 844Q755 750 810 686Q921 557 921 410Q921 206 773 92Q632 -16 394 -16Q218 -16 81 45Q45 61 29 75L84 235Z" />
<glyph unicode="T" glyph-name="T" horiz-adv-x="1122" d="M556 1384L129 1373L151 1530H1195L1174 1373L754 1384L579 0H381L556 1384Z" />
<glyph unicode="U" glyph-name="U" horiz-adv-x="1363" d="M349 455Q349 145 630 145Q795 145 887 260Q984 381 1017 644L1129 1530H1322L1208 627Q1142 121 832 18Q730 -16 610 -16T406 14T264 102Q146 222 146 442Q146 474 150 511L277 1530H475L361 628Q349
516 349 455Z" />
<glyph unicode="V" glyph-name="V" horiz-adv-x="1169" d="M128 1530H326L489 429L514 207L600 429L1076 1530H1286L589 0H380L128 1530Z" />
<glyph unicode="W" glyph-name="W" horiz-adv-x="1773" d="M126 1530H324L464 436L496 220L557 435L900 1313L876 1530H1066L1182 436L1197 220L1271 435L1688 1530H1888L1259 -10H1057L961 850L947 1022L892 850L562 -10H358L126 1530Z" />
<glyph unicode="X" glyph-name="X" horiz-adv-x="1157" d="M499 793L181 1530H399L628 932L1017 1530H1241L704 753L1051 0H823L575 620L181 0H-59L499 793Z" />
<glyph unicode="Y" glyph-name="Y" horiz-adv-x="1083" d="M456 590L83 1530H295L543 838L575 762L613 838L1025 1530H1237L644 590L568 0H380L456 590Z" />
<glyph unicode="Z" glyph-name="Z" horiz-adv-x="1157" d="M15 89L794 1217L928 1376L238 1362L260 1530H1158L1183 1444L403 303L279 158L1031 170L1003 0H42L15 89Z" />
<glyph unicode="[" glyph-name="bracketleft" horiz-adv-x="854" d="M180 -54Q180 133 214 373T268 740T308 994L347 1245Q366 1369 378 1462T405 1603T446 1681Q494 1735 611 1735Q679 1735 871 1688L858 1601H583L360 -55Q426 -55 497 -56T635 -57Q629 -101
625 -143L560 -162Q454 -190 380 -190T272 -183T218 -160Q180 -129 180 -54Z" />
<glyph unicode="\" glyph-name="backslash" horiz-adv-x="854" d="M602 -362L26 1597H199L776 -362H602Z" />
<glyph unicode="]" glyph-name="bracketright" horiz-adv-x="854" d="M736 1610Q736 1423 702 1183T648 816T608 562L569 311Q550 187 538 94T511 -47T470 -125Q422 -179 305 -179Q237 -179 45 -132L58 -45H333L556 1611Q490 1611 419 1612T281 1613Q287 1657
291 1699L356 1718Q462 1746 536 1746T644 1739T698 1716Q736 1685 736 1610Z" />
<glyph unicode="^" glyph-name="asciicircum" horiz-adv-x="1364" d="M687 1530H884L1141 510H970L768 1338L351 510H176L687 1530Z" />
<glyph unicode="_" glyph-name="underscore" horiz-adv-x="1335" d="M1287 -187L1267 -338H-111L-91 -187H1287Z" />
<glyph unicode="`" glyph-name="grave" horiz-adv-x="541" d="M405 1241Q309 1282 152 1447Q80 1522 49 1576L202 1713L490 1311L405 1241Z" />
<glyph unicode="a" glyph-name="a" horiz-adv-x="1145" d="M380 -16Q311 -16 253 15T156 102Q81 213 81 416Q81 687 230 904Q338 1059 515 1123Q606 1156 719 1156Q809 1156 945 1122L1058 1156L902 0H730L745 190Q593 -16 380 -16ZM283 440Q283 136 426 136Q599
136 757 383L843 988Q768 1013 692 1013T559 987T456 917T379 816T324 694Q283 570 283 440Z" />
<glyph unicode="b" glyph-name="b" horiz-adv-x="1163" d="M626 17Q535 -16 428 -16T196 17L83 -16L302 1638H487L432 1147L396 954Q499 1090 648 1138Q701 1156 770 1156T897 1125T994 1038Q1070 927 1070 724Q1070 454 915 236Q805 81 626 17ZM868 700Q868 1004
725 1004Q583 1004 442 840Q405 797 380 759L300 151Q372 127 448 127T583 153T688 223T768 324T824 446Q868 574 868 700Z" />
<glyph unicode="c" glyph-name="c" horiz-adv-x="905" d="M834 951Q763 1009 648 1009Q584 1009 520 968T402 853Q284 686 284 454Q284 200 403 150Q442 133 500 133Q612 133 755 272L820 166Q736 52 585 2Q528 -16 449 -16T300 14T182 103Q85 221 85 434Q85 698
230 912Q333 1064 488 1124Q569 1156 630 1156T721 1154T780 1148Q848 1137 885 1118L834 951Z" />
<glyph unicode="d" glyph-name="d" horiz-adv-x="1161" d="M522 1123Q614 1156 703 1156T870 1141L938 1638H1133L912 0H738L754 194Q648 51 502 2Q448 -16 379 -16T251 15T154 102Q79 213 79 416Q79 686 234 904Q344 1059 522 1123ZM281 440Q281 136 424 136Q520
136 625 224Q704 290 768 389L850 988Q775 1013 700 1013T566 987T461 917T381 816T325 694Q281 566 281 440Z" />
<glyph unicode="e" glyph-name="e" horiz-adv-x="1035" d="M502 138Q665 138 834 297L889 186Q839 114 736 56Q610 -16 492 -16T298 22Q86 129 86 419Q86 572 132 710T257 946Q425 1156 684 1156Q891 1156 948 1004Q965 959 965 891T931 756T842 637T715 547T568
483Q430 435 292 425Q292 414 292 391T297 323T326 236Q377 138 502 138ZM769 889Q769 1008 641 1008Q501 1008 400 852Q315 720 297 564Q445 571 594 655Q769 753 769 889Z" />
<glyph unicode="f" glyph-name="f" horiz-adv-x="695" d="M836 1496Q795 1528 722 1528Q717 1528 694 1528T638 1509T580 1456Q531 1392 518 1291L497 1140H708L696 984H476L343 0H148L281 984H142L170 1140H302L316 1234Q343 1439 448 1558Q558 1681 738 1681Q831
1681 886 1655L836 1496Z" />
<glyph unicode="g" glyph-name="g" horiz-adv-x="1157" d="M171 -304Q280 -356 428 -356Q607 -356 670 -206Q691 -157 703 -96L752 191Q648 52 500 2Q447 -16 378 -16T251 15T154 102Q79 213 79 416Q79 686 234 904Q344 1059 522 1123Q614 1156 727 1156Q817 1156
953 1122L1070 1156L900 -93Q878 -239 790 -340Q647 -504 390 -504Q277 -504 207 -490T121 -469L171 -304ZM281 440Q281 136 424 136Q519 136 620 219Q697 282 763 381L849 988Q774 1013 700 1013T566 987T461 917T381 816T325 694Q281 566 281 440Z" />
<glyph unicode="h" glyph-name="h" horiz-adv-x="1198" d="M296 1638H491L439 1159L399 909Q542 1079 724 1136Q785 1156 847 1156Q958 1156 1013 1089T1069 866Q1069 797 1045 627Q987 228 974 146T952 0H756Q773 130 794 263L831 514Q870 771 870 832T863 917T842
954Q820 975 772 975T673 954T570 898Q460 821 381 718L283 0H88L296 1638Z" />
<glyph unicode="i" glyph-name="i" horiz-adv-x="584" d="M279 1140H474L319 0H124L279 1140ZM372 1402Q302 1432 302 1507Q302 1566 348 1612Q391 1655 433 1655T498 1646Q569 1617 569 1545Q569 1482 522 1436Q476 1392 435 1392T372 1402Z" />
<glyph unicode="j" glyph-name="j" horiz-adv-x="579" d="M-178 -364Q-159 -378 -109 -378T-14 -342T58 -244Q102 -148 131 69L277 1140H472L318 4Q286 -233 174 -374Q64 -514 -96 -514Q-174 -514 -230 -475L-178 -364ZM363 1402Q293 1432 293 1507Q293 1566 339
1612Q382 1655 424 1655T489 1646Q560 1617 560 1545Q560 1482 513 1436Q467 1392 426 1392T363 1402Z" />
<glyph unicode="k" glyph-name="k" horiz-adv-x="1041" d="M296 1638H491L283 0H88L296 1638ZM403 634L402 635Q636 765 784 984Q829 1050 862 1140H1048Q1026 912 766 698Q695 640 620 601L984 4H757L402 634H403Z" />
<glyph unicode="l" glyph-name="l" horiz-adv-x="584" d="M348 1638H543L320 4H125L348 1638Z" />
<glyph unicode="m" glyph-name="m" horiz-adv-x="1769" d="M238 1140H423L403 926Q536 1086 698 1138Q753 1156 829 1156T959 1107T1027 946Q1157 1093 1314 1140Q1367 1156 1420 1156Q1531 1156 1586 1089T1642 866Q1642 797 1614 597L1526 4H1330Q1347 134 1367
265L1404 514Q1443 771 1443 832T1436 917T1414 954Q1393 975 1349 975T1266 960T1184 917Q1099 862 1026 776Q1021 725 1012 658L916 4H720Q737 134 757 265L794 514Q833 771 833 832T826 917T804 954Q783 975 736 975T642 955T548 899Q447 824 375 722L278 4H83L238
1140Z" />
<glyph unicode="n" glyph-name="n" horiz-adv-x="1194" d="M238 1140H423L402 916V915Q545 1081 722 1137Q783 1156 844 1156Q955 1156 1010 1089T1066 866Q1066 797 1038 597L950 4H754Q771 134 791 265L828 514Q867 771 867 832T860 917T838 954Q817 975 769
975T669 954T565 896Q452 818 374 714L278 4H83L238 1140Z" />
<glyph unicode="o" glyph-name="o" horiz-adv-x="1135" d="M312 15Q89 111 89 463Q89 729 247 937Q351 1074 502 1128Q577 1156 666 1156T826 1125T944 1035Q1041 913 1041 686Q1041 409 888 204Q785 66 638 12Q563 -16 474 -16T312 15ZM292 460Q292 131 509 131Q616
131 696 222Q802 342 829 567Q836 626 836 657T836 729T823 828T786 926Q737 1009 630 1009Q523 1009 440 918Q328 796 300 575Q292 516 292 460Z" />
<glyph unicode="p" glyph-name="p" horiz-adv-x="1169" d="M624 17Q533 -16 444 -16T278 -1L210 -513H15L235 1140H410L393 953Q497 1091 645 1138Q699 1156 768 1156T895 1125T992 1038Q1068 927 1068 724Q1068 454 913 236Q803 81 624 17ZM866 700Q866 1004
723 1004Q581 1004 440 840Q403 797 378 759L298 151Q370 127 446 127T581 153T686 223T766 324T822 446Q866 574 866 700Z" />
<glyph unicode="q" glyph-name="q" horiz-adv-x="1159" d="M522 1123Q614 1156 720 1156T941 1125L1064 1162L844 -506H649L717 4L752 191Q648 52 500 2Q447 -16 378 -16T251 15T154 102Q79 213 79 416Q79 686 234 904Q344 1059 522 1123ZM281 440Q281 136 424
136Q519 136 620 219Q697 282 763 381L846 989Q774 1013 700 1013T566 987T461 917T381 816T325 694Q281 566 281 440Z" />
<glyph unicode="r" glyph-name="r" horiz-adv-x="786" d="M771 935Q745 949 693 949T601 931T518 877Q426 799 369 673L277 0H82L238 1140H423L404 937Q491 1074 632 1133Q688 1156 728 1156Q802 1156 815 1143L771 935Z" />
<glyph unicode="s" glyph-name="s" horiz-adv-x="872" d="M81 214Q206 131 348 131Q478 131 522 204Q538 231 538 270T527 337T494 390T443 442L376 500Q271 590 237 639Q170 734 170 827T201 978T284 1076Q389 1156 550 1156Q672 1156 733 1140T806 1117L768
934Q741 975 639 1000Q600 1009 556 1009T477 1001T416 976Q358 939 358 868Q358 771 451 691L589 575Q732 450 732 295Q732 145 620 62Q516 -16 338 -16Q184 -16 86 21Q57 32 44 43L81 214Z" />
<glyph unicode="t" glyph-name="t" horiz-adv-x="741" d="M336 -16Q153 -16 153 163V174Q153 205 165 296L249 984H133L175 1140H280L342 1420H507L471 1140H733L710 984H449L373 394Q373 394 360 308Q356 278 356 248Q356 139 412 139Q467 139 581 208Q609 225
625 237L650 129Q582 46 426 -2Q378 -16 336 -16Z" />
<glyph unicode="u" glyph-name="u" horiz-adv-x="1173" d="M102 270Q102 336 117 451Q172 860 187 958L213 1140H409Q398 1056 386 970L339 642Q301 374 301 308T309 217T335 176Q365 151 422 151T526 172T621 230Q719 305 791 412L888 1140H1083L932 0H750L771
218Q645 52 481 -2Q424 -20 364 -20Q232 -20 167 47T102 270Z" />
<glyph unicode="v" glyph-name="v" horiz-adv-x="1007" d="M212 359L102 1140H320L387 359L397 154L541 342Q541 342 615 464Q687 584 718 675T763 823T784 920T797 1004Q812 1110 808 1140H994Q996 1107 996 1073T990 964T946 775T854 556Q754 362 606 184L445
-4L270 -16L212 359Z" />
<glyph unicode="w" glyph-name="w" horiz-adv-x="1662" d="M1626 1140Q1628 1110 1628 1100T1628 1079T1626 1055T1619 974T1579 790T1492 562Q1392 350 1249 178L1098 -4L923 -16L865 359L832 591Q719 318 606 184L455 -4L280 -16L222 359L108 1140H326L397 359L407
154L541 342Q733 650 785 917L754 1140H968L1041 359L1053 154L1184 336L1258 458Q1361 635 1399 854Q1403 879 1410 920T1424 1005Q1439 1110 1435 1140H1626Z" />
<glyph unicode="x" glyph-name="x" horiz-adv-x="953" d="M372 590L118 1140H352L495 729L769 1140H981L559 568L834 4H605L437 433L155 4H-54L372 590Z" />
<glyph unicode="y" glyph-name="y" horiz-adv-x="1050" d="M-139 -312Q-79 -342 -26 -342T75 -328T175 -278Q282 -202 410 -16H289L224 359L115 1140H331L415 359L455 56L558 239Q760 562 802 1006Q806 1057 809 1140H1001Q1003 1109 1003 1076T998 977T972 814T918
618Q777 191 501 -154Q501 -154 406 -268Q210 -501 -53 -501Q-125 -501 -195 -474L-139 -312Z" />
<glyph unicode="z" glyph-name="z" horiz-adv-x="965" d="M-28 59L551 815L711 984H172L194 1140H917L965 1088L368 306L224 156H822L807 0H30L-28 59Z" />
<glyph unicode="{" glyph-name="braceleft" horiz-adv-x="1024" d="M1007 1688Q994 1606 994 1601H718L622 970Q610 886 490 828Q466 816 439 804L379 776Q485 722 514 692Q571 633 562 575L467 -55H742Q740 -61 739 -75T735 -106T730 -143Q608 -179 552 -184T452
-190T376 -183T324 -160Q287 -129 287 -47Q287 -42 291 -12L332 277Q351 412 377 579Q377 635 249 686Q205 703 160 714L178 838Q423 898 435 966L512 1483Q536 1634 582 1684Q630 1735 747 1735Q815 1735 1007 1688Z" />
<glyph unicode="|" glyph-name="bar" horiz-adv-x="854" d="M354 1780H527V-186H354V1780Z" />
<glyph unicode="}" glyph-name="braceright" horiz-adv-x="1024" d="M66 -142Q79 -60 79 -55H355L451 576Q463 660 583 718Q607 730 634 742L694 770Q588 824 559 854Q502 913 511 971L606 1601H331Q333 1607 334 1621T338 1652T343 1689Q465 1725 521 1730T621
1736T697 1729T749 1706Q786 1675 786 1593Q786 1588 782 1558L741 1269Q722 1134 696 967Q696 911 824 860Q868 843 913 832L895 708Q650 648 638 580L561 63Q537 -88 491 -138Q443 -189 326 -189Q258 -189 66 -142Z" />
<glyph unicode="~" glyph-name="asciitilde" horiz-adv-x="1137" d="M405 892Q280 892 203 775L132 848Q159 928 244 989Q339 1058 444 1058Q528 1058 630 972L681 930Q738 886 786 886Q911 886 988 1003L1059 930Q1037 847 948 784Q858 720 747 720Q661 720 562
806Q497 862 466 877T405 892Z" />
<glyph unicode="&#xa1;" glyph-name="exclamdown" horiz-adv-x="686" d="M318 -434H93L316 856H474L318 -434ZM576 1317T583 1298T590 1249T571 1188T528 1136Q476 1094 427 1094T352 1104Q292 1129 292 1201Q292 1278 353 1326Q404 1366 470 1366Q525 1366 550 1342Z" />
<glyph unicode="&#xa2;" glyph-name="cent" horiz-adv-x="1057" d="M886 951Q815 1009 700 1009Q636 1009 572 968T454 853Q336 686 336 454Q336 200 455 150Q494 133 552 133Q664 133 807 272L872 166Q794 62 659 10Q608 -9 548 -14L511 -215H361L400 -2Q270
31 204 143T137 434Q137 663 254 866Q383 1091 601 1142L655 1358H805L753 1155Q873 1150 937 1118L886 951Z" />
<glyph unicode="&#xa3;" glyph-name="sterling" horiz-adv-x="1368" d="M131 -10Q99 -20 76 -20T38 -16Q-10 -6 -10 49Q-10 120 78 180Q156 233 227 233Q312 301 338 493L380 744H203L221 875H402L418 966Q451 1207 580 1366Q724 1545 972 1545Q1108 1545 1178
1505Q1206 1489 1231 1463L1138 1323Q1118 1368 1020 1394Q985 1404 941 1404Q775 1404 677 1178Q641 1094 620 968L603 875H914L897 744H580L572 696Q531 441 488 344Q464 289 416 217Q458 204 502 188T593 156Q703 121 789 121T928 135T1014 175Q1074 224 1074
321Q1074 390 1019 451Q1002 470 983 481L1140 600Q1280 488 1280 326Q1280 61 1000 -3Q926 -20 834 -20T672 -9T537 21T413 60L297 102Q234 20 131 -10Z" />
<glyph unicode="&#xa4;" glyph-name="currency" horiz-adv-x="1540" d="M917 252T782 252T540 324L346 130L232 243L424 435Q342 549 342 688T422 942L229 1135L342 1249L536 1053Q650 1128 786 1128T1038 1047L1228 1236L1341 1122L1150 931Q1222 821 1222 688T1145
442L1339 248L1225 135L1031 328Q917 252 782 252ZM490 690Q490 564 576 474Q661 385 782 385Q903 385 988 474Q1074 564 1074 690Q1074 816 988 906Q903 995 782 995Q661 995 576 906Q490 816 490 690Z" />
<glyph unicode="&#xa5;" glyph-name="yen" horiz-adv-x="1483" d="M247 506H657L684 731H277L294 862H642L324 1530H517L771 975L812 864L878 983L1246 1530H1440L942 862H1299L1282 731H860L833 506H1252L1235 376H818L774 0H597L641 376H230L247 506Z" />
<glyph unicode="&#xa6;" glyph-name="brokenbar" horiz-adv-x="854" d="M354 1780H527V886H354V1780ZM354 708H527V-186H354V708Z" />
<glyph unicode="&#xa7;" glyph-name="section" horiz-adv-x="1194" d="M961 388Q1053 305 1053 207T1013 36T897 -86Q746 -186 496 -186Q382 -186 301 -156Q169 -108 131 -65L186 85Q232 16 402 -20Q452 -31 499 -31Q847 -31 847 160Q847 272 590 378Q328 485
240 660Q205 730 205 816T250 959T382 1059Q245 1185 245 1352Q245 1491 376 1580Q513 1673 750 1673Q976 1673 1093 1568L1030 1417Q966 1497 802 1517Q761 1522 717 1522T623 1510T536 1476Q452 1428 452 1345Q452 1255 522 1193Q560 1160 616 1130L747 1062Q897
990 963 925T1060 800Q1093 737 1093 664Q1093 489 961 388ZM500 972Q412 921 412 824Q412 733 482 669Q534 623 635 573T766 510T825 481Q887 537 887 631Q887 707 850 752Q781 834 630 904Q552 939 500 972Z" />
<glyph unicode="&#xa8;" glyph-name="dieresis" horiz-adv-x="809" d="M512 1424Q455 1482 494 1562Q520 1616 572 1640Q598 1651 625 1651T676 1642Q747 1613 747 1541Q747 1478 700 1432Q654 1388 613 1388Q546 1388 512 1424ZM130 1398Q60 1428 60 1503Q60
1562 106 1608Q149 1651 191 1651T256 1642Q327 1613 327 1541Q327 1478 280 1432Q234 1388 193 1388T130 1398Z" />
<glyph unicode="&#xa9;" glyph-name="copyright" horiz-adv-x="2129" d="M194 962Q194 1084 224 1196T311 1406T447 1584T622 1721Q824 1840 1064 1840Q1303 1840 1506 1721Q1703 1605 1817 1406Q1935 1201 1935 963Q1935 724 1817 518Q1641 210 1297 114Q1185
82 1064 82Q826 82 622 202Q427 317 312 518Q194 722 194 962ZM361 1162Q336 1066 336 963T361 764T432 584T543 432T689 314Q859 211 1064 211Q1269 211 1439 314Q1689 465 1767 764Q1792 859 1792 962T1767 1162T1696 1341T1585 1493T1439 1611Q1269 1714 1064
1714Q859 1714 689 1611Q438 1459 361 1162ZM1335 697L1380 573Q1267 479 1061 479Q861 479 738 624Q621 762 621 956Q621 1175 748 1308Q884 1450 1117 1450Q1251 1450 1355 1394L1323 1230Q1225 1293 1098 1293Q964 1293 888 1200Q815 1111 815 971Q815 812 892
722Q966 636 1098 636T1335 697Z" />
<glyph unicode="&#xaa;" glyph-name="ordfeminine" horiz-adv-x="854" d="M584 870Q474 743 333 743Q156 743 109 916Q94 971 94 1037T111 1167T160 1291T237 1403T338 1494Q459 1577 598 1577Q683 1577 773 1548L873 1574L727 743H560L584 870ZM669 1437Q627
1475 576 1475T484 1457T408 1407T348 1334T304 1246Q268 1152 268 1081T274 974T297 913Q330 861 403 861Q478 861 591 974L669 1437Z" />
<glyph unicode="&#xab;" glyph-name="guillemotleft" horiz-adv-x="1878" d="M267 690L959 1086L997 971L487 615L901 264L831 152L245 530L267 690ZM943 690L1635 1086L1673 971L1163 615L1577 264L1507 152L921 530L943 690Z" />
<glyph unicode="&#xac;" glyph-name="logicalnot" horiz-adv-x="1370" d="M228 853H1188L1126 322H949L994 701H211L228 853Z" />
<glyph unicode="&#xad;" glyph-name="uni00AD" horiz-adv-x="1706" />
<glyph unicode="&#xae;" glyph-name="registered" horiz-adv-x="2129" d="M194 962Q194 1084 224 1196T311 1406T447 1584T622 1721Q824 1840 1064 1840Q1303 1840 1506 1721Q1703 1605 1817 1406Q1935 1201 1935 963Q1935 724 1817 518Q1641 210 1297 114Q1185
82 1064 82Q826 82 622 202Q427 317 312 518Q194 722 194 962ZM361 1162Q336 1066 336 963T361 764T432 584T543 432T689 314Q859 211 1064 211Q1269 211 1439 314Q1689 465 1767 764Q1792 859 1792 962T1767 1162T1696 1341T1585 1493T1439 1611Q1269 1714 1064
1714Q859 1714 689 1611Q438 1459 361 1162ZM1432 1174Q1432 932 1239 874Q1300 827 1359 704Q1388 642 1403 619L1495 479L1291 480Q1243 541 1204 634T1144 759Q1095 834 1039 849Q1019 848 986 848H915V479H738V1441H815L1073 1448Q1253 1448 1348 1366Q1432
1294 1432 1174ZM1204 1274Q1179 1295 1139 1305T1029 1316T915 1305V980Q959 976 996 976H1045Q1146 976 1197 1015T1248 1151Q1248 1236 1204 1274Z" />
<glyph unicode="&#xaf;" glyph-name="overscore" horiz-adv-x="614" d="M45 1574H555L550 1425H41L45 1574Z" />
<glyph unicode="&#xb0;" glyph-name="degree" horiz-adv-x="899" d="M464 955Q394 955 335 980Q214 1033 166 1153Q144 1210 144 1242Q144 1345 170 1404T242 1508Q338 1600 482 1600Q619 1600 714 1506Q804 1415 804 1283Q804 1141 704 1047Q607 955 464 955ZM471
1076Q512 1076 547 1091T608 1133Q664 1191 664 1283Q664 1363 611 1420Q556 1479 477 1479Q393 1479 340 1422Q284 1363 284 1272Q284 1192 336 1136Q392 1076 471 1076Z" />
<glyph unicode="&#xb1;" glyph-name="plusminus" horiz-adv-x="1366" d="M581 536L607 700L466 693H241L259 851H484L623 840Q626 882 630 923T637 1005L663 1235H841L815 1005L786 841L901 851H1156L1138 693H883L771 700Q769 658 766 618T760 536L733 295H554L581
536ZM189 180H1058L1041 30H172L189 180Z" />
<glyph unicode="&#xb2;" glyph-name="twosuperior" horiz-adv-x="1163" d="M824 1333Q824 1494 639 1494T319 1356L249 1450Q339 1572 516 1626Q582 1647 662 1647T810 1624T923 1564Q1016 1488 1016 1388Q1016 1194 853 1041Q757 951 646 881L458 763L1000 796L993
637H215L170 733L276 792Q533 938 691 1098Q824 1232 824 1333Z" />
<glyph unicode="&#xb3;" glyph-name="threesuperior" horiz-adv-x="1071" d="M229 1520Q407 1644 618 1644Q759 1644 844 1580Q923 1522 923 1432Q923 1326 843 1240Q774 1167 660 1124Q800 1124 864 1040Q910 978 910 890Q910 774 828 686Q722 573 522 543Q462
534 420 534T341 538T266 552Q177 573 124 606L141 714Q247 663 382 663Q583 663 670 774Q703 818 703 867T692 943T658 991Q611 1034 528 1036L367 1001L388 1146Q598 1186 672 1292Q701 1333 701 1390Q701 1502 559 1502T275 1408L229 1520Z" />
<glyph unicode="&#xb4;" glyph-name="acute" horiz-adv-x="559" d="M49 1312L356 1713L508 1576Q478 1519 351 1400Q211 1270 132 1241L49 1312Z" />
<glyph unicode="&#xb5;" glyph-name="mu" horiz-adv-x="1364" d="M1071 155Q1118 155 1190 227L1252 120Q1193 42 1095 0Q1051 -18 995 -18T896 15T845 122L788 70Q688 -20 527 -20Q461 -20 398 25Q379 39 370 56L306 -372H121L302 851Q313 929 302 948T280 967Q239
967 186 914L122 1029Q164 1097 276 1138Q322 1154 365 1154T434 1142Q512 1109 512 997Q512 971 502 894L427 346Q425 327 425 303T434 248T466 196Q506 156 563 156T660 173T735 217Q800 264 852 331L960 1140H1154L1038 238Q1033 199 1044 177T1071 155Z" />
<glyph unicode="&#xb6;" glyph-name="paragraph" horiz-adv-x="1364" d="M516 774Q267 780 188 972Q161 1038 161 1130T190 1304T286 1445Q427 1571 716 1571Q801 1571 882 1564Q1038 1552 1090 1552H1349L1338 1449L1171 1416Q1013 172 992 0H802L977 1414H783L606
0H414L516 774Z" />
<glyph unicode="&#xb7;" glyph-name="middot" horiz-adv-x="686" d="M217 690Q208 711 208 739T219 796T251 847Q296 896 365 896Q455 896 477 826Q484 806 484 784Q484 709 442 667T327 624Q248 624 217 690Z" />
<glyph unicode="&#xb8;" glyph-name="cedilla" horiz-adv-x="479" d="M260 -40Q260 10 255 30L332 34L385 30Q430 -32 430 -141T408 -307T346 -399Q275 -464 152 -464Q87 -464 50 -453T4 -436L29 -285Q55 -299 93 -299T159 -292T210 -265Q259 -220 259 -119L260 -40Z" />
<glyph unicode="&#xb9;" glyph-name="onesuperior" horiz-adv-x="1020" d="M545 1395L284 1343L278 1466Q422 1503 594 1588Q665 1623 694 1645L763 1624L628 636H443L545 1395Z" />
<glyph unicode="&#xba;" glyph-name="ordmasculine" horiz-adv-x="854" d="M725 854Q663 793 587 763T435 733T300 760T196 836Q98 942 98 1105Q98 1325 242 1465Q369 1589 532 1589Q679 1589 772 1482Q863 1378 863 1214Q863 991 725 854ZM371 878Q399 858 416
858T437 858Q569 858 631 972Q677 1057 677 1196Q677 1390 592 1450Q564 1471 509 1471T408 1435T333 1346Q282 1251 282 1123Q282 939 371 878Z" />
<glyph unicode="&#xbb;" glyph-name="guillemotright" horiz-adv-x="1878" d="M948 548L256 152L218 267L728 623L314 974L384 1086L970 708L948 548ZM1624 548L932 152L894 267L1404 623L990 974L1060 1086L1646 708L1624 548Z" />
<glyph unicode="&#xbc;" glyph-name="onequarter" horiz-adv-x="2560" d="M1804 167H1312L1275 262L1881 1113H1929L2062 1010L1571 401L1492 309L1825 323L1861 576L2063 599L2027 331L2289 342L2269 167H2005L1959 -176H1756L1804 167ZM575 1395L314 1343L308
1466Q452 1503 624 1588Q695 1623 724 1645L793 1624L658 636H473L575 1395ZM1387 1530H1546L865 0H706L1387 1530Z" />
<glyph unicode="&#xbd;" glyph-name="onehalf" horiz-adv-x="2560" d="M2058 619Q2058 780 1873 780T1553 642L1483 736Q1573 858 1750 912Q1816 933 1896 933T2044 910T2157 850Q2250 774 2250 674Q2250 480 2087 327Q1991 237 1880 167L1692 49L2234 82L2227
-77H1449L1404 19L1510 78Q1767 224 1925 384Q2058 518 2058 619ZM575 1395L314 1343L308 1466Q452 1503 624 1588Q695 1623 724 1645L793 1624L658 636H473L575 1395ZM1386 1530H1545L864 0H705L1386 1530Z" />
<glyph unicode="&#xbe;" glyph-name="threequarters" horiz-adv-x="2560" d="M1804 167H1312L1275 262L1881 1113H1929L2062 1010L1571 401L1492 309L1825 323L1861 576L2063 599L2027 331L2289 342L2269 167H2005L1959 -176H1756L1804 167ZM473 1520Q651 1644
862 1644Q1003 1644 1088 1580Q1167 1522 1167 1432Q1167 1326 1087 1240Q1018 1167 904 1124Q1044 1124 1108 1040Q1154 978 1154 890Q1154 774 1072 686Q966 573 766 543Q706 534 664 534T585 538T510 552Q421 573 368 606L385 714Q491 663 626 663Q827 663 914
774Q947 818 947 867T936 943T902 991Q855 1034 772 1036L611 1001L632 1146Q842 1186 916 1292Q945 1333 945 1390Q945 1502 803 1502T519 1408L473 1520ZM1386 1530H1545L864 0H705L1386 1530Z" />
<glyph unicode="&#xbf;" glyph-name="questiondown" horiz-adv-x="1028" d="M692 1191T663 1178T600 1164T544 1173T506 1198Q479 1227 479 1289T521 1393T636 1436Q715 1436 746 1370Q755 1349 755 1321T744 1264T713 1213ZM87 70Q87 154 110 220T172 335T259
420T358 486L458 542Q565 599 606 660Q630 694 630 728T624 786T611 831T596 871T586 901L713 951L730 950Q788 901 812 790Q820 756 820 717T802 638T747 562Q683 496 531 414Q299 298 277 193Q268 153 268 88T297 -35T374 -130Q470 -205 602 -205Q720 -205 819
-172L791 -312Q756 -347 649 -361Q618 -365 588 -365Q333 -365 200 -230Q87 -115 87 70Z" />
<glyph unicode="&#xc0;" glyph-name="Agrave" horiz-adv-x="1265" d="M670 1530H889L1175 0H977L911 396H317L135 0H-76L670 1530ZM885 547L770 1236L757 1352L386 547H885ZM818 1593Q744 1620 669 1681Q534 1794 491 1872L615 2000L891 1658L818 1593Z" />
<glyph unicode="&#xc1;" glyph-name="Aacute" horiz-adv-x="1265" d="M670 1530H889L1175 0H977L911 396H317L135 0H-76L670 1530ZM885 547L770 1236L757 1352L386 547H885ZM749 1658L1025 2000L1149 1872Q1106 1794 999 1704Q896 1620 822 1593L749 1658Z" />
<glyph unicode="&#xc2;" glyph-name="Acircumflex" horiz-adv-x="1265" d="M670 1530H889L1175 0H977L911 396H317L135 0H-76L670 1530ZM885 547L770 1236L757 1352L386 547H885ZM461 1656L788 2000H966L1156 1656L1062 1588L851 1822L538 1579L461 1656Z" />
<glyph unicode="&#xc3;" glyph-name="Atilde" horiz-adv-x="1265" d="M670 1530H889L1175 0H977L911 396H317L135 0H-76L670 1530ZM885 547L770 1236L757 1352L386 547H885ZM430 1801Q463 1867 545 1918Q632 1970 688 1970T774 1960T826 1934T868 1900L905 1866Q947
1830 979 1830T1032 1840T1069 1867T1100 1902L1128 1940L1213 1851Q1187 1775 1109 1721Q1033 1668 945 1668Q875 1668 837 1693T780 1737T743 1770Q640 1856 545 1748L517 1717L430 1801Z" />
<glyph unicode="&#xc4;" glyph-name="Adieresis" horiz-adv-x="1265" d="M670 1530H889L1175 0H977L911 396H317L135 0H-76L670 1530ZM885 547L770 1236L757 1352L386 547H885ZM895 1765T895 1804T909 1870T944 1916Q989 1959 1029 1959T1092 1950Q1162 1921 1162
1848Q1162 1786 1115 1740Q1069 1696 1028 1696Q964 1696 930 1730ZM486 1770Q478 1789 478 1800T478 1828T492 1870T526 1916Q571 1959 610 1959T673 1950Q743 1921 743 1848Q743 1787 695 1740Q649 1696 608 1696Q515 1696 486 1770Z" />
<glyph unicode="&#xc5;" glyph-name="Aring" horiz-adv-x="1265" d="M649 1488Q494 1544 494 1725Q494 1855 607 1932Q707 2000 841 2000Q968 2000 1042 1930Q1117 1859 1117 1735Q1117 1584 985 1514Q945 1492 898 1480L1175 0H977L911 396H317L135 0H-76L649
1488ZM697 1596T725 1585T788 1573T858 1580T919 1608Q975 1650 975 1752Q975 1848 886 1882Q859 1892 825 1892Q697 1892 650 1804Q633 1770 633 1730T644 1663T676 1616ZM885 547L770 1236L757 1352L386 547H885Z" />
<glyph unicode="&#xc6;" glyph-name="AE" horiz-adv-x="1763" d="M-128 0L641 1408L350 1430L364 1530H1695L1688 1373L1107 1381L1040 854L1478 861L1466 695L1023 710L951 149L1651 165L1637 0H735L787 416H304L85 0H-128ZM806 567L910 1387L820 1393L384 567H806Z" />
<glyph unicode="&#xc7;" glyph-name="Ccedilla" horiz-adv-x="1141" d="M709 -12Q732 -73 732 -160T710 -305T648 -397Q577 -462 454 -462Q389 -462 352 -451T306 -434L331 -283Q357 -297 395 -297T461 -290T512 -263Q561 -218 561 -117Q561 -95 561 -67T561 -14Q259
11 152 336Q107 475 107 626T129 892T196 1109T306 1292T450 1430Q614 1546 817 1546Q942 1546 1035 1515L1142 1479L1072 1315Q1060 1321 1041 1332T990 1354Q914 1380 814 1380T638 1346T507 1254T412 1121Q309 918 309 662Q309 429 394 290Q483 142 646 142Q762
142 878 184Q959 213 1005 250L1035 84Q930 3 709 -12Z" />
<glyph unicode="&#xc8;" glyph-name="Egrave" horiz-adv-x="1138" d="M726 1593Q652 1620 577 1681Q442 1794 399 1872L523 2000L799 1658L726 1593ZM303 1530H1070L1063 1373L482 1381L415 854L853 861L841 695L398 710L326 149L1026 165L1012 0H110L303 1530Z" />
<glyph unicode="&#xc9;" glyph-name="Eacute" horiz-adv-x="1138" d="M657 1658L933 2000L1057 1872Q1014 1794 907 1704Q804 1620 730 1593L657 1658ZM303 1530H1070L1063 1373L482 1381L415 854L853 861L841 695L398 710L326 149L1026 165L1012 0H110L303 1530Z" />
<glyph unicode="&#xca;" glyph-name="Ecircumflex" horiz-adv-x="1138" d="M303 1530H1070L1063 1373L482 1381L415 854L853 861L841 695L398 710L326 149L1026 165L1012 0H110L303 1530ZM369 1656L696 2000H874L1064 1656L970 1588L759 1822L446 1579L369 1656Z" />
<glyph unicode="&#xcb;" glyph-name="Edieresis" horiz-adv-x="1138" d="M803 1765T803 1804T817 1870T852 1916Q897 1959 937 1959T1000 1950Q1070 1921 1070 1848Q1070 1786 1023 1740Q977 1696 936 1696Q872 1696 838 1730ZM394 1770Q386 1789 386 1800T386
1828T400 1870T434 1916Q479 1959 518 1959T581 1950Q651 1921 651 1848Q651 1787 603 1740Q557 1696 516 1696Q423 1696 394 1770ZM303 1530H1070L1063 1373L482 1381L415 854L853 861L841 695L398 710L326 149L1026 165L1012 0H110L303 1530Z" />
<glyph unicode="&#xcc;" glyph-name="Igrave" horiz-adv-x="580" d="M320 1530H518L325 0H127L320 1530ZM457 1593Q383 1620 308 1681Q173 1794 130 1872L254 2000L530 1658L457 1593Z" />
<glyph unicode="&#xcd;" glyph-name="Iacute" horiz-adv-x="580" d="M320 1530H518L325 0H127L320 1530ZM388 1658L664 2000L788 1872Q745 1794 638 1704Q535 1620 461 1593L388 1658Z" />
<glyph unicode="&#xce;" glyph-name="Icircumflex" horiz-adv-x="580" d="M320 1530H518L325 0H127L320 1530ZM100 1656L427 2000H605L795 1656L701 1588L490 1822L177 1579L100 1656Z" />
<glyph unicode="&#xcf;" glyph-name="Idieresis" horiz-adv-x="580" d="M320 1530H518L325 0H127L320 1530ZM534 1765T534 1804T548 1870T583 1916Q628 1959 668 1959T731 1950Q801 1921 801 1848Q801 1786 754 1740Q708 1696 667 1696Q603 1696 569 1730ZM125
1770Q117 1789 117 1800T117 1828T131 1870T165 1916Q210 1959 249 1959T312 1950Q382 1921 382 1848Q382 1787 334 1740Q288 1696 247 1696Q154 1696 125 1770Z" />
<glyph unicode="&#xd0;" glyph-name="Eth" horiz-adv-x="1377" d="M411 1530L721 1546Q1013 1546 1160 1373Q1298 1209 1298 901Q1298 509 1090 250Q950 75 743 12Q648 -16 542 -16Q515 -16 498 -15L436 -11Q421 -10 408 -9L372 -6Q279 0 233 0H110L201 722H42L58
852H217L303 1530H411ZM328 163Q418 134 539 134Q822 134 971 390Q1093 600 1093 893Q1093 1175 989 1291Q891 1400 662 1400Q553 1400 482 1381L415 852H797L781 722H399L328 163Z" />
<glyph unicode="&#xd1;" glyph-name="Ntilde" horiz-adv-x="1400" d="M491 1801Q524 1867 606 1918Q693 1970 749 1970T835 1960T887 1934T929 1900L966 1866Q1008 1830 1040 1830T1093 1840T1130 1867T1161 1902L1189 1940L1274 1851Q1248 1775 1170 1721Q1094
1668 1006 1668Q936 1668 898 1693T841 1737T804 1770Q701 1856 606 1748L578 1717L491 1801ZM303 1530H509L949 468L1012 261L1031 510L1154 1530H1342L1149 0H956L501 1075L448 1307L421 1009L295 0H110L303 1530Z" />
<glyph unicode="&#xd2;" glyph-name="Ograve" horiz-adv-x="1378" d="M851 1593Q777 1620 702 1681Q567 1794 524 1872L648 2000L924 1658L851 1593ZM591 -16Q477 -16 386 33T234 168Q108 346 108 641Q108 882 195 1088Q284 1299 446 1421Q611 1546 814 1546Q1047
1546 1179 1362Q1305 1186 1305 899Q1305 516 1114 257Q914 -16 591 -16ZM631 136Q840 136 974 360Q1099 567 1099 859Q1099 1269 920 1360Q861 1389 786 1389T649 1361T534 1282T440 1161Q314 949 314 671Q314 391 393 264T631 136Z" />
<glyph unicode="&#xd3;" glyph-name="Oacute" horiz-adv-x="1378" d="M782 1658L1058 2000L1182 1872Q1139 1794 1032 1704Q929 1620 855 1593L782 1658ZM591 -16Q477 -16 386 33T234 168Q108 346 108 641Q108 882 195 1088Q284 1299 446 1421Q611 1546 814 1546Q1047
1546 1179 1362Q1305 1186 1305 899Q1305 516 1114 257Q914 -16 591 -16ZM631 136Q840 136 974 360Q1099 567 1099 859Q1099 1269 920 1360Q861 1389 786 1389T649 1361T534 1282T440 1161Q314 949 314 671Q314 391 393 264T631 136Z" />
<glyph unicode="&#xd4;" glyph-name="Ocircumflex" horiz-adv-x="1378" d="M591 -16Q477 -16 386 33T234 168Q108 346 108 641Q108 882 195 1088Q284 1299 446 1421Q611 1546 814 1546Q1047 1546 1179 1362Q1305 1186 1305 899Q1305 516 1114 257Q914 -16 591
-16ZM631 136Q840 136 974 360Q1099 567 1099 859Q1099 1269 920 1360Q861 1389 786 1389T649 1361T534 1282T440 1161Q314 949 314 671Q314 391 393 264T631 136ZM494 1656L821 2000H999L1189 1656L1095 1588L884 1822L571 1579L494 1656Z" />
<glyph unicode="&#xd5;" glyph-name="Otilde" horiz-adv-x="1378" d="M463 1801Q496 1867 578 1918Q665 1970 721 1970T807 1960T859 1934T901 1900L938 1866Q980 1830 1012 1830T1065 1840T1102 1867T1133 1902L1161 1940L1246 1851Q1220 1775 1142 1721Q1066
1668 978 1668Q908 1668 870 1693T813 1737T776 1770Q673 1856 578 1748L550 1717L463 1801ZM591 -16Q477 -16 386 33T234 168Q108 346 108 641Q108 882 195 1088Q284 1299 446 1421Q611 1546 814 1546Q1047 1546 1179 1362Q1305 1186 1305 899Q1305 516 1114 257Q914
-16 591 -16ZM631 136Q840 136 974 360Q1099 567 1099 859Q1099 1269 920 1360Q861 1389 786 1389T649 1361T534 1282T440 1161Q314 949 314 671Q314 391 393 264T631 136Z" />
<glyph unicode="&#xd6;" glyph-name="Odieresis" horiz-adv-x="1378" d="M928 1765T928 1804T942 1870T977 1916Q1022 1959 1062 1959T1125 1950Q1195 1921 1195 1848Q1195 1786 1148 1740Q1102 1696 1061 1696Q997 1696 963 1730ZM519 1770Q511 1789 511 1800T511
1828T525 1870T559 1916Q604 1959 643 1959T706 1950Q776 1921 776 1848Q776 1787 728 1740Q682 1696 641 1696Q548 1696 519 1770ZM591 -16Q477 -16 386 33T234 168Q108 346 108 641Q108 882 195 1088Q284 1299 446 1421Q611 1546 814 1546Q1047 1546 1179 1362Q1305
1186 1305 899Q1305 516 1114 257Q914 -16 591 -16ZM631 136Q840 136 974 360Q1099 567 1099 859Q1099 1269 920 1360Q861 1389 786 1389T649 1361T534 1282T440 1161Q314 949 314 671Q314 391 393 264T631 136Z" />
<glyph unicode="&#xd7;" glyph-name="multiply" horiz-adv-x="1370" d="M231 438L614 765L313 1092L445 1215L726 865L1095 1215L1197 1092L814 765L1115 438L983 315L702 665L333 315L231 438Z" />
<glyph unicode="&#xd8;" glyph-name="Oslash" horiz-adv-x="1378" d="M599 -16Q417 -16 297 96L146 -132L57 -83L229 175Q108 350 108 641Q108 882 195 1088Q284 1299 446 1421Q611 1546 814 1546Q971 1546 1084 1460L1224 1670L1313 1621L1158 1388Q1305 1210
1305 899Q1305 516 1114 257Q986 83 799 17Q705 -16 599 -16ZM978 1317Q906 1389 782 1389Q645 1389 534 1282Q372 1127 326 835Q314 754 314 707Q314 471 356 346L978 1317ZM409 241Q484 136 631 136Q840 136 974 360Q1099 567 1099 859Q1099 1096 1040 1225L409
241Z" />
<glyph unicode="&#xd9;" glyph-name="Ugrave" horiz-adv-x="1363" d="M838 1593Q764 1620 689 1681Q554 1794 511 1872L635 2000L911 1658L838 1593ZM349 455Q349 145 630 145Q795 145 887 260Q984 381 1017 644L1129 1530H1322L1208 627Q1142 121 832 18Q730
-16 610 -16T406 14T264 102Q146 222 146 442Q146 474 150 511L277 1530H475L361 628Q349 516 349 455Z" />
<glyph unicode="&#xda;" glyph-name="Uacute" horiz-adv-x="1363" d="M769 1658L1045 2000L1169 1872Q1126 1794 1019 1704Q916 1620 842 1593L769 1658ZM349 455Q349 145 630 145Q795 145 887 260Q984 381 1017 644L1129 1530H1322L1208 627Q1142 121 832 18Q730
-16 610 -16T406 14T264 102Q146 222 146 442Q146 474 150 511L277 1530H475L361 628Q349 516 349 455Z" />
<glyph unicode="&#xdb;" glyph-name="Ucircumflex" horiz-adv-x="1363" d="M349 455Q349 145 630 145Q795 145 887 260Q984 381 1017 644L1129 1530H1322L1208 627Q1142 121 832 18Q730 -16 610 -16T406 14T264 102Q146 222 146 442Q146 474 150 511L277 1530H475L361
628Q349 516 349 455ZM481 1656L808 2000H986L1176 1656L1082 1588L871 1822L558 1579L481 1656Z" />
<glyph unicode="&#xdc;" glyph-name="Udieresis" horiz-adv-x="1363" d="M915 1765T915 1804T929 1870T964 1916Q1009 1959 1049 1959T1112 1950Q1182 1921 1182 1848Q1182 1786 1135 1740Q1089 1696 1048 1696Q984 1696 950 1730ZM506 1770Q498 1789 498 1800T498
1828T512 1870T546 1916Q591 1959 630 1959T693 1950Q763 1921 763 1848Q763 1787 715 1740Q669 1696 628 1696Q535 1696 506 1770ZM349 455Q349 145 630 145Q795 145 887 260Q984 381 1017 644L1129 1530H1322L1208 627Q1142 121 832 18Q730 -16 610 -16T406 14T264
102Q146 222 146 442Q146 474 150 511L277 1530H475L361 628Q349 516 349 455Z" />
<glyph unicode="&#xdd;" glyph-name="Yacute" horiz-adv-x="1083" d="M456 590L83 1530H295L543 838L575 762L613 838L1025 1530H1237L644 590L568 0H380L456 590ZM639 1658L915 2000L1039 1872Q996 1794 889 1704Q786 1620 712 1593L639 1658Z" />
<glyph unicode="&#xde;" glyph-name="Thorn" horiz-adv-x="1210" d="M530 270Q398 270 343 280L308 0H110L303 1530H501L469 1283Q648 1297 682 1297Q1133 1297 1139 907Q1139 898 1139 889Q1139 611 971 442Q801 270 530 270ZM938 896Q938 1148 650 1148Q566
1148 450 1127L363 440Q424 426 531 426Q938 430 938 896Z" />
<glyph unicode="&#xdf;" glyph-name="germandbls" horiz-adv-x="1180" d="M194 931Q258 1438 548 1552Q643 1589 745 1589T905 1571T1005 1516Q1095 1437 1095 1297Q1095 1135 970 1010L909 946Q844 876 844 819Q844 786 872 747T921 683T962 629T1004 565T1044
490Q1085 399 1085 320T1059 181T980 77Q872 -16 679 -16Q579 -16 512 3T428 31L454 218Q511 166 597 144Q629 136 675 136T763 144T830 172Q879 209 879 302Q879 396 790 527Q656 685 656 797Q656 864 678 903Q708 959 748 1001T813 1075T856 1140Q893 1212 893
1267T883 1351T851 1402Q806 1448 734 1448T610 1425T514 1337Q423 1202 380 871L271 4H77L194 931Z" />
<glyph unicode="&#xe0;" glyph-name="agrave" horiz-adv-x="1145" d="M380 -16Q311 -16 253 15T156 102Q81 213 81 416Q81 687 230 904Q338 1059 515 1123Q606 1156 719 1156Q809 1156 945 1122L1058 1156L902 0H730L745 190Q593 -16 380 -16ZM283 440Q283 136
426 136Q599 136 757 383L843 988Q768 1013 692 1013T559 987T456 917T379 816T324 694Q283 570 283 440ZM675 1241Q579 1282 422 1447Q350 1522 319 1576L472 1713L760 1311L675 1241Z" />
<glyph unicode="&#xe1;" glyph-name="aacute" horiz-adv-x="1145" d="M380 -16Q311 -16 253 15T156 102Q81 213 81 416Q81 687 230 904Q338 1059 515 1123Q606 1156 719 1156Q809 1156 945 1122L1058 1156L902 0H730L745 190Q593 -16 380 -16ZM283 440Q283 136
426 136Q599 136 757 383L843 988Q768 1013 692 1013T559 987T456 917T379 816T324 694Q283 570 283 440ZM597 1312L904 1713L1056 1576Q1026 1519 899 1400Q759 1270 680 1241L597 1312Z" />
<glyph unicode="&#xe2;" glyph-name="acircumflex" horiz-adv-x="1145" d="M380 -16Q311 -16 253 15T156 102Q81 213 81 416Q81 687 230 904Q338 1059 515 1123Q606 1156 719 1156Q809 1156 945 1122L1058 1156L902 0H730L745 190Q593 -16 380 -16ZM283 440Q283
136 426 136Q599 136 757 383L843 988Q768 1013 692 1013T559 987T456 917T379 816T324 694Q283 570 283 440ZM342 1276L669 1650H847L1037 1276L943 1208L732 1472L419 1199L342 1276Z" />
<glyph unicode="&#xe3;" glyph-name="atilde" horiz-adv-x="1145" d="M380 -16Q311 -16 253 15T156 102Q81 213 81 416Q81 687 230 904Q338 1059 515 1123Q606 1156 719 1156Q809 1156 945 1122L1058 1156L902 0H730L745 190Q593 -16 380 -16ZM283 440Q283 136
426 136Q599 136 757 383L843 988Q768 1013 692 1013T559 987T456 917T379 816T324 694Q283 570 283 440ZM323 1481Q356 1547 438 1598Q525 1650 581 1650T667 1640T719 1614T761 1580L798 1546Q840 1510 872 1510T925 1520T962 1547T993 1582L1021 1620L1106 1531Q1080
1455 1002 1401Q926 1348 838 1348Q768 1348 730 1373T673 1417T636 1450Q533 1536 438 1428L410 1397L323 1481Z" />
<glyph unicode="&#xe4;" glyph-name="adieresis" horiz-adv-x="1145" d="M380 -16Q311 -16 253 15T156 102Q81 213 81 416Q81 687 230 904Q338 1059 515 1123Q606 1156 719 1156Q809 1156 945 1122L1058 1156L902 0H730L745 190Q593 -16 380 -16ZM283 440Q283
136 426 136Q599 136 757 383L843 988Q768 1013 692 1013T559 987T456 917T379 816T324 694Q283 570 283 440ZM839 1424Q782 1482 821 1562Q847 1616 899 1640Q925 1651 952 1651T1003 1642Q1074 1613 1074 1541Q1074 1478 1027 1432Q981 1388 940 1388Q873 1388
839 1424ZM457 1398Q387 1428 387 1503Q387 1562 433 1608Q476 1651 518 1651T583 1642Q654 1613 654 1541Q654 1478 607 1432Q561 1388 520 1388T457 1398Z" />
<glyph unicode="&#xe5;" glyph-name="aring" horiz-adv-x="1145" d="M380 -16Q311 -16 253 15T156 102Q81 213 81 416Q81 687 230 904Q338 1059 515 1123Q606 1156 719 1156Q809 1156 945 1122L1058 1156L902 0H730L745 190Q593 -16 380 -16ZM283 440Q283 136
426 136Q599 136 757 383L843 988Q768 1013 692 1013T559 987T456 917T379 816T324 694Q283 570 283 440ZM592 1253T517 1320T442 1511Q442 1641 555 1718Q655 1786 789 1786Q916 1786 990 1716Q1065 1645 1065 1521Q1065 1391 963 1319Q871 1253 732 1253ZM645
1382T673 1371T736 1359T806 1366T867 1394Q923 1436 923 1538Q923 1634 835 1668Q807 1678 773 1678Q645 1678 599 1590Q581 1556 581 1516T592 1449T624 1402Z" />
<glyph unicode="&#xe6;" glyph-name="ae" horiz-adv-x="1633" d="M706 255Q565 -16 371 -16Q81 -16 81 416Q81 687 230 904Q338 1059 515 1123Q606 1156 719 1156Q836 1156 897 1132T1006 1079Q1131 1156 1282 1156Q1489 1156 1546 1004Q1563 959 1563 891T1529
756T1440 637T1313 547T1166 483Q1028 435 890 425Q890 414 890 391T895 323T924 236Q975 138 1100 138Q1263 138 1432 297L1487 186Q1437 114 1334 56Q1208 -16 1077 -16Q857 -16 754 148Q723 198 706 255ZM283 440Q283 136 416 136T684 412V434Q692 758 870 963Q774
1013 695 1013T559 987T456 917T379 816T324 694Q283 570 283 440ZM1367 889Q1367 1008 1239 1008Q1099 1008 998 852Q913 720 895 564Q1043 571 1192 655Q1367 753 1367 889Z" />
<glyph unicode="&#xe7;" glyph-name="ccedilla" horiz-adv-x="905" d="M534 -9Q558 -72 558 -161T536 -307T474 -399Q403 -464 280 -464Q215 -464 178 -453T132 -436L157 -285Q183 -299 221 -299T287 -292T338 -265Q387 -220 387 -119Q387 -96 387 -66T387 -10Q238
13 162 128T85 434Q85 698 230 912Q333 1064 488 1124Q569 1156 630 1156T721 1154T780 1148Q848 1137 885 1118L834 951Q763 1009 648 1009Q584 1009 520 968T402 853Q284 686 284 454Q284 200 403 150Q442 133 500 133Q612 133 755 272L820 166Q747 72 631 20Q586
0 534 -9Z" />
<glyph unicode="&#xe8;" glyph-name="egrave" horiz-adv-x="1035" d="M502 138Q665 138 834 297L889 186Q839 114 736 56Q610 -16 492 -16T298 22Q86 129 86 419Q86 572 132 710T257 946Q425 1156 684 1156Q891 1156 948 1004Q965 959 965 891T931 756T842 637T715
547T568 483Q430 435 292 425Q292 414 292 391T297 323T326 236Q377 138 502 138ZM769 889Q769 1008 641 1008Q501 1008 400 852Q315 720 297 564Q445 571 594 655Q769 753 769 889ZM613 1241Q517 1282 360 1447Q288 1522 257 1576L410 1713L698 1311L613 1241Z"
/>
<glyph unicode="&#xe9;" glyph-name="eacute" horiz-adv-x="1035" d="M535 1312L842 1713L994 1576Q964 1519 837 1400Q697 1270 618 1241L535 1312ZM502 138Q665 138 834 297L889 186Q839 114 736 56Q610 -16 492 -16T298 22Q86 129 86 419Q86 572 132 710T257
946Q425 1156 684 1156Q891 1156 948 1004Q965 959 965 891T931 756T842 637T715 547T568 483Q430 435 292 425Q292 414 292 391T297 323T326 236Q377 138 502 138ZM769 889Q769 1008 641 1008Q501 1008 400 852Q315 720 297 564Q445 571 594 655Q769 753 769 889Z"
/>
<glyph unicode="&#xea;" glyph-name="ecircumflex" horiz-adv-x="1035" d="M280 1276L607 1650H785L975 1276L881 1208L670 1472L357 1199L280 1276ZM502 138Q665 138 834 297L889 186Q839 114 736 56Q610 -16 492 -16T298 22Q86 129 86 419Q86 572 132 710T257
946Q425 1156 684 1156Q891 1156 948 1004Q965 959 965 891T931 756T842 637T715 547T568 483Q430 435 292 425Q292 414 292 391T297 323T326 236Q377 138 502 138ZM769 889Q769 1008 641 1008Q501 1008 400 852Q315 720 297 564Q445 571 594 655Q769 753 769 889Z"
/>
<glyph unicode="&#xeb;" glyph-name="edieresis" horiz-adv-x="1035" d="M777 1424Q720 1482 759 1562Q785 1616 837 1640Q863 1651 890 1651T941 1642Q1012 1613 1012 1541Q1012 1478 965 1432Q919 1388 878 1388Q811 1388 777 1424ZM395 1398Q325 1428 325 1503Q325
1562 371 1608Q414 1651 456 1651T521 1642Q592 1613 592 1541Q592 1478 545 1432Q499 1388 458 1388T395 1398ZM502 138Q665 138 834 297L889 186Q839 114 736 56Q610 -16 492 -16T298 22Q86 129 86 419Q86 572 132 710T257 946Q425 1156 684 1156Q891 1156 948
1004Q965 959 965 891T931 756T842 637T715 547T568 483Q430 435 292 425Q292 414 292 391T297 323T326 236Q377 138 502 138ZM769 889Q769 1008 641 1008Q501 1008 400 852Q315 720 297 564Q445 571 594 655Q769 753 769 889Z" />
<glyph unicode="&#xec;" glyph-name="igrave" horiz-adv-x="584" d="M279 1140H474L319 0H124L279 1140ZM637 1241Q541 1282 384 1447Q312 1522 281 1576L434 1713L722 1311L637 1241Z" />
<glyph unicode="&#xed;" glyph-name="iacute" horiz-adv-x="584" d="M302 1312L609 1713L761 1576Q731 1519 604 1400Q464 1270 385 1241L302 1312ZM279 1140H474L319 0H124L279 1140Z" />
<glyph unicode="&#xee;" glyph-name="icircumflex" horiz-adv-x="584" d="M304 1276L631 1650H809L999 1276L905 1208L694 1472L381 1199L304 1276ZM279 1140H474L319 0H124L279 1140Z" />
<glyph unicode="&#xef;" glyph-name="idieresis" horiz-adv-x="584" d="M544 1424Q487 1482 526 1562Q552 1616 604 1640Q630 1651 657 1651T708 1642Q779 1613 779 1541Q779 1478 732 1432Q686 1388 645 1388Q578 1388 544 1424ZM162 1398Q92 1428 92 1503Q92
1562 138 1608Q181 1651 223 1651T288 1642Q359 1613 359 1541Q359 1478 312 1432Q266 1388 225 1388T162 1398ZM279 1140H474L319 0H124L279 1140Z" />
<glyph unicode="&#xf0;" glyph-name="eth" horiz-adv-x="1182" d="M393 1781Q526 1743 686 1638L839 1816L937 1727L789 1558Q944 1410 1016 1242T1088 869Q1088 492 936 246Q774 -16 495 -16Q303 -16 188 134Q89 266 89 446Q89 772 263 970Q426 1156 648 1156Q774
1156 856 1095Q885 1073 904 1042Q882 1177 845 1247Q785 1359 690 1446L540 1278L434 1366L591 1529Q446 1637 350 1662L393 1781ZM339 742T320 639T300 455T314 318T358 218Q420 122 524 122Q647 122 744 263Q836 398 867 598L874 641Q878 665 882 690L888 736Q892
768 892 780T887 815T868 863T835 917T787 966Q724 1014 638 1014T488 962T381 826Z" />
<glyph unicode="&#xf1;" glyph-name="ntilde" horiz-adv-x="1194" d="M238 1140H423L402 916V915Q545 1081 722 1137Q783 1156 844 1156Q955 1156 1010 1089T1066 866Q1066 797 1038 597L950 4H754Q771 134 791 265L828 514Q867 771 867 832T860 917T838 954Q817
975 769 975T669 954T565 896Q452 818 374 714L278 4H83L238 1140ZM275 1481Q308 1547 390 1598Q477 1650 533 1650T619 1640T671 1614T713 1580L750 1546Q792 1510 824 1510T877 1520T914 1547T945 1582L973 1620L1058 1531Q1032 1455 954 1401Q878 1348 790 1348Q720
1348 682 1373T625 1417T588 1450Q485 1536 390 1428L362 1397L275 1481Z" />
<glyph unicode="&#xf2;" glyph-name="ograve" horiz-adv-x="1135" d="M312 15Q89 111 89 463Q89 729 247 937Q351 1074 502 1128Q577 1156 666 1156T826 1125T944 1035Q1041 913 1041 686Q1041 409 888 204Q785 66 638 12Q563 -16 474 -16T312 15ZM292 460Q292
131 509 131Q616 131 696 222Q802 342 829 567Q836 626 836 657T836 729T823 828T786 926Q737 1009 630 1009Q523 1009 440 918Q328 796 300 575Q292 516 292 460ZM617 1241Q521 1282 364 1447Q292 1522 261 1576L414 1713L702 1311L617 1241Z" />
<glyph unicode="&#xf3;" glyph-name="oacute" horiz-adv-x="1135" d="M539 1312L846 1713L998 1576Q968 1519 841 1400Q701 1270 622 1241L539 1312ZM312 15Q89 111 89 463Q89 729 247 937Q351 1074 502 1128Q577 1156 666 1156T826 1125T944 1035Q1041 913 1041
686Q1041 409 888 204Q785 66 638 12Q563 -16 474 -16T312 15ZM292 460Q292 131 509 131Q616 131 696 222Q802 342 829 567Q836 626 836 657T836 729T823 828T786 926Q737 1009 630 1009Q523 1009 440 918Q328 796 300 575Q292 516 292 460Z" />
<glyph unicode="&#xf4;" glyph-name="ocircumflex" horiz-adv-x="1135" d="M284 1276L611 1650H789L979 1276L885 1208L674 1472L361 1199L284 1276ZM312 15Q89 111 89 463Q89 729 247 937Q351 1074 502 1128Q577 1156 666 1156T826 1125T944 1035Q1041 913 1041
686Q1041 409 888 204Q785 66 638 12Q563 -16 474 -16T312 15ZM292 460Q292 131 509 131Q616 131 696 222Q802 342 829 567Q836 626 836 657T836 729T823 828T786 926Q737 1009 630 1009Q523 1009 440 918Q328 796 300 575Q292 516 292 460Z" />
<glyph unicode="&#xf5;" glyph-name="otilde" horiz-adv-x="1135" d="M312 15Q89 111 89 463Q89 729 247 937Q351 1074 502 1128Q577 1156 666 1156T826 1125T944 1035Q1041 913 1041 686Q1041 409 888 204Q785 66 638 12Q563 -16 474 -16T312 15ZM292 460Q292
131 509 131Q616 131 696 222Q802 342 829 567Q836 626 836 657T836 729T823 828T786 926Q737 1009 630 1009Q523 1009 440 918Q328 796 300 575Q292 516 292 460ZM265 1481Q298 1547 380 1598Q467 1650 523 1650T609 1640T661 1614T703 1580L740 1546Q782 1510
814 1510T867 1520T904 1547T935 1582L963 1620L1048 1531Q1022 1455 944 1401Q868 1348 780 1348Q710 1348 672 1373T615 1417T578 1450Q475 1536 380 1428L352 1397L265 1481Z" />
<glyph unicode="&#xf6;" glyph-name="odieresis" horiz-adv-x="1135" d="M781 1424Q724 1482 763 1562Q789 1616 841 1640Q867 1651 894 1651T945 1642Q1016 1613 1016 1541Q1016 1478 969 1432Q923 1388 882 1388Q815 1388 781 1424ZM399 1398Q329 1428 329 1503Q329
1562 375 1608Q418 1651 460 1651T525 1642Q596 1613 596 1541Q596 1478 549 1432Q503 1388 462 1388T399 1398ZM312 15Q89 111 89 463Q89 729 247 937Q351 1074 502 1128Q577 1156 666 1156T826 1125T944 1035Q1041 913 1041 686Q1041 409 888 204Q785 66 638
12Q563 -16 474 -16T312 15ZM292 460Q292 131 509 131Q616 131 696 222Q802 342 829 567Q836 626 836 657T836 729T823 828T786 926Q737 1009 630 1009Q523 1009 440 918Q328 796 300 575Q292 516 292 460Z" />
<glyph unicode="&#xf7;" glyph-name="divide" horiz-adv-x="1338" d="M799 1047T770 1037T713 1026T663 1034T622 1059Q584 1093 588 1137T610 1209T653 1256Q706 1298 753 1298T824 1288T864 1261Q892 1227 887 1184T865 1113T824 1067ZM259 853H1128L1110 696H241L259
853ZM542 269T525 285T501 321T493 371T512 431T556 482Q610 524 657 524T728 514Q790 488 790 416Q790 343 728 292Q678 252 634 252T566 260Z" />
<glyph unicode="&#xf8;" glyph-name="oslash" horiz-adv-x="1135" d="M928 1056Q1042 936 1042 688Q1042 411 889 206Q786 68 638 14Q564 -14 480 -14Q343 -14 251 52L123 -132L34 -83L178 125Q90 247 90 465Q90 731 248 939Q352 1076 502 1130Q578 1158 673 1158T846
1117L977 1303L1066 1254L928 1056ZM741 980Q696 1011 635 1011T527 987T441 921T374 824Q293 665 293 462Q293 371 310 303L741 980ZM362 197Q415 133 510 133Q617 133 697 224Q803 344 830 569Q837 628 837 659Q837 812 805 893L362 197Z" />
<glyph unicode="&#xf9;" glyph-name="ugrave" horiz-adv-x="1173" d="M102 270Q102 336 117 451Q172 860 187 958L213 1140H409Q398 1056 386 970L339 642Q301 374 301 308T309 217T335 176Q365 151 422 151T526 172T621 230Q719 305 791 412L888 1140H1083L932
0H750L771 218Q645 52 481 -2Q424 -20 364 -20Q232 -20 167 47T102 270ZM646 1241Q550 1282 393 1447Q321 1522 290 1576L443 1713L731 1311L646 1241Z" />
<glyph unicode="&#xfa;" glyph-name="uacute" horiz-adv-x="1173" d="M568 1312L875 1713L1027 1576Q997 1519 870 1400Q730 1270 651 1241L568 1312ZM102 270Q102 336 117 451Q172 860 187 958L213 1140H409Q398 1056 386 970L339 642Q301 374 301 308T309 217T335
176Q365 151 422 151T526 172T621 230Q719 305 791 412L888 1140H1083L932 0H750L771 218Q645 52 481 -2Q424 -20 364 -20Q232 -20 167 47T102 270Z" />
<glyph unicode="&#xfb;" glyph-name="ucircumflex" horiz-adv-x="1173" d="M313 1276L640 1650H818L1008 1276L914 1208L703 1472L390 1199L313 1276ZM102 270Q102 336 117 451Q172 860 187 958L213 1140H409Q398 1056 386 970L339 642Q301 374 301 308T309 217T335
176Q365 151 422 151T526 172T621 230Q719 305 791 412L888 1140H1083L932 0H750L771 218Q645 52 481 -2Q424 -20 364 -20Q232 -20 167 47T102 270Z" />
<glyph unicode="&#xfc;" glyph-name="udieresis" horiz-adv-x="1173" d="M810 1424Q753 1482 792 1562Q818 1616 870 1640Q896 1651 923 1651T974 1642Q1045 1613 1045 1541Q1045 1478 998 1432Q952 1388 911 1388Q844 1388 810 1424ZM428 1398Q358 1428 358 1503Q358
1562 404 1608Q447 1651 489 1651T554 1642Q625 1613 625 1541Q625 1478 578 1432Q532 1388 491 1388T428 1398ZM102 270Q102 336 117 451Q172 860 187 958L213 1140H409Q398 1056 386 970L339 642Q301 374 301 308T309 217T335 176Q365 151 422 151T526 172T621
230Q719 305 791 412L888 1140H1083L932 0H750L771 218Q645 52 481 -2Q424 -20 364 -20Q232 -20 167 47T102 270Z" />
<glyph unicode="&#xfd;" glyph-name="yacute" horiz-adv-x="1050" d="M-139 -312Q-79 -342 -26 -342T75 -328T175 -278Q282 -202 410 -16H289L224 359L115 1140H331L415 359L455 56L558 239Q760 562 802 1006Q806 1057 809 1140H1001Q1003 1109 1003 1076T998
977T972 814T918 618Q777 191 501 -154Q501 -154 406 -268Q210 -501 -53 -501Q-125 -501 -195 -474L-139 -312ZM460 1312L767 1713L919 1576Q889 1519 762 1400Q622 1270 543 1241L460 1312Z" />
<glyph unicode="&#xfe;" glyph-name="thorn" horiz-adv-x="1163" d="M626 17Q535 -16 445 -16T278 -1L202 -516H12L83 -16L302 1638H487L432 1147L396 954Q499 1090 648 1138Q701 1156 770 1156T897 1125T994 1038Q1070 927 1070 724Q1070 454 915 236Q805 81
626 17ZM868 700Q868 1004 725 1004Q583 1004 442 840Q405 797 380 759L300 151Q372 127 448 127T583 153T688 223T768 324T824 446Q868 574 868 700Z" />
<glyph unicode="&#xff;" glyph-name="ydieresis" horiz-adv-x="1050" d="M-139 -312Q-79 -342 -26 -342T75 -328T175 -278Q282 -202 410 -16H289L224 359L115 1140H331L415 359L455 56L558 239Q760 562 802 1006Q806 1057 809 1140H1001Q1003 1109 1003 1076T998
977T972 814T918 618Q777 191 501 -154Q501 -154 406 -268Q210 -501 -53 -501Q-125 -501 -195 -474L-139 -312ZM702 1424Q645 1482 684 1562Q710 1616 762 1640Q788 1651 815 1651T866 1642Q937 1613 937 1541Q937 1478 890 1432Q844 1388 803 1388Q736 1388 702
1424ZM320 1398Q250 1428 250 1503Q250 1562 296 1608Q339 1651 381 1651T446 1642Q517 1613 517 1541Q517 1478 470 1432Q424 1388 383 1388T320 1398Z" />
<glyph unicode="&#x2013;" glyph-name="endash" horiz-adv-x="1538" d="M248 851H1345L1315 694H218L248 851Z" />
<glyph unicode="&#x2014;" glyph-name="emdash" horiz-adv-x="2031" d="M247 851H1838L1808 694H218L247 851Z" />
<glyph unicode="&#x2018;" glyph-name="quoteleft" horiz-adv-x="682" d="M498 1084L493 1043L371 927Q304 955 250 1041Q189 1137 189 1246T220 1437T300 1579Q380 1681 503 1741L578 1630L576 1608Q515 1578 466 1496Q406 1400 406 1281T498 1084Z" />
<glyph unicode="&#x2019;" glyph-name="quoteright" horiz-adv-x="682" d="M294 1573L299 1614L421 1730Q488 1702 542 1616Q603 1520 603 1411T572 1220T492 1078Q412 976 289 916L214 1027L216 1049Q277 1079 326 1161Q386 1257 386 1376T294 1573Z" />
<glyph unicode="&#x201a;" glyph-name="quotesinglbase" horiz-adv-x="682" d="M180 134L185 175L307 291Q374 263 428 177Q489 81 489 -28T458 -219T378 -361Q298 -463 175 -523L100 -412L102 -390Q163 -360 212 -278Q272 -182 272 -63T180 134Z" />
<glyph unicode="&#x201c;" glyph-name="quotedblleft" horiz-adv-x="1161" d="M977 1084L972 1043L850 927Q783 955 729 1041Q668 1137 668 1246T699 1437T779 1579Q859 1681 982 1741L1057 1630L1055 1608Q994 1578 945 1496Q885 1400 885 1281T977 1084ZM498
1084L493 1043L371 927Q304 955 250 1041Q189 1137 189 1246T220 1437T300 1579Q380 1681 503 1741L578 1630L576 1608Q515 1578 466 1496Q406 1400 406 1281T498 1084Z" />
<glyph unicode="&#x201d;" glyph-name="quotedblright" horiz-adv-x="1161" d="M843 1573L848 1614L970 1730Q1037 1702 1091 1616Q1152 1520 1152 1411T1121 1220T1041 1078Q961 976 838 916L763 1027L765 1049Q826 1079 875 1161Q935 1257 935 1376T843 1573ZM364
1573L369 1614L491 1730Q558 1702 612 1616Q673 1520 673 1411T642 1220T562 1078Q482 976 359 916L284 1027L286 1049Q347 1079 396 1161Q456 1257 456 1376T364 1573Z" />
<glyph unicode="&#x201e;" glyph-name="quotedblbase" horiz-adv-x="1161" d="M180 134L185 175L307 291Q374 263 428 177Q489 81 489 -28T458 -219T378 -361Q298 -463 175 -523L100 -412L102 -390Q163 -360 212 -278Q272 -182 272 -63T180 134ZM659 134L664 175L786
291Q853 263 907 177Q968 81 968 -28T937 -219T857 -361Q777 -463 654 -523L579 -412L581 -390Q642 -360 691 -278Q751 -182 751 -63T659 134Z" />
<glyph unicode="&#x2022;" glyph-name="bullet" horiz-adv-x="858" d="M559 554T513 531T419 507T339 521T284 559Q233 611 233 669T252 773T305 856Q381 939 484 939Q559 939 610 890Q660 841 660 782T643 676T592 592Z" />
<glyph unicode="&#x2039;" glyph-name="guilsinglleft" horiz-adv-x="1190" d="M256 690L948 1086L986 971L476 615L890 264L820 152L234 530L256 690Z" />
<glyph unicode="&#x203a;" glyph-name="guilsinglright" horiz-adv-x="1190" d="M905 548L213 152L175 267L685 623L271 974L341 1086L927 708L905 548Z" />
</font>
</defs>
</svg>
